<svg id="pencil-on-a-notes-paper" xmlns="http://www.w3.org/2000/svg" width="15.348" height="15.348" viewBox="0 0 15.348 15.348">
  <path id="Path_17992" data-name="Path 17992" d="M13.429,5.31v8.119a1.919,1.919,0,0,1-1.918,1.918H1.918A1.919,1.919,0,0,1,0,13.429V3.837A1.919,1.919,0,0,1,1.918,1.918h8.119L8.12,3.837h-6.2v9.592h9.592v-6.2ZM11.957,1.356l-.678.678L13.313,4.07l.678-.678ZM13.313,0l-.678.678,2.035,2.035.678-.679ZM4.5,8.819l2.035,2.035,6.1-6.1L10.6,2.713Zm-.659,2.692H5.755L3.837,9.592Z" fill="#fff"/>
</svg>
