<svg xmlns="http://www.w3.org/2000/svg" viewBox="0 0 32.339 32.337"><defs><style>.a{fill:#838296;}</style></defs><g transform="translate(0 -0.023)"><g transform="translate(9.648 24.267)"><path class="a" d="M154,384.365a.659.659,0,0,0-.036-.119.641.641,0,0,0-.058-.109.614.614,0,0,0-.174-.174.621.621,0,0,0-.109-.058.6.6,0,0,0-.118-.036.622.622,0,0,0-.246,0,.614.614,0,0,0-.119.036.638.638,0,0,0-.109.058.631.631,0,0,0-.232.283.612.612,0,0,0-.036.119.607.607,0,0,0,0,.246.593.593,0,0,0,.036.118.586.586,0,0,0,.058.109.614.614,0,0,0,.174.174.634.634,0,0,0,.109.058.61.61,0,0,0,.119.036.607.607,0,0,0,.246,0,.592.592,0,0,0,.118-.036.623.623,0,0,0,.109-.058.614.614,0,0,0,.174-.174.624.624,0,0,0,.058-.109.638.638,0,0,0,.036-.118.607.607,0,0,0,0-.246Z" transform="translate(-152.75 -383.857)"/></g><g transform="translate(0 19.597)"><path class="a" d="M29.054,315.295l-.008-.019c-.581-1.36-1.945-1.863-3.558-1.312l-4.4,1.217a2.885,2.885,0,0,0-1.786-1.759l-.017-.006-4.837-1.642a4.989,4.989,0,0,0-4.025-1.852,5.051,5.051,0,0,0-3.945,2.366H.632a.632.632,0,0,0-.632.632v7.963a.632.632,0,0,0,.632.632H4.387a.632.632,0,0,0,.632-.632v-.545H6.78a.632.632,0,0,0,.632-.632v-.182a4.478,4.478,0,0,1,2.307.828,38.225,38.225,0,0,0,3.795,1.937l.028.012a5.67,5.67,0,0,0,2.032.383,5.034,5.034,0,0,0,2.093-.448l9.727-3.483.051-.021A2.7,2.7,0,0,0,29.054,315.295Zm-25.3,4.957H1.263v-6.7H3.755Zm2.393-1.177H5.019v-5.523h1.13Zm20.79-1.5-9.722,3.481-.028.011-.025.011a4.094,4.094,0,0,1-3.146.054,36.584,36.584,0,0,1-3.667-1.873,5.685,5.685,0,0,0-2.938-1v-5.087a3.9,3.9,0,0,1,3.012-1.986,3.645,3.645,0,0,1,3.092,1.453.632.632,0,0,0,.335.267l5.02,1.7a1.417,1.417,0,0,1,1.031,1.672,1.231,1.231,0,0,1-1.512.849l-5.659-1.793a.632.632,0,1,0-.382,1.2l5.669,1.8.018.005a2.479,2.479,0,0,0,1.9-.22,2.477,2.477,0,0,0,1.185-1.5q.022-.077.039-.153l4.742-1.314c.685-.234,1.584-.318,1.984.6C28.3,316.845,27.219,317.441,26.939,317.574Z" transform="translate(0 -309.922)"/></g><g transform="translate(21.428 7.822)"><path class="a" d="M340.5,124.006a.612.612,0,0,0-.037-.119.641.641,0,0,0-.136-.2.6.6,0,0,0-.1-.078.64.64,0,0,0-.109-.058.629.629,0,0,0-.365-.036.593.593,0,0,0-.118.036.623.623,0,0,0-.109.058.614.614,0,0,0-.174.174.64.64,0,0,0-.058.109.61.61,0,0,0-.036.119.607.607,0,0,0,0,.246.591.591,0,0,0,.036.118.623.623,0,0,0,.058.109.614.614,0,0,0,.174.174.623.623,0,0,0,.109.058.638.638,0,0,0,.118.036.623.623,0,0,0,.123.013.634.634,0,0,0,.124-.013.668.668,0,0,0,.118-.036.641.641,0,0,0,.109-.058.614.614,0,0,0,.174-.174.583.583,0,0,0,.058-.109.593.593,0,0,0,.037-.118.638.638,0,0,0,0-.246Z" transform="translate(-339.25 -123.498)"/></g><g transform="translate(1.875 0.023)"><path class="a" d="M59.523,2.162H55.768a.632.632,0,0,0-.632.632v.545H53.375a.632.632,0,0,0-.632.632v.182a4.478,4.478,0,0,1-2.307-.828,38.219,38.219,0,0,0-3.795-1.937l-.028-.012a5.374,5.374,0,0,0-4.124.065l-2.542.91L37.805.208a.632.632,0,0,0-.893,0L29.878,7.242a.626.626,0,0,0,0,.893L41.9,20.154a.682.682,0,0,0,.893,0l6.421-6.421c.167.014.34.022.52.022a5.051,5.051,0,0,0,3.945-2.366h5.846a.632.632,0,0,0,.632-.632V2.794A.632.632,0,0,0,59.523,2.162ZM37.358,1.548l1.44,1.44a2.754,2.754,0,0,1-2.879,0Zm-4.7,7.58-1.44-1.44,1.44-1.44a2.754,2.754,0,0,1,0,2.879Zm9.686,9.686L40.9,17.375a2.75,2.75,0,0,1,2.879,0Zm2.349-2.349a4.014,4.014,0,0,0-4.7,0l-6.427-6.427a4.014,4.014,0,0,0,0-4.7L35.009,3.9a4.014,4.014,0,0,0,4.7,0l1.366,1.366a2.5,2.5,0,0,0-1.879,1.377A3.6,3.6,0,1,0,43.334,11.1l2.133.724a4.033,4.033,0,0,0,.669,3.2Zm-3.84-6.21.017.006,1.263.429A2.337,2.337,0,1,1,38.96,8.02,2.8,2.8,0,0,0,40.853,10.255Zm6.193,3.857a2.763,2.763,0,0,1-.4-1.314,4.911,4.911,0,0,0,1.114.6Zm5.7-3.607a3.9,3.9,0,0,1-3.011,1.986,4.6,4.6,0,0,1-.659-.046h0a3.618,3.618,0,0,1-2.34-1.28c-.013-.019-.068-.091-.076-.1a.629.629,0,0,0-.348-.289l-5.022-1.7A1.417,1.417,0,0,1,40.254,7.4h0v0a1.231,1.231,0,0,1,1.511-.847L47.425,8.34a.632.632,0,0,0,.382-1.2l-4.5-1.426-.039-.039h0l-2.33-2.33,2-.717.022-.008.007,0,.025-.011a4.094,4.094,0,0,1,3.145-.054A36.588,36.588,0,0,1,49.8,4.419a5.684,5.684,0,0,0,2.938,1Zm2.393-.38h-1.13V4.6h1.13Zm3.755,0H56.4v-6.7h2.492Z" transform="translate(-29.691 -0.023)"/></g></g></svg>