<svg xmlns="http://www.w3.org/2000/svg" width="34.918" height="27.934" viewBox="0 0 34.918 27.934">
  <g id="credit-card" transform="translate(0 -54.821)">
    <g id="Grupo_17217" data-name="Grupo 17217" transform="translate(0 54.821)">
      <path id="Caminho_18058" data-name="Caminho 18058" d="M34.063,55.676a2.8,2.8,0,0,0-2.055-.855H2.91a2.8,2.8,0,0,0-2.055.855A2.8,2.8,0,0,0,0,57.731V79.845A2.8,2.8,0,0,0,.855,81.9a2.8,2.8,0,0,0,2.055.855h29.1a2.919,2.919,0,0,0,2.91-2.91V57.731A2.8,2.8,0,0,0,34.063,55.676ZM32.59,79.845a.589.589,0,0,1-.582.582H2.91a.59.59,0,0,1-.582-.582V68.788H32.59V79.845Zm0-18.041H2.328V57.73a.59.59,0,0,1,.582-.582h29.1a.589.589,0,0,1,.582.582V61.8Z" transform="translate(0 -54.821)" fill="#404e67"/>
      <rect id="Ret창ngulo_18100" data-name="Ret창ngulo 18100" width="4.656" height="2.328" transform="translate(4.656 20.95)" fill="#404e67"/>
      <rect id="Ret창ngulo_18101" data-name="Ret창ngulo 18101" width="6.983" height="2.328" transform="translate(11.639 20.95)" fill="#404e67"/>
    </g>
  </g>
</svg>
