<svg xmlns="http://www.w3.org/2000/svg" viewBox="0 0 31.996 31.997"><defs><style>.a{fill:#838296;}</style></defs><g transform="translate(-0.007)"><g transform="translate(0.007)"><path class="a" d="M25.879,9.3a.625.625,0,0,0,.625-.625v-6.8A1.877,1.877,0,0,0,24.63,0H1.882A1.877,1.877,0,0,0,.007,1.875V30.122A1.877,1.877,0,0,0,1.882,32H24.63A1.877,1.877,0,0,0,26.5,30.122v-4.6a.625.625,0,1,0-1.25,0v4.6a.626.626,0,0,1-.625.625H1.882a.626.626,0,0,1-.625-.625V1.875a.626.626,0,0,1,.625-.625H24.63a.626.626,0,0,1,.625.625v6.8A.625.625,0,0,0,25.879,9.3Z" transform="translate(-0.007)"/></g><g transform="translate(7.506 3.375)"><path class="a" d="M125.756,54a5.747,5.747,0,0,0-3.944,9.928.617.617,0,0,0,.067.062,5.739,5.739,0,0,0,7.755,0,.626.626,0,0,0,.067-.062A5.747,5.747,0,0,0,125.756,54Zm0,10.249a4.475,4.475,0,0,1-2.718-.917,3.125,3.125,0,0,1,5.436,0A4.476,4.476,0,0,1,125.756,64.249Zm-1-4.75v-.406a1,1,0,1,1,2,0V59.5a1,1,0,1,1-2,0Zm4.621,2.917a4.336,4.336,0,0,0-1.841-1.543,2.238,2.238,0,0,0,.47-1.374v-.406a2.25,2.25,0,0,0-4.5,0V59.5a2.238,2.238,0,0,0,.47,1.374,4.336,4.336,0,0,0-1.841,1.543,4.5,4.5,0,1,1,7.242,0Z" transform="translate(-120.007 -54)"/></g><g transform="translate(12.631 27.372)"><path class="a" d="M206.007,438h-3.375a.625.625,0,1,0,0,1.25h3.375a.625.625,0,1,0,0-1.25Z" transform="translate(-202.007 -438)"/></g><g transform="translate(7.131 23.873)"><path class="a" d="M123.506,382h-8.874a.625.625,0,0,0,0,1.25h8.874a.625.625,0,0,0,0-1.25Z" transform="translate(-114.007 -382)"/></g><g transform="translate(7.131 20.373)"><path class="a" d="M123.506,326h-8.874a.625.625,0,1,0,0,1.25h8.874a.625.625,0,0,0,0-1.25Z" transform="translate(-114.007 -326)"/></g><g transform="translate(4.462 16.873)"><path class="a" d="M72.354,270.183a.624.624,0,1,0,.183.442A.63.63,0,0,0,72.354,270.183Z" transform="translate(-71.287 -270)"/></g><g transform="translate(4.462 20.373)"><path class="a" d="M72.354,326.183a.624.624,0,1,0,.183.442A.631.631,0,0,0,72.354,326.183Z" transform="translate(-71.287 -326)"/></g><g transform="translate(4.462 23.873)"><path class="a" d="M72.354,382.183a.625.625,0,1,0,.183.442A.631.631,0,0,0,72.354,382.183Z" transform="translate(-71.287 -382)"/></g><g transform="translate(7.131 16.873)"><path class="a" d="M123.506,270h-8.874a.625.625,0,1,0,0,1.25h8.874a.625.625,0,1,0,0-1.25Z" transform="translate(-114.007 -270)"/></g><g transform="translate(18.604 7.791)"><path class="a" d="M309.676,125.028a2.625,2.625,0,0,0-3.585.961l-7.864,13.621a.625.625,0,0,0-.08.243l-.554,4.959a.625.625,0,0,0,.992.573l4.017-2.959a.623.623,0,0,0,.171-.191l7.864-13.621A2.628,2.628,0,0,0,309.676,125.028Zm-10.683,18.5.289-2.589,1.809,1.044ZM302,141.069l-2.381-1.375,6.311-10.931,2.381,1.375Zm7.552-13.08-.616,1.067-2.381-1.375.616-1.067a1.375,1.375,0,0,1,2.381,1.375Z" transform="translate(-297.589 -124.675)"/></g></g></svg>