<svg xmlns="http://www.w3.org/2000/svg" viewBox="0 0 31.987 31.994"><defs><style>.a{fill:#838296;}</style></defs><g transform="translate(-0.05 18)"><g transform="translate(0.05 -18)"><path class="a" d="M27.7,64.474H15.237V52.007a.9.9,0,0,0-.907-.907,14.28,14.28,0,1,0,14.28,14.28A.912.912,0,0,0,27.7,64.474ZM14.33,77.847a12.467,12.467,0,0,1-.907-24.9V65.38a.9.9,0,0,0,.907.907H26.764A12.479,12.479,0,0,1,14.33,77.847Z" transform="translate(-0.05 -47.668)"/><path class="a" d="M265.337,14.233A14.278,14.278,0,0,0,251.057,0a.9.9,0,0,0-.907.907V14.28a.9.9,0,0,0,.907.907H264.43a.9.9,0,0,0,.907-.907Zm-13.374-.853V1.854A12.475,12.475,0,0,1,263.49,13.38H251.964Z" transform="translate(-233.351)"/></g></g></svg>