<svg xmlns="http://www.w3.org/2000/svg" viewBox="0 0 16 16"><defs><style>.a{fill:#f7f7f7;}</style></defs><g transform="translate(0 0)"><path class="a" d="M14.927,3.984a7.966,7.966,0,0,0-2.911-2.911A7.825,7.825,0,0,0,8,0,7.825,7.825,0,0,0,3.985,1.073,7.964,7.964,0,0,0,1.073,3.984,7.825,7.825,0,0,0,0,8a7.827,7.827,0,0,0,1.073,4.016,7.966,7.966,0,0,0,2.911,2.911A7.826,7.826,0,0,0,8,16a7.826,7.826,0,0,0,4.016-1.073,7.964,7.964,0,0,0,2.911-2.911A7.827,7.827,0,0,0,16,8,7.827,7.827,0,0,0,14.927,3.984Zm-2.021,6.859a5.651,5.651,0,0,1-2.062,2.063A5.539,5.539,0,0,1,8,13.666a5.539,5.539,0,0,1-2.844-.76,5.651,5.651,0,0,1-2.062-2.063A5.538,5.538,0,0,1,2.333,8a5.539,5.539,0,0,1,.76-2.844A5.648,5.648,0,0,1,5.156,3.094,5.539,5.539,0,0,1,8,2.333a5.539,5.539,0,0,1,2.844.76,5.649,5.649,0,0,1,2.062,2.063A5.538,5.538,0,0,1,13.667,8,5.538,5.538,0,0,1,12.906,10.844Z" transform="translate(0 0)"/><path class="a" d="M125.559,113.628h-2v-3.667a.321.321,0,0,0-.333-.333h-2a.321.321,0,0,0-.333.333v3.667h-2a.309.309,0,0,0-.313.208.317.317,0,0,0,.073.365l3.333,3.333a.353.353,0,0,0,.479,0l3.323-3.323a.392.392,0,0,0,.1-.25.321.321,0,0,0-.333-.333Z" transform="translate(-114.225 -105.628)"/></g></svg>