<svg xmlns="http://www.w3.org/2000/svg" viewBox="0 0 31.829 32.047">
  <defs>
    <style>
      .cls-1 {
        fill: #838296;
      }
    </style>
  </defs>
  <g id="Group_11682" data-name="Group 11682" transform="translate(-3667 7137)">
    <g id="megaphone" transform="translate(3667 -7137)">
      <g id="Group_11673" data-name="Group 11673" transform="translate(0 1.19)">
        <g id="Group_11672" data-name="Group 11672" transform="translate(0)">
          <path id="Path_10565" data-name="Path 10565" class="cls-1" d="M56.786,30.492,46.211,19.918A2.8,2.8,0,0,0,41.9,23.469l-.015.074a19.565,19.565,0,0,1-5.368,10.03l-4.85,4.85a2.8,2.8,0,0,0,0,3.966l2.644,2.644a2.8,2.8,0,0,0,3.966,0l.661-.661L43.568,49a2.8,2.8,0,0,0,3.965-3.965L45.551,43.05l.661-.661a2.8,2.8,0,0,0,0-3.965l-.449-.449a19.568,19.568,0,0,1,7.4-3.16l.075-.015a2.807,2.807,0,0,0,3.551-.341h0A2.807,2.807,0,0,0,56.786,30.492ZM36.959,43.711a.934.934,0,0,1-1.322,0l-2.644-2.644a.934.934,0,0,1,0-1.322l4.626-4.626,3.966,3.966Zm9.253,2.644a.935.935,0,0,1-1.322,1.322L40.263,43.05l1.322-1.322Zm-3.3-5.948c.281-.281.7-.711,1.365-1.278l.617.617a.934.934,0,0,1,0,1.322l-.661.661Zm.04-2.6L38.9,33.757a21.4,21.4,0,0,0,4.551-8.668l8.162,8.162A21.4,21.4,0,0,0,42.947,37.8Zm12.518-4.666a.934.934,0,0,1-1.322,0L43.568,22.561a.935.935,0,0,1,1.322-1.322L55.464,31.814A.936.936,0,0,1,55.464,33.136Z" transform="translate(-30.849 -19.098)"/>
        </g>
      </g>
      <g id="Group_11675" data-name="Group 11675" transform="translate(4.514 20.242)">
        <g id="Group_11674" data-name="Group 11674" transform="translate(0)">
          <path id="Path_10566" data-name="Path 10566" class="cls-1" d="M106.183,325.036a.935.935,0,0,0-1.322,0l-1.322,1.322a.935.935,0,0,0,1.322,1.322l1.322-1.322A.935.935,0,0,0,106.183,325.036Z" transform="translate(-103.266 -324.762)"/>
        </g>
      </g>
      <g id="Group_11677" data-name="Group 11677" transform="translate(18.72)">
        <g id="Group_11676" data-name="Group 11676">
          <path id="Path_10567" data-name="Path 10567" class="cls-1" d="M332.129,0a.935.935,0,0,0-.935.935V2.8a.935.935,0,0,0,1.869,0V.935A.935.935,0,0,0,332.129,0Z" transform="translate(-331.194)"/>
        </g>
      </g>
      <g id="Group_11679" data-name="Group 11679" transform="translate(24.328 7.477)">
        <g id="Group_11678" data-name="Group 11678">
          <path id="Path_10568" data-name="Path 10568" class="cls-1" d="M423.973,119.966H422.1a.935.935,0,0,0,0,1.869h1.869a.935.935,0,0,0,0-1.869Z" transform="translate(-421.169 -119.966)"/>
        </g>
      </g>
      <g id="Group_11681" data-name="Group 11681" transform="translate(22.459 1.869)">
        <g id="Group_11680" data-name="Group 11680">
          <path id="Path_10569" data-name="Path 10569" class="cls-1" d="M394.643,30.265a.935.935,0,0,0-1.322,0l-1.869,1.869a.935.935,0,0,0,1.322,1.322l1.869-1.869A.935.935,0,0,0,394.643,30.265Z" transform="translate(-391.178 -29.991)"/>
        </g>
      </g>
    </g>
    <g id="icon" transform="translate(3685.816 -7118.406)">
      <path id="Path_10570" data-name="Path 10570" class="cls-1" d="M11.7,19.1v3.073H2.3V19.1H.489v3.976a.9.9,0,0,0,.9.9H12.6a.9.9,0,0,0,.9-.9V19.1Z" transform="translate(-0.489 -10.531)"/>
      <path id="Path_10571" data-name="Path 10571" class="cls-1" d="M11.239,8.269,8.653,5.143s-.394-.372.033-.372h1.458V.222S10.086,0,10.419,0h2.052c.241,0,.235.187.235.187V4.678h1.345c.518,0,.128.389.128.389s-2.2,2.921-2.508,3.228A.287.287,0,0,1,11.239,8.269Z" transform="translate(-4.898 0)"/>
    </g>
  </g>
</svg>
