<svg xmlns="http://www.w3.org/2000/svg" viewBox="0 0 64.104 64.837"><defs><style>.a{fill:#838296;}</style></defs><g transform="translate(-2.713 0)"><g transform="translate(14.947 35.66)"><path class="a" d="M98.688,264a5.4,5.4,0,1,0,5.4,5.4A5.4,5.4,0,0,0,98.688,264Zm0,8.645a3.242,3.242,0,1,1,3.242-3.242A3.242,3.242,0,0,1,98.688,272.645Z" transform="translate(-93.285 -264)"/></g><g transform="translate(2.713 39.643)"><g transform="translate(0)"><path class="a" d="M37.352,302.336l-5.285-7.552a3.051,3.051,0,0,0-5.038,3.441l2.109,3.165H11.563l2.109-3.165a3.051,3.051,0,0,0-5.038-3.441l-5.285,7.552a3.52,3.52,0,0,0,2.883,5.537h7.635V317.6a1.081,1.081,0,0,0,1.081,1.081H25.753a1.081,1.081,0,0,0,1.081-1.081v-9.726h7.635a3.52,3.52,0,0,0,2.883-5.537Zm-2.1,3.13a1.359,1.359,0,0,1-.785.246H25.753a1.081,1.081,0,0,0-1.081,1.081v9.726H16.028v-9.726a1.081,1.081,0,0,0-1.081-1.081H6.232a1.358,1.358,0,0,1-1.113-2.137l5.29-7.552a.889.889,0,1,1,1.469,1L8.645,301.87a1.081,1.081,0,0,0,.9,1.68H31.156a1.081,1.081,0,0,0,.9-1.68l-3.229-4.844a.889.889,0,1,1,1.469-1l5.292,7.552A1.358,1.358,0,0,1,35.253,305.466Z" transform="translate(-2.713 -293.485)"/></g></g><g transform="translate(16.028 16.209)"><path class="a" d="M107.769,120h-3.242a3.242,3.242,0,0,0-3.242,3.242h2.161a1.081,1.081,0,0,1,1.081-1.081h3.242a1.081,1.081,0,1,1,0,2.161,3.242,3.242,0,0,0-3.242,3.242h2.161a1.081,1.081,0,0,1,1.081-1.081,3.242,3.242,0,1,0,0-6.484Z" transform="translate(-101.285 -120)"/></g><g transform="translate(19.27 24.854)"><rect class="a" width="2.161" height="2.161"/></g><g transform="translate(8.463 11.887)"><path class="a" d="M57.172,88c-6.554,0-11.887,4.362-11.887,9.726,0,4.37,3.528,8.165,8.631,9.346l2.391,3.189a1.081,1.081,0,0,0,1.729,0l2.391-3.189c5.1-1.181,8.631-4.976,8.631-9.346C69.059,92.362,63.726,88,57.172,88Zm2.419,17.042a1.081,1.081,0,0,0-.648.411l-1.771,2.358L55.4,105.453a1.08,1.08,0,0,0-.648-.411c-4.3-.863-7.308-3.872-7.308-7.317,0-4.17,4.362-7.564,9.726-7.564S66.9,93.555,66.9,97.726C66.9,101.171,63.893,104.179,59.591,105.042Z" transform="translate(-45.285 -88)"/></g><g transform="translate(46.285 21.612)"><path class="a" d="M330.688,160a5.4,5.4,0,1,0,5.4,5.4A5.41,5.41,0,0,0,330.688,160Zm0,8.645a3.242,3.242,0,1,1,3.242-3.242A3.242,3.242,0,0,1,330.688,168.645Z" transform="translate(-325.285 -160)"/></g><g transform="translate(39.801)"><path class="a" d="M295.655,0H282.688a5.41,5.41,0,0,0-5.4,5.4v6.484a5.41,5.41,0,0,0,5.4,5.4h2.794l2.925,2.925a1.081,1.081,0,0,0,1.528,0l2.925-2.925h2.794a5.41,5.41,0,0,0,5.4-5.4V5.4A5.41,5.41,0,0,0,295.655,0ZM298.9,11.887a3.242,3.242,0,0,1-3.242,3.242h-3.242a1.08,1.08,0,0,0-.764.317l-2.478,2.478-2.478-2.478a1.08,1.08,0,0,0-.764-.317h-3.242a3.242,3.242,0,0,1-3.242-3.242V5.4a3.242,3.242,0,0,1,3.242-3.242h12.967A3.242,3.242,0,0,1,298.9,5.4Z" transform="translate(-277.285)"/></g><g transform="translate(36.559 24.852)"><path class="a" d="M280.841,188.349a3.242,3.242,0,0,0-3.782,3.2v1.081h-17.29v-5.287a3.333,3.333,0,0,0-2.7-3.314,3.242,3.242,0,0,0-3.782,3.2v5.4a6.49,6.49,0,0,0,6.484,6.484h2.161v5.308l-2.566,14.545a4.262,4.262,0,1,0,8.4,1.44l.648-3.913.648,3.914a4.26,4.26,0,1,0,8.4-1.442L274.9,204.42v-5.308h2.161a6.49,6.49,0,0,0,6.484-6.484v-.965A3.333,3.333,0,0,0,280.841,188.349Zm.54,4.279a4.322,4.322,0,0,1-4.322,4.322h-3.242a1.081,1.081,0,0,0-1.081,1.081v6.484a.994.994,0,0,0,.017.188l2.583,14.638a2.1,2.1,0,0,1-4.135.732l0-.022-1.718-10.31a1.081,1.081,0,0,0-2.131,0L265.63,220.05a2.1,2.1,0,1,1-4.146-.664c0-.015,0-.03.008-.045l2.583-14.638a.984.984,0,0,0,.017-.188v-6.484a1.081,1.081,0,0,0-1.081-1.081h-3.242a4.322,4.322,0,0,1-4.322-4.322v-5.4a1.081,1.081,0,0,1,1.27-1.064,1.17,1.17,0,0,1,.892,1.18v5.287a2.161,2.161,0,0,0,2.161,2.161h17.29a2.161,2.161,0,0,0,2.161-2.161v-1.081a1.08,1.08,0,0,1,1.27-1.064,1.17,1.17,0,0,1,.891,1.18Z" transform="translate(-253.285 -183.981)"/></g><g transform="translate(46.298 4.309)"><path class="a" d="M335.886,32.232a1.081,1.081,0,0,0-1.528-.026l-.026.026-5.72,5.72-1.4-1.4a1.081,1.081,0,0,0-1.528,1.528l2.161,2.161a1.081,1.081,0,0,0,1.528,0l6.484-6.484A1.081,1.081,0,0,0,335.886,32.232Z" transform="translate(-325.383 -31.902)"/></g></g></svg>