<svg xmlns="http://www.w3.org/2000/svg" width="16.666" height="15.971" viewBox="0 0 16.666 15.971"><defs><style>.a{fill:#838296;}</style></defs><g transform="translate(-29.575 -3.81)"><g transform="translate(29.574 3.81)"><g transform="translate(0 0)"><path class="a" d="M45.864,11.093a1.243,1.243,0,0,0-.689-2.119l-4.123-.6a.248.248,0,0,1-.187-.136L39.022,4.5a1.243,1.243,0,0,0-2.229,0L34.949,8.239a.249.249,0,0,1-.187.136l-4.123.6a1.243,1.243,0,0,0-.689,2.119L32.934,14a.249.249,0,0,1,.071.22l-.7,4.106a1.243,1.243,0,0,0,1.8,1.31L37.792,17.7a.248.248,0,0,1,.231,0l3.688,1.939a1.243,1.243,0,0,0,1.8-1.31l-.7-4.106a.249.249,0,0,1,.071-.22Zm-4.035,3.3.7,4.106a.248.248,0,0,1-.361.262l-3.688-1.939a1.243,1.243,0,0,0-1.156,0l-3.688,1.939a.248.248,0,0,1-.361-.262l.7-4.106a1.242,1.242,0,0,0-.357-1.1l-2.983-2.908a.249.249,0,0,1,.138-.424l4.123-.6a1.242,1.242,0,0,0,.936-.68l1.844-3.736a.249.249,0,0,1,.446,0h0l1.844,3.736a1.242,1.242,0,0,0,.936.68l4.123.6a.249.249,0,0,1,.138.424l-2.983,2.908A1.242,1.242,0,0,0,41.83,14.389Z" transform="translate(-29.574 -3.81)"/></g></g></g></svg>