<svg xmlns="http://www.w3.org/2000/svg" viewBox="0 0 16.352 14.92"><defs><style>.a{fill:#f7f7f7;}</style></defs><g transform="translate(0 -18.432)"><g transform="translate(0 23.206)"><path class="a" d="M14.163,141.312H2.188A2.182,2.182,0,0,0,0,143.5v5.769a2.182,2.182,0,0,0,2.188,2.188H14.163a2.182,2.182,0,0,0,2.188-2.188V143.5A2.182,2.182,0,0,0,14.163,141.312Zm-5.988,7.937a2.865,2.865,0,1,1,2.865-2.865A2.865,2.865,0,0,1,8.176,149.249Z" transform="translate(0 -141.312)"/></g><g transform="translate(1.591 20.819)"><path class="a" d="M53.532,79.872H41.557a.6.6,0,0,0-.6.6.586.586,0,0,0,.6.6H53.532a.6.6,0,1,0,0-1.194Z" transform="translate(-40.96 -79.872)"/></g><g transform="translate(3.183 18.432)"><path class="a" d="M91.309,18.432H82.517a.6.6,0,1,0,0,1.194h8.792a.6.6,0,0,0,0-1.194Z" transform="translate(-81.92 -18.432)"/></g></g></svg>