<svg xmlns="http://www.w3.org/2000/svg" viewBox="0 0 32 32">
  <defs>
    <style>
      .cls-1 {
        fill: #ffff;
      }
    </style>
  </defs>
  <g id="icon" transform="translate(0 -2.356)">
    <g id="Group_10992" data-name="Group 10992" transform="translate(0 2.356)">
      <path id="Path_10279" data-name="Path 10279" class="cls-1" d="M31.829,7.376a1.237,1.237,0,0,0-.817-.585L12.885,2.379a1.226,1.226,0,0,0-1.393.793L4.583,20.893l2.307.849,6.548-16.85L29.186,8.949c-.984,3.079-3.324,9.5-5.568,15.487-1.956,5.22-3.082,7.008-5.221,7.373a.013.013,0,0,1,0-.009c-4.372.619-4.294-5.009-4.294-5.009L.135,21.1c-.992,6.35,3.841,7.878,3.841,7.878L14.2,33.66a7.862,7.862,0,0,0,3.333.69c4.679-.111,6.323-3.541,8.383-9.037,2.976-7.942,6-16.841,6.027-16.935A1.236,1.236,0,0,0,31.829,7.376Z" transform="translate(0 -2.356)"/>
      <path id="Path_10280" data-name="Path 10280" class="cls-1" d="M274.25,130.011a1.224,1.224,0,1,0,.644-2.361l-5.3-1.637a1.224,1.224,0,1,0-.645,2.362Z" transform="translate(-250.686 -117.88)"/>
      <path id="Path_10281" data-name="Path 10281" class="cls-1" d="M234.874,203.836a1.226,1.226,0,0,0,.773,1.549l5.276,1.885a1.213,1.213,0,0,0,.381.063,1.223,1.223,0,0,0,.394-2.384l-5.274-1.884A1.226,1.226,0,0,0,234.874,203.836Z" transform="translate(-219.606 -189.871)"/>
      <path id="Path_10282" data-name="Path 10282" class="cls-1" d="M205.291,282.268a1.223,1.223,0,1,0-.762,2.323l5.287,1.878a1.179,1.179,0,0,0,.383.062,1.223,1.223,0,0,0,.38-2.386Z" transform="translate(-190.495 -263.89)"/>
      <path id="Path_10283" data-name="Path 10283" class="cls-1" d="M205.858,104.517a1.32,1.32,0,1,1-1.358,1.32A1.339,1.339,0,0,1,205.858,104.517Z" transform="translate(-191.267 -97.837)"/>
      <path id="Path_10284" data-name="Path 10284" class="cls-1" d="M176.089,180.572a1.319,1.319,0,1,1-1.358,1.319A1.338,1.338,0,0,1,176.089,180.572Z" transform="translate(-163.424 -168.918)"/>
      <path id="Path_10285" data-name="Path 10285" class="cls-1" d="M144.339,259.039a1.32,1.32,0,1,1-1.358,1.321A1.34,1.34,0,0,1,144.339,259.039Z" transform="translate(-133.729 -242.255)"/>
    </g>
  </g>
</svg>
