<svg xmlns="http://www.w3.org/2000/svg" viewBox="0 0 19.365 19.365"><defs><style>.a{fill:#838296;opacity:0.504;}</style></defs><path class="a" d="M477.9,129.454a1.068,1.068,0,0,0-1.068,1.068v17.228a1.068,1.068,0,0,0,1.068,1.068h9.275v-7.5h-2.524V138.4h2.524v-2.156a3.521,3.521,0,0,1,3.759-3.863,20.683,20.683,0,0,1,2.254.115v2.614h-1.547c-1.213,0-1.449.577-1.449,1.423V138.4h2.9l-.378,2.923h-2.517v7.5h4.936a1.068,1.068,0,0,0,1.068-1.068V130.522a1.068,1.068,0,0,0-1.068-1.068H477.9Z" transform="translate(-476.828 -129.454)"/></svg>