<svg xmlns="http://www.w3.org/2000/svg" width="15.578" height="15.315" viewBox="0 0 15.578 15.315">
  <g id="group" transform="translate(-0.002)">
    <g id="Group_17029" data-name="Group 17029" transform="translate(0.001)">
      <path id="Path_18000" data-name="Path 18000" d="M7.79,0A7.724,7.724,0,0,0,0,7.657,7.725,7.725,0,0,0,7.79,15.315a7.725,7.725,0,0,0,7.79-7.658A7.724,7.724,0,0,0,7.79,0ZM2.116,10.542c0-2.392,2.137-2.392,2.611-3.017l.054-.285A2.278,2.278,0,0,1,3.645,5.171,2.059,2.059,0,0,1,5.467,2.938,1.888,1.888,0,0,1,7.183,4.425,2.727,2.727,0,0,0,5.429,7.091a2.942,2.942,0,0,0,.931,2.2c-.093.047-.2.095-.285.136a4,4,0,0,0-1.581,1.114Zm5.7,1.92H4.439c0-2.392,2.137-2.391,2.611-3.017L7.1,9.159A2.278,2.278,0,0,1,5.968,7.091,2.059,2.059,0,0,1,7.79,4.858,2.059,2.059,0,0,1,9.613,7.091a2.285,2.285,0,0,1-1.119,2.06l.062.324c.52.6,2.586.634,2.586,2.986Zm3.272-1.92h0A4.005,4.005,0,0,0,9.5,9.428c-.092-.042-.194-.089-.285-.135a2.949,2.949,0,0,0,.931-2.2A2.726,2.726,0,0,0,8.4,4.425a1.888,1.888,0,0,1,1.716-1.487,2.059,2.059,0,0,1,1.822,2.233,2.285,2.285,0,0,1-1.119,2.06l.062.324c.52.6,2.586.634,2.586,2.986H11.086Z" transform="translate(-0.001)" fill="#f7f7f7"/>
    </g>
  </g>
</svg>
