<svg xmlns="http://www.w3.org/2000/svg" viewBox="0 0 24 24"><defs><style>.a{fill:#e4e7e7;}.b{fill:#e2574c;}.c{fill:#d95449;}.d{fill:#e5685e;}.e{fill:#efefef;}.f{fill:#e6e6e6;}.g{fill:#f1f1f1;}</style></defs><g transform="translate(0 0)"><path class="a" d="M27.991,18.861l-.056-.765.485-.485a5.5,5.5,0,0,0-7.785-7.785l-.485.485a5.091,5.091,0,0,0-.765-.056l.84-.84a6.086,6.086,0,0,1,8.606,8.606ZM17.929,10.33l-.485-.485a5.5,5.5,0,1,0-7.785,7.785l.485.485a5.091,5.091,0,0,0-.056.765l-.84-.84a6.086,6.086,0,0,1,8.606-8.606l.84.84A5.084,5.084,0,0,0,17.929,10.33Zm-7.86,9.241.056.765-.485.485a5.5,5.5,0,1,0,7.766,7.785l.485-.485a5.091,5.091,0,0,0,.765.056l-.84.84A6.073,6.073,0,1,1,9.229,20.43ZM20.131,28.1l.485.485A5.5,5.5,0,1,0,28.383,20.8l-.485-.485a5.09,5.09,0,0,0,.056-.765l.84.84a6.073,6.073,0,1,1-8.588,8.588l-.84-.84A3.449,3.449,0,0,0,20.131,28.1Z" transform="translate(-7.031 -7.216)"/><path class="b" d="M12,0A12,12,0,1,0,24,12,12.011,12.011,0,0,0,12,0Zm0,18a6,6,0,1,1,6-6A5.994,5.994,0,0,1,12,18Z"/><path class="c" d="M102.518,95.705a6.813,6.813,0,1,0,6.813,6.813A6.818,6.818,0,0,0,102.518,95.705Zm0,12.3a5.491,5.491,0,1,1,5.491-5.491A5.485,5.485,0,0,1,102.518,108.009Z" transform="translate(-90.518 -90.518)"/><path class="d" d="M45.526,35.446A10.079,10.079,0,1,0,55.6,45.525,10.073,10.073,0,0,0,45.526,35.446Zm0,19.424a9.346,9.346,0,1,1,9.346-9.346A9.338,9.338,0,0,1,45.526,54.87Z" transform="translate(-33.526 -33.525)"/><path class="e" d="M55.863,63.69a5.793,5.793,0,0,1-2.446-2.446l-4.186,4.2a11.6,11.6,0,0,0,2.446,2.446Zm5.382-10.274a5.694,5.694,0,0,1,2.446,2.446l4.2-4.186a12.037,12.037,0,0,0-2.446-2.446ZM49.231,51.677l4.186,4.186a5.694,5.694,0,0,1,2.446-2.446l-4.186-4.186A12.037,12.037,0,0,0,49.231,51.677ZM67.894,65.448l-4.186-4.186a5.694,5.694,0,0,1-2.446,2.446l4.186,4.186A12.037,12.037,0,0,0,67.894,65.448Z" transform="translate(-46.563 -46.563)"/><path class="f" d="M127.567,118.154l-.967.937a5.346,5.346,0,0,1,2.332,2.259l.967-.937A6.9,6.9,0,0,0,127.567,118.154Zm-8.446,8.167-.967.954a6.9,6.9,0,0,0,2.332,2.259l.967-.937A5.675,5.675,0,0,1,119.121,126.321ZM126.6,128.6l.967.937a6.9,6.9,0,0,0,2.332-2.259l-.967-.937A5.739,5.739,0,0,1,126.6,128.6Zm-5.13-9.489-.984-.954a7.055,7.055,0,0,0-2.332,2.259l.967.937A5.539,5.539,0,0,1,121.47,119.108Z" transform="translate(-112.026 -111.844)"/><path class="g" d="M74.948,87.471l-.512.512a9.861,9.861,0,0,0,2.384,2.384l.512-.512A9.274,9.274,0,0,1,74.948,87.471Zm14.906,0a9,9,0,0,1-2.384,2.384l.512.512a10.186,10.186,0,0,0,2.384-2.384ZM74.948,77.334a9,9,0,0,1,2.384-2.384l-.494-.495a10.186,10.186,0,0,0-2.384,2.384Zm14.906,0,.512-.512a10.186,10.186,0,0,0-2.384-2.384l-.512.512A9.274,9.274,0,0,1,89.855,77.334Z" transform="translate(-70.401 -70.402)"/></g></svg>