<svg xmlns="http://www.w3.org/2000/svg" viewBox="0 0 32.515 32.506"><defs><style>.a{fill:#838296;}</style></defs><g transform="translate(0 -0.068)"><g transform="translate(0.001 0.068)"><g transform="translate(0 0)"><path class="a" d="M32.506,14.129a2.838,2.838,0,0,0-.989-1.951L28.7,9.768V2.918a.953.953,0,0,0-.953-.953h-3.81a.942.942,0,0,0-.94.953V4.869L18.181.761a2.843,2.843,0,0,0-3.716,0L1,12.179A2.856,2.856,0,0,0,.69,16.209a2.887,2.887,0,0,0,3.134.832v14.58a.942.942,0,0,0,.94.953H27.752a.953.953,0,0,0,.953-.953V17.042a2.857,2.857,0,0,0,3.8-2.913ZM24.894,3.87h1.918V8.135L24.894,6.5Zm-4.75,26.8h-7.76V23.036h7.76Zm6.668,0H22.037V22.1a.953.953,0,0,0-.953-.953H11.432a.942.942,0,0,0-.94.953v8.573H5.717v-15l10.6-8.993,10.494,8.984V30.669Zm3.568-15.7a.953.953,0,0,1-1.344.1L16.941,4.7a.952.952,0,0,0-1.236,0L3.48,15.071a.953.953,0,0,1-1.244-1.443L15.7,2.207a.948.948,0,0,1,1.24,0L30.277,13.625A.954.954,0,0,1,30.381,14.968Z" transform="translate(-0.001 -0.068)"/></g></g><g transform="translate(12.397 11.491)"><path class="a" d="M201.989,179.938h-5.842a.942.942,0,0,0-.94.952v5.715a.942.942,0,0,0,.94.952h5.842a.953.953,0,0,0,.952-.952v-5.715A.952.952,0,0,0,201.989,179.938Zm-.94,5.715H197.1v-3.81h3.95Z" transform="translate(-195.207 -179.938)"/></g><g transform="translate(16.321 24.954)"><circle class="a" cx="0.953" cy="0.953" r="0.953"/></g></g></svg>