<?xml version="1.0" encoding="UTF-8"?>
<svg width="120px" height="73px" viewBox="0 0 120 73" version="1.1" xmlns="http://www.w3.org/2000/svg" xmlns:xlink="http://www.w3.org/1999/xlink">
    <!-- Generator: Sketch 50.2 (55047) - http://www.bohemiancoding.com/sketch -->
    <title>empty-box</title>
    <desc>Created with Sketch.</desc>
    <defs></defs>
    <g id="assets" stroke="none" stroke-width="1" fill="none" fill-rule="evenodd">
        <g id="Artboard-Copy" transform="translate(-186.000000, -156.000000)" fill="#889AAC" fill-rule="nonzero">
            <g id="empty-box" transform="translate(186.000000, 156.000000)">
                <path d="M118.660408,17.7343028 C118.654966,17.7270682 118.651855,17.7193169 118.645635,17.7118239 L105.638943,1.56835553 C105.492765,1.38723242 105.327667,1.23117201 105.151943,1.09164779 C104.592114,0.429682906 103.764034,0 102.827876,0 L16.9223847,0 C15.9854488,0 15.1589235,0.42916615 14.5988354,1.09164779 C14.4231113,1.23117201 14.2577545,1.38568216 14.110281,1.56835553 L1.10514379,17.7118239 C1.09918265,17.7193169 1.09633167,17.7270682 1.09037053,17.7343028 C0.428943004,18.2926581 0,19.1155926 0,20.0465291 L0,69.9316035 C0,71.6110616 1.36587893,72.972973 3.05054934,72.972973 L116.69997,72.972973 C118.384641,72.972973 119.75052,71.6110616 119.75052,69.9316035 L119.75052,20.0465291 C119.750779,19.1155926 119.321577,18.2926581 118.660408,17.7343028 Z M105.879203,11.5781844 L110.252348,17.005418 L105.879203,17.005418 L105.879203,11.5781844 Z M99.7778448,6.08248063 L99.7778448,17.0051596 L76.9350099,17.0051596 C76.2834313,17.0051596 75.6507727,17.2131541 75.1261923,17.5976208 L59.8768149,28.7851374 L44.6243274,17.5960705 C44.1000061,17.2131541 43.4668292,17.0051596 42.8157689,17.0051596 L19.9726748,17.0051596 L19.9726748,6.08248063 L99.7778448,6.08248063 Z M13.8720945,17.005418 L9.49894931,17.005418 L13.8720945,11.5781844 L13.8720945,17.005418 Z M113.649939,66.8904923 L6.10109869,66.8904923 L6.10109869,23.0873819 L41.8150747,23.0876403 L58.0685156,35.0112763 C59.1441129,35.7982962 60.6097761,35.7998465 61.6851142,35.0099844 L77.9351858,23.0873819 L113.649939,23.0873819 L113.649939,66.8904923 Z" id="Shape"></path>
            </g>
        </g>
    </g>
</svg>