<?xml version="1.0" encoding="UTF-8"?>
<svg width="18px" height="18px" viewBox="0 0 18 18" version="1.1" xmlns="http://www.w3.org/2000/svg" xmlns:xlink="http://www.w3.org/1999/xlink">
    <!-- Generator: Sketch 50.2 (55047) - http://www.bohemiancoding.com/sketch -->
    <title>logout</title>
    <desc>Created with Sketch.</desc>
    <defs></defs>
    <g id="assets" stroke="none" stroke-width="1" fill="none" fill-rule="evenodd">
        <g id="Artboard-2" transform="translate(-446.000000, -79.000000)" fill="#5A6E82" fill-rule="nonzero">
            <g id="logout" transform="translate(446.000000, 79.000000)">
                <path d="M12.5853659,3.96204878 L12.5853659,0.932780488 C12.5853659,0.449853659 12.1903902,0.0547317073 11.7073171,0.0547317073 L0.87804878,0.0547317073 C0.395121951,0.0547317073 0,0.449853659 0,0.932780488 L0,1.5035122 L0,12.9474146 L0,13.3426829 C0,13.6644878 0.190243902,13.9718049 0.468292683,14.1181463 L7.14146341,17.5719512 C7.43414634,17.7182927 7.78536585,17.513561 7.78536585,17.1768293 L7.78536585,13.8109756 L11.7073171,13.8109756 C12.1903902,13.8109756 12.5853659,13.416 12.5853659,12.9329268 L12.5853659,8.13292683 L10.8292683,8.13292683 L10.8292683,11.6158537 C10.8292683,11.8646341 10.6390244,12.054878 10.3902439,12.054878 L7.8,12.054878 L7.8,7.54756098 L7.8,4.69390244 L7.8,4.60609756 C7.8,4.28414634 7.6097561,3.97682927 7.33170732,3.8304878 L3.39512195,1.81097561 L10.3902439,1.81097561 C10.6390244,1.81097561 10.8292683,2.00121951 10.8292683,2.25 L10.8292683,3.97682927 L12.5853659,3.97682927 L12.5853659,3.96204878 Z" id="Shape"></path>
                <path d="M14.8390244,2.5277561 L17.6926829,5.38141463 C18.0585366,5.74726829 18.0585366,6.28873171 17.6926829,6.65458537 L14.8390244,9.5082439 C14.4731707,9.87409756 13.9169268,9.88887805 13.5510732,9.52302439 C13.2,9.17195122 13.2437561,8.58643902 13.5804878,8.23521951 L14.8681463,6.96204878 L9.87804878,6.96204878 C9.62941463,6.96204878 9.3804878,6.85960976 9.2195122,6.66936585 C8.8097561,6.23034146 8.91219512,5.45473171 9.43902439,5.16204878 C9.57073171,5.08887805 9.73170732,5.04497561 9.87804878,5.04497561 L14.8682927,5.04497561 C14.8682927,5.04497561 13.5952683,3.77180488 13.5806341,3.77180488 C13.2439024,3.43521951 13.2,2.83521951 13.5512195,2.49863415 C13.902439,2.14741463 14.4731707,2.16190244 14.8390244,2.5277561 Z" id="Shape"></path>
            </g>
        </g>
    </g>
</svg>