<?xml version="1.0" encoding="UTF-8"?>
<svg width="43px" height="44px" viewBox="0 0 43 44" version="1.1" xmlns="http://www.w3.org/2000/svg" xmlns:xlink="http://www.w3.org/1999/xlink">
    <!-- Generator: Sketch 50.2 (55047) - http://www.bohemiancoding.com/sketch -->
    <title>Group</title>
    <desc>Created with Sketch.</desc>
    <defs></defs>
    <g id="assets" stroke="none" stroke-width="1" fill="none" fill-rule="evenodd">
        <g id="buttons" transform="translate(-82.000000, -295.000000)" fill="#5A6E82" fill-rule="nonzero">
            <g id="btn-icon" transform="translate(61.000000, 270.000000)">
                <g id="Group" transform="translate(21.000000, 25.000000)">
                    <g id="store" transform="translate(0.000000, 0.555556)">
                        <path d="M0,17.3333333 C0,19.8150833 1.70316667,21.8828333 4,22.4791667 L4,40 L1.33333333,40 C0.598916667,40 0,40.5963333 0,41.3333333 C0,42.0703333 0.599,42.6666667 1.33333333,42.6666667 L41.3333333,42.6666667 C42.0729167,42.6666667 42.6666667,42.0703333 42.6666667,41.3333333 C42.6666667,40.5963333 42.0729167,40 41.3333333,40 L38.6666667,40 L38.6666667,22.4791667 C40.9635,21.8828333 42.6666667,19.8150833 42.6666667,17.3333333 L42.6666667,16 L0,16 L0,17.3333333 Z M26.6666667,22.6666667 C29.6145833,22.6666667 32,20.2786667 32,17.3333333 C32,19.8150833 33.7031667,21.8828333 36,22.4791667 L36,40 L16,40 L16,22.6666667 C18.9479167,22.6666667 21.3333333,20.2786667 21.3333333,17.3333333 C21.3333333,20.2786667 23.724,22.6666667 26.6666667,22.6666667 Z M14.6666667,22.4791667 L14.6666667,40 L6.66666667,40 L6.66666667,22.4791667 C8.96358333,21.8828333 10.6666667,19.8150833 10.6666667,17.3333333 C10.6666667,19.8150833 12.3698333,21.8828333 14.6666667,22.4791667 Z M37.3333333,4 L5.33333333,4 L0,14.6666667 L42.6666667,14.6666667 L37.3333333,4 Z M11.2656667,6.96358333 L8.599,12.2969167 C8.47916667,12.5313333 8.24483333,12.66675 8,12.66675 C7.901,12.66675 7.7995,12.6459167 7.70308333,12.5964167 C7.37491667,12.4323333 7.2395,12.0313333 7.40616667,11.7031667 L10.0728333,6.36983333 C10.2395,6.04166667 10.6379167,5.90891667 10.9660833,6.07033333 C11.2969167,6.23441667 11.4270833,6.63541667 11.2656667,6.96358333 Z M16.599,6.96358333 L13.9323333,12.2969167 C13.8125,12.5313333 13.5781667,12.66675 13.3333333,12.66675 C13.2343333,12.66675 13.1328333,12.6459167 13.0364167,12.5964167 C12.70825,12.4323333 12.5728333,12.0313333 12.7395,11.7031667 L15.4061667,6.36983333 C15.5728333,6.04166667 15.9739167,5.90891667 16.2994167,6.07033333 C16.63025,6.23441667 16.7604167,6.63541667 16.599,6.96358333 Z M22,12 C22,12.3698333 21.7031667,12.6666667 21.3333333,12.6666667 C20.9661667,12.6666667 20.6666667,12.36975 20.6666667,12 L20.6666667,6.66666667 C20.6666667,6.29683333 20.9661667,6 21.3333333,6 C21.7031667,6 22,6.29691667 22,6.66666667 L22,12 Z M29.65625,12.5833333 C29.5520833,12.6406667 29.44275,12.6666667 29.3333333,12.6666667 C29.099,12.6666667 28.8698333,12.5416667 28.75,12.3203333 L25.8333333,6.987 C25.65625,6.66408333 25.776,6.25783333 26.099,6.08333333 C26.41675,5.90625 26.8281667,6.02083333 27.00525,6.34633333 L29.9219167,11.6796667 C30.09375,12.0025833 29.9791667,12.4088333 29.65625,12.5833333 Z M34.9635,12.5963333 C34.8698333,12.6458333 34.7708333,12.6666667 34.6666667,12.6666667 C34.4218333,12.6666667 34.1875,12.53125 34.0729167,12.2968333 L31.40625,6.9635 C31.2395833,6.63533333 31.375,6.23433333 31.7030833,6.07025 C32.026,5.90616667 32.43225,6.039 32.5989167,6.36975 L35.2655833,11.7030833 C35.4270833,12.03125 35.2968333,12.4323333 34.9635,12.5963333 Z M11.3333333,32.2031667 L11.3333333,29.13025 C10.9426667,28.8959167 10.6666667,28.4895833 10.6666667,28.0000833 C10.6666667,27.2630833 11.2656667,26.66675 12,26.66675 C12.7395833,26.66675 13.3333333,27.2630833 13.3333333,28.0000833 C13.3333333,28.4896667 13.0599167,28.8959167 12.6666667,29.13025 L12.6666667,32.2031667 C13.0599167,32.4375833 13.3333333,32.8438333 13.3333333,33.3334167 C13.3333333,34.0704167 12.7395833,34.66675 12,34.66675 C11.2655833,34.66675 10.6666667,34.0704167 10.6666667,33.3334167 C10.6666667,32.84375 10.94275,32.4375 11.3333333,32.2031667 Z M5.33333333,1.33333333 C5.33333333,0.596333333 5.93233333,0 6.66666667,0 L36,0 C36.7395833,0 37.3333333,0.596333333 37.3333333,1.33333333 C37.3333333,2.07033333 36.7395833,2.66666667 36,2.66666667 L6.66666667,2.66666667 C5.93233333,2.66666667 5.33333333,2.07033333 5.33333333,1.33333333 Z M23.3698333,29.8046667 L22.4271667,28.8619167 L26.198,25.0910833 L27.1406667,26.0338333 L23.3698333,29.8046667 Z M23.3698333,33.5755 L22.4271667,32.63275 L29.9688333,25.0910833 L30.9115,26.0338333 L23.3698333,33.5755 Z M29.96875,28.862 L30.9114167,29.80475 L27.1405833,33.5755833 L26.1979167,32.6328333 L29.96875,28.862 Z" id="Shape"></path>
                    </g>
                </g>
            </g>
        </g>
    </g>
</svg>