<?xml version="1.0" encoding="UTF-8"?>
<svg width="49px" height="45px" viewBox="0 0 49 45" version="1.1" xmlns="http://www.w3.org/2000/svg" xmlns:xlink="http://www.w3.org/1999/xlink">
    <!-- Generator: Sketch 50.2 (55047) - http://www.bohemiancoding.com/sketch -->
    <title>interface</title>
    <desc>Created with Sketch.</desc>
    <defs></defs>
    <g id="assets" stroke="none" stroke-width="1" fill="none" fill-rule="evenodd">
        <g id="buttons" transform="translate(-348.000000, -295.000000)">
            <g id="btn-icon-copy" transform="translate(321.000000, 270.000000)">
                <g id="Group-2" transform="translate(27.000000, 25.000000)">
                    <g id="interface">
                        <path d="M47.2869276,26.466547 L43.303179,26.466547 L43.303179,20.3310646 C43.303179,20.3212814 43.2996161,20.3118475 43.2996161,20.3003173 C43.2996161,20.2905341 43.303179,20.2809838 43.303179,20.2709676 C43.303179,19.3436572 42.5358356,18.5911638 41.5901066,18.5911638 L26.2130724,18.5911638 L26.2130724,14.5320554 L30.1967022,14.5320554 C31.1424312,14.5320554 31.9083495,13.7792126 31.9083495,12.8519022 L31.9083495,1.67922143 C31.9083495,0.751794586 31.1424312,0 30.1967022,0 L18.8032978,0 C17.8566186,0 17.0907004,0.751794586 17.0907004,1.67922143 L17.0907004,12.852601 C17.0907004,13.7799114 17.8566186,14.5327542 18.8032978,14.5327542 L22.7869276,14.5327542 L22.7869276,18.5918626 L7.40941834,18.5918626 C6.46440188,18.5918626 5.69682096,19.344356 5.69682096,20.2716664 L5.69682096,26.4673622 L1.71307244,26.4673622 C0.765918202,26.4672458 0,27.2190404 0,28.1463507 L0,39.319381 C0,40.2468078 0.765918202,41 1.71307244,41 L13.1069519,41 C14.0525622,41 14.8195493,40.2468078 14.8195493,39.319381 L14.8195493,28.1457684 C14.8195493,27.218458 14.0525622,26.466547 13.1069519,26.466547 L9.12177818,26.466547 L9.12177818,21.9500726 L22.7870463,21.9500726 L22.7870463,26.4664305 L18.8034166,26.4664305 C17.8567374,26.4664305 17.0908192,27.2183416 17.0908192,28.1456519 L17.0908192,39.3192645 C17.0908192,40.2466913 17.8567374,40.9991847 18.8034166,40.9991847 L30.196821,40.9991847 C31.14255,40.9991847 31.9084682,40.2466913 31.9084682,39.3192645 L31.9084682,28.1456519 C31.9084682,27.2183416 31.14255,26.4664305 30.196821,26.4664305 L26.2131912,26.4664305 L26.2131912,21.9500726 L39.8786969,21.9500726 L39.8786969,26.4664305 L35.8935232,26.4664305 C34.9479129,26.4664305 34.1804507,27.2183416 34.1804507,28.1456519 L34.1804507,39.3192645 C34.1804507,40.2466913 34.9479129,40.9991847 35.8935232,40.9991847 L47.2876402,40.9991847 C48.2340818,40.9991847 49,40.2466913 49,39.3192645 L49,28.1456519 C48.9991686,27.218458 48.2333692,26.466547 47.2869276,26.466547 Z" id="Shape" fill="#5A6E82" fill-rule="nonzero"></path>
                        <rect id="Rectangle-2" fill="#E8ECF0" x="15" y="22" width="18" height="23"></rect>
                    </g>
                </g>
            </g>
        </g>
    </g>
</svg>