<?xml version="1.0" encoding="UTF-8"?>
<svg width="28px" height="28px" viewBox="0 0 28 28" version="1.1" xmlns="http://www.w3.org/2000/svg" xmlns:xlink="http://www.w3.org/1999/xlink">
    <!-- Generator: Sketch 50.2 (55047) - http://www.bohemiancoding.com/sketch -->
    <title>003-social-media</title>
    <desc>Created with Sketch.</desc>
    <defs></defs>
    <g id="assets" stroke="none" stroke-width="1" fill="none" fill-rule="evenodd">
        <g id="Artboard-2" transform="translate(-138.000000, -125.000000)" fill="#5A6E82" fill-rule="nonzero">
            <g id="003-social-media" transform="translate(138.000000, 125.000000)">
                <path d="M16.436,11.92688 C15.246,11.92688 14.71456,12.58096 14.4172,13.04016 L14.4172,12.08592 L12.17608,12.08592 C12.2052,12.7176 12.17608,18.82888 12.17608,18.82888 L14.4172,18.82888 L14.4172,15.06176 C14.4172,14.86072 14.43008,14.65856 14.49056,14.51464 C14.65296,14.11144 15.02144,13.69424 15.6408,13.69424 C16.45168,13.69424 16.77592,14.31248 16.77592,15.21968 L16.77592,18.8272 L19.01704,18.8272 L19.0176,18.8272 L19.0176,14.9604 C19.01648,12.89064 17.91048,11.92688 16.436,11.92688 Z M14.41552,13.06368 L14.40152,13.06368 C14.406,13.05584 14.41272,13.04856 14.41552,13.04072 L14.41552,13.06368 Z" id="Shape"></path>
                <rect id="Rectangle-path" x="8.69288" y="12.08592" width="2.24112" height="6.74296"></rect>
                <path d="M13.90256,0 C6.23672,0 0,6.23672 0,13.90256 C0,21.56784 6.23672,27.80512 13.90256,27.80512 C21.56784,27.80512 27.80512,21.56784 27.80512,13.90256 C27.80512,6.23672 21.56896,0 13.90256,0 Z M21.27496,20.1908 C21.27496,20.78216 20.7844,21.2604 20.17792,21.2604 L7.53256,21.2604 C6.92776,21.2604 6.43664,20.78216 6.43664,20.1908 L6.43664,7.39816 C6.43664,6.80736 6.92776,6.32856 7.53256,6.32856 L20.17792,6.32856 C20.78384,6.32856 21.27496,6.80792 21.27496,7.39816 L21.27496,20.1908 Z" id="Shape"></path>
                <path d="M9.82856,8.83512 C9.06248,8.83512 8.56072,9.338 8.56072,9.99992 C8.56072,10.64672 9.04736,11.16472 9.79888,11.16472 L9.81344,11.16472 C10.5952,11.16472 11.08184,10.64672 11.08184,9.99992 C11.06672,9.33856 10.59576,8.83512 9.82856,8.83512 Z" id="Shape"></path>
            </g>
        </g>
    </g>
</svg>