<?xml version="1.0" encoding="UTF-8"?>
<svg width="28px" height="28px" viewBox="0 0 28 28" version="1.1" xmlns="http://www.w3.org/2000/svg" xmlns:xlink="http://www.w3.org/1999/xlink">
    <!-- Generator: Sketch 50.2 (55047) - http://www.bohemiancoding.com/sketch -->
    <title>004-social-1</title>
    <desc>Created with Sketch.</desc>
    <defs></defs>
    <g id="assets" stroke="none" stroke-width="1" fill="none" fill-rule="evenodd">
        <g id="Artboard-2" transform="translate(-85.000000, -125.000000)" fill="#5A6E82" fill-rule="nonzero">
            <g id="004-social-1" transform="translate(85.000000, 125.000000)">
                <path d="M13.9825216,0 C6.26067351,0 0,6.26067351 0,13.9825216 C0,21.7043696 6.26067351,27.9650431 13.9825216,27.9650431 C21.7043696,27.9650431 27.9650431,21.7043696 27.9650431,13.9825216 C27.9650431,6.25894867 21.7043696,0 13.9825216,0 Z M20.9388255,10.8434168 L20.9492895,11.289117 C20.9492895,15.8404107 17.4868912,21.083885 11.1545216,21.083885 C9.21096509,21.083885 7.40194661,20.5141109 5.87787269,19.5370431 C6.14706366,19.5684928 6.42142916,19.5859713 6.69935934,19.5859713 C8.3126078,19.5859713 9.79649281,19.0354004 10.9745051,18.1125503 C9.46790965,18.0846078 8.19721561,17.0883368 7.75852977,15.7215688 C7.96999589,15.7617577 8.18324435,15.7810185 8.40695688,15.7810185 C8.72156879,15.7810185 9.02565914,15.7408296 9.31405339,15.6621766 C7.73926899,15.3440575 6.55251745,13.9545791 6.55251745,12.2871704 L6.55251745,12.2434743 C7.01742094,12.5021437 7.54700616,12.6559425 8.11154825,12.6752033 C7.18869815,12.0582259 6.58045996,11.0042875 6.58045996,9.81052156 C6.58045996,9.1795729 6.75001232,8.58881314 7.04536345,8.08021355 C8.74249692,10.1635975 11.2803203,11.5338727 14.1414949,11.6772074 C14.0820452,11.4254949 14.0523778,11.1615934 14.0523778,10.89246 C14.0523778,8.99259959 15.5939302,7.45098973 17.4955729,7.45098973 C18.4848296,7.45098973 19.3797372,7.86868994 20.0089035,8.53810267 C20.7919261,8.38252156 21.5295277,8.09590965 22.1954333,7.70264476 C21.9384887,8.50665298 21.3932074,9.18129774 20.6818234,9.60773717 C21.375729,9.525577 22.0416345,9.3385462 22.6586119,9.06590554 C22.1972156,9.75452156 21.6116879,10.3610349 20.9388255,10.8434168 Z" id="Shape"></path>
            </g>
        </g>
    </g>
</svg>