<?xml version="1.0" encoding="UTF-8"?>
<svg width="28px" height="28px" viewBox="0 0 28 28" version="1.1" xmlns="http://www.w3.org/2000/svg" xmlns:xlink="http://www.w3.org/1999/xlink">
    <!-- Generator: Sketch 50.2 (55047) - http://www.bohemiancoding.com/sketch -->
    <title>005-social</title>
    <desc>Created with Sketch.</desc>
    <defs></defs>
    <g id="assets" stroke="none" stroke-width="1" fill="none" fill-rule="evenodd">
        <g id="Artboard-2" transform="translate(-36.000000, -125.000000)" fill-rule="nonzero">
            <g id="005-social" transform="translate(36.000000, 125.000000)">
                <polygon id="Shape" fill="#374B5F" points="7.336 14.9948571 8.44314286 14.9948571 8.44314286 20.9871429 9.49057143 20.9871429 9.49057143 14.9948571 10.6182857 14.9948571 10.6182857 14.0134286 7.336 14.0134286"></polygon>
                <path d="M16.1925714,15.7274286 C15.8462857,15.7274286 15.5231429,15.9165714 15.2194286,16.2908571 L15.2194286,14.0131429 L14.278,14.0131429 L14.278,20.9871429 L15.2194286,20.9871429 L15.2194286,20.4837143 C15.5345714,20.8725714 15.8574286,21.0588571 16.1925714,21.0588571 C16.5671429,21.0588571 16.8191429,20.8617143 16.9448571,20.4748571 C17.008,20.2545714 17.0402857,19.9085714 17.0402857,19.4277143 L17.0402857,17.3585714 C17.0402857,16.8665714 17.008,16.5231429 16.9448571,16.3142857 C16.8194286,15.9245714 16.5668571,15.7274286 16.1925714,15.7274286 Z M16.0982857,19.5014286 C16.0982857,19.9711429 15.9605714,20.2025714 15.6885714,20.2025714 C15.534,20.2025714 15.3765714,20.1285714 15.2191429,19.9708571 L15.2191429,16.804 C15.3765714,16.6482857 15.534,16.5745714 15.6885714,16.5745714 C15.9602857,16.5745714 16.0982857,16.8151429 16.0982857,17.2837143 L16.0982857,19.5014286 Z" id="Shape" fill="#374B5F"></path>
                <path d="M12.5211429,19.762 C12.3122857,20.0571429 12.1148571,20.2025714 11.9257143,20.2025714 C11.8,20.2025714 11.7282857,20.1285714 11.7054286,19.9822857 C11.6968571,19.952 11.6968571,19.8371429 11.6968571,19.6165714 L11.6968571,15.7908571 L10.7551429,15.7908571 L10.7551429,19.8991429 C10.7551429,20.2662857 10.7868571,20.5142857 10.8382857,20.672 C10.9328571,20.9354286 11.142,21.0588571 11.4448571,21.0588571 C11.7914286,21.0588571 12.1468571,20.8497143 12.5211429,20.4205714 L12.5211429,20.9874286 L13.4634286,20.9874286 L13.4634286,15.7908571 L12.5211429,15.7908571 L12.5211429,19.762 Z" id="Shape" fill="#374B5F"></path>
                <path d="M13.3294286,10.9902857 C13.636,10.9902857 13.7831429,10.7471429 13.7831429,10.2614286 L13.7831429,8.05257143 C13.7831429,7.56657143 13.636,7.32457143 13.3294286,7.32457143 C13.0225714,7.32457143 12.8751429,7.56685714 12.8751429,8.05257143 L12.8751429,10.2614286 C12.8751429,10.7474286 13.0225714,10.9902857 13.3294286,10.9902857 Z" id="Shape" fill="#374B5F"></path>
                <path d="M13.9642857,0 C6.252,0 0,6.252 0,13.9642857 C0,21.6765714 6.252,27.9285714 13.9642857,27.9285714 C21.6765714,27.9285714 27.9285714,21.6765714 27.9285714,13.9642857 C27.9285714,6.252 21.6765714,0 13.9642857,0 Z M15.5174286,6.53142857 L16.4662857,6.53142857 L16.4662857,10.3977143 C16.4662857,10.6208571 16.4662857,10.7365714 16.4777143,10.7677143 C16.4985714,10.9151429 16.5734286,10.9905714 16.7008571,10.9905714 C16.8911429,10.9905714 17.0908571,10.8431429 17.302,10.5451429 L17.302,6.53142857 L18.2534286,6.53142857 L18.2534286,11.7825714 L17.302,11.7825714 L17.302,11.21 C16.9231429,11.6442857 16.562,11.8548571 16.2148571,11.8548571 C15.9085714,11.8548571 15.6971429,11.7305714 15.6017143,11.4648571 C15.5491429,11.3057143 15.5174286,11.0545714 15.5174286,10.684 L15.5174286,6.53142857 Z M11.9237143,8.24371429 C11.9237143,7.68228571 12.0191429,7.272 12.2214286,7.00657143 C12.4845714,6.64742857 12.8551429,6.468 13.3294286,6.468 C13.806,6.468 14.1762857,6.64742857 14.4394286,7.00657143 C14.6388571,7.27171429 14.7342857,7.68228571 14.7342857,8.24371429 L14.7342857,10.0825714 C14.7342857,10.6408571 14.6388571,11.0548571 14.4394286,11.3174286 C14.1762857,11.6757143 13.806,11.8548571 13.3294286,11.8548571 C12.8551429,11.8548571 12.4845714,11.6757143 12.2214286,11.3174286 C12.0191429,11.0548571 11.9237143,10.6405714 11.9237143,10.0825714 L11.9237143,8.24371429 Z M9.37914286,4.736 L10.1282857,7.50314286 L10.848,4.736 L11.9151429,4.736 L10.6457143,8.92885714 L10.6457143,11.7828571 L9.59085714,11.7828571 L9.59085714,8.92885714 C9.49514286,8.42314286 9.284,7.68228571 8.94542857,6.69942857 C8.72314286,6.04542857 8.49142857,5.38942857 8.26914286,4.736 L9.37914286,4.736 Z M21.4817143,21.446 C21.2908571,22.2742857 20.6134286,22.8857143 19.7977143,22.9768571 C17.8654286,23.1925714 15.9108571,23.1937143 13.9634286,23.1925714 C12.0168571,23.1937143 10.0611429,23.1925714 8.12942857,22.9768571 C7.31371429,22.8857143 6.636,22.2745714 6.44571429,21.446 C6.174,20.2662857 6.174,18.978 6.174,17.7631429 C6.174,16.5482857 6.17742857,15.2602857 6.44885714,14.0802857 C6.63942857,13.2517143 7.31657143,12.6402857 8.13228571,12.5494286 C10.0642857,12.3337143 12.0197143,12.3325714 13.9668571,12.3337143 C15.9134286,12.3325714 17.8688571,12.3337143 19.8008571,12.5494286 C20.6165714,12.6405714 21.2942857,13.2517143 21.4854286,14.0802857 C21.7562857,15.2602857 21.7545714,16.5482857 21.7545714,17.7631429 C21.7545714,18.978 21.7534286,20.2662857 21.4817143,21.446 Z" id="Shape" fill="#5A6E82"></path>
                <path d="M19.1914286,15.7274286 C18.7097143,15.7274286 18.3357143,15.9042857 18.0637143,16.26 C17.864,16.5228571 17.7728571,16.9291429 17.7728571,17.4842857 L17.7728571,19.3045714 C17.7728571,19.8568571 17.8748571,20.266 18.0754286,20.5262857 C18.3471429,20.8811429 18.7222857,21.0585714 19.2148571,21.0585714 C19.7065714,21.0585714 20.0925714,20.8725714 20.3531429,20.4951429 C20.4674286,20.3282857 20.5417143,20.1394286 20.5731429,19.9308571 C20.582,19.8365714 20.5931429,19.6277143 20.5931429,19.324 L20.5931429,19.1871429 L19.6328571,19.1871429 C19.6328571,19.5642857 19.6205714,19.7737143 19.6122857,19.8248571 C19.5585714,20.0765714 19.4231429,20.2022857 19.1914286,20.2022857 C18.868,20.2022857 18.7097143,19.9622857 18.7097143,19.4817143 L18.7097143,18.56 L20.5931429,18.56 L20.5931429,17.4837143 C20.5931429,16.9285714 20.4991429,16.5222857 20.3017143,16.2594286 C20.0385714,15.9045714 19.664,15.7274286 19.1914286,15.7274286 Z M19.652,17.7765714 L18.7102857,17.7765714 L18.7102857,17.2957143 C18.7102857,16.8151429 18.8682857,16.5748571 19.1828571,16.5748571 C19.4942857,16.5748571 19.652,16.8154286 19.652,17.2957143 L19.652,17.7765714 Z" id="Shape" fill="#374B5F"></path>
            </g>
        </g>
    </g>
</svg>