<?xml version="1.0" encoding="UTF-8"?>
<svg width="28px" height="28px" viewBox="0 0 28 28" version="1.1" xmlns="http://www.w3.org/2000/svg" xmlns:xlink="http://www.w3.org/1999/xlink">
    <!-- Generator: Sketch 50.2 (55047) - http://www.bohemiancoding.com/sketch -->
    <title>002-social-2</title>
    <desc>Created with Sketch.</desc>
    <defs></defs>
    <g id="assets" stroke="none" stroke-width="1" fill="none" fill-rule="evenodd">
        <g id="Artboard-2" transform="translate(-191.000000, -125.000000)" fill="#5A6E82" fill-rule="nonzero">
            <g id="002-social-2" transform="translate(191.000000, 125.000000)">
                <path d="M13.90256,0 C6.23672,0 0,6.23672 0,13.90256 C0,21.56784 6.23672,27.80512 13.90256,27.80512 C21.56784,27.80512 27.80512,21.56784 27.80512,13.90256 C27.80512,6.23672 21.56896,0 13.90256,0 Z M17.36,14.392 L15.09816,14.392 C15.09816,18.00568 15.09816,22.45376 15.09816,22.45376 L11.74656,22.45376 C11.74656,22.45376 11.74656,18.0488 11.74656,14.392 L10.15336,14.392 L10.15336,11.54272 L11.74656,11.54272 L11.74656,9.69976 C11.74656,8.37984 12.37376,6.31736 15.12896,6.31736 L17.61256,6.32688 L17.61256,9.09272 C17.61256,9.09272 16.10336,9.09272 15.80992,9.09272 C15.51648,9.09272 15.09928,9.23944 15.09928,9.86888 L15.09928,11.54328 L17.65288,11.54328 L17.36,14.392 Z" id="Shape"></path>
            </g>
        </g>
    </g>
</svg>