<svg xmlns="http://www.w3.org/2000/svg" width="11.08" height="19.081" viewBox="0 0 11.08 19.081"><defs><style>.a{fill:#607D8B;}</style></defs><g transform="translate(6.001 -3.436) rotate(37)"><path class="a" d="M9.808,1.761H8.718V.612A.582.582,0,0,0,8.174,0H2.906a.582.582,0,0,0-.545.612V1.761H1.271A1.357,1.357,0,0,0,0,3.19V17.652a1.357,1.357,0,0,0,1.271,1.429H9.808a1.357,1.357,0,0,0,1.271-1.429V3.19A1.357,1.357,0,0,0,9.808,1.761ZM6.993,3.19V1.225h.636V4.542H6.993Zm-3.542,0V1.225h2V4.542h-2V3.19ZM3.784,17.4a.582.582,0,0,1-.545.613H2.361a.582.582,0,0,1-.545-.613V16.35a.582.582,0,0,1,.545-.612h.878a.582.582,0,0,1,.545.612V17.4Zm0-3.08a.582.582,0,0,1-.545.612H2.361a.582.582,0,0,1-.545-.612V13.27a.582.582,0,0,1,.545-.613h.878a.582.582,0,0,1,.545.613v1.054Zm0-3.079a.582.582,0,0,1-.545.613H2.361a.582.582,0,0,1-.545-.613V10.191a.582.582,0,0,1,.545-.613h.878a.582.582,0,0,1,.545.613v1.055ZM6.524,17.4a.582.582,0,0,1-.545.613H5.1a.582.582,0,0,1-.545-.613V16.35a.582.582,0,0,1,.545-.612h.878a.582.582,0,0,1,.545.612Zm0-3.08a.582.582,0,0,1-.545.612H5.1a.582.582,0,0,1-.545-.612V13.27a.582.582,0,0,1,.545-.613h.878a.582.582,0,0,1,.545.613Zm0-3.079a.582.582,0,0,1-.545.613H5.1a.582.582,0,0,1-.545-.613V10.191A.582.582,0,0,1,5.1,9.578h.878a.582.582,0,0,1,.545.613ZM9.263,17.4a.582.582,0,0,1-.545.613H7.84A.582.582,0,0,1,7.3,17.4V16.35a.582.582,0,0,1,.545-.612h.878a.582.582,0,0,1,.545.612Zm0-3.08a.582.582,0,0,1-.545.612H7.84a.582.582,0,0,1-.545-.612V13.27a.582.582,0,0,1,.545-.613h.878a.582.582,0,0,1,.545.613Zm0-3.079a.582.582,0,0,1-.545.613H7.84a.582.582,0,0,1-.545-.613V10.191a.582.582,0,0,1,.545-.613h.878a.582.582,0,0,1,.545.613Zm0-3.576a.994.994,0,0,1-.931,1.046H2.747a.994.994,0,0,1-.931-1.046V6.588a.994.994,0,0,1,.931-1.047H8.332a.994.994,0,0,1,.931,1.047V7.669Z" transform="matrix(0.799, -0.602, 0.602, 0.799, -2.725, 6.355)"/></g></svg>
