<svg xmlns="http://www.w3.org/2000/svg" viewBox="0 0 14.616 15.979"><defs><style>.a{fill:#838296;}</style></defs><g transform="translate(-20.509)"><g transform="translate(20.509)"><g transform="translate(0)"><path class="a" d="M138.814,4.854c.1,1.36.645.774.756,1.37a2.961,2.961,0,0,0,1.609,1.955,2.469,2.469,0,0,0,.992.223h.007a2.468,2.468,0,0,0,.992-.223,2.961,2.961,0,0,0,1.609-1.955c.112-.6.653-.01.756-1.37,0-.542-.3-.677-.3-.677s.15-.8.209-1.42C145.521,1.988,145,0,142.215,0h-.08c-2.785,0-3.307,1.988-3.234,2.757.059.617.209,1.42.209,1.42S138.814,4.312,138.814,4.854Z" transform="translate(-134.886)"/><path class="a" d="M34.114,283.541c-1.4-.715-3.44-1.607-3.538-1.639h0a.546.546,0,0,0-.7.334h0c-.363.874-1.028,2.431-1.442,3.182l-.1-2.105s.621-1.318.689-1.439c.16-.283.016-.524-.284-.524H26.9c-.3,0-.444.241-.284.524.068.121.689,1.439.689,1.439l-.1,2.105c-.413-.751-1.079-2.308-1.442-3.182h0a.546.546,0,0,0-.7-.334h0c-.1.032-2.134.924-3.538,1.639-.631.321-1.011.72-1.011,1.14v3.306H35.125v-3.306C35.125,284.261,34.745,283.862,34.114,283.541Z" transform="translate(-20.509 -272.009)"/></g></g></g></svg>