<svg xmlns="http://www.w3.org/2000/svg" width="18" height="15.604" viewBox="0 0 18 15.604">
  <g id="box" transform="translate(2.02 -0.247)">
    <path id="Path_17993" data-name="Path 17993" d="M116.938,667.488v3.81l6.328,2.109v-5.331l-1.182,1.2Zm0,0" transform="translate(-116.812 -657.557)" fill="#607D8B"/>
    <path id="Path_17994" data-name="Path 17994" d="M526.453,668.077v5.331l6.328-2.109v-3.81l-5.146,1.792Zm0,0" transform="translate(-518.945 -657.557)" fill="#607D8B"/>
    <path id="Path_17995" data-name="Path 17995" d="M643.457,345.907l3.67-1.129-3.67-1.223Zm0,0" transform="translate(-633.84 -339.463)" fill="#607D8B"/>
    <path id="Path_17996" data-name="Path 17996" d="M15.98,456.679l-1.765-1.93L6.98,456.964l-7.193-2.257-1.807,1.972,7.007,2.44,1.993-2.029,1.993,2.029Zm0,0" transform="translate(0 -448.612)" fill="#607D8B"/>
    <path id="Path_17997" data-name="Path 17997" d="M153.327,344.727,149.7,345.9l3.628,1.139Zm0,0" transform="translate(-148.984 -340.614)" fill="#607D8B"/>
    <path id="Path_17998" data-name="Path 17998" d="M323.277,4.49l1.586.371,1.578-.36V1h1.582l-3.164-3.145L321.7,1h1.582Zm0,0" transform="translate(-317.879 2.388)" fill="#607D8B"/>
  </g>
</svg>
