<svg xmlns="http://www.w3.org/2000/svg" width="40" height="40" viewBox="0 0 40 40">
    <defs>
        <style>
            .cls-1,.cls-2{fill:#810010}.cls-2,.cls-3{fill-rule:evenodd}.cls-3{fill:#fff}
        </style>
    </defs>
    <g id="Group_18910" data-name="Group 18910" transform="translate(-112 -920)">
        <g id="bg" transform="translate(112 920)">
            <rect id="Rectangle_945" width="40" height="40" class="cls-1" data-name="Rectangle 945" rx="4"/>
        </g>
        <g id="Group_17640" data-name="Group 17640" transform="translate(113.528 930)">
            <g id="Group_13789" data-name="Group 13789" transform="translate(0 2)">
                <path id="fundo" d="M164.81 87.354h-3.829c-1.692.08-3.075.761-3.474 2.167-.208.733-.323 1.537-.486 2.3-.828 3.863-1.561 7.832-2.353 11.618h29.809c2.3 0 3.887-.487 4.315-2.316.2-.849.389-1.812.579-2.745.741-3.64 1.482-7.279 2.241-11.02z" class="cls-2" transform="translate(-154.668 -87.354)"/>
                <path id="hipercard" d="M168.875 98.736c.174-.12.4-.665.142-.892a.482.482 0 0 0-.406-.061.491.491 0 0 0-.345.182c-.11.15-.211.6-.041.771s.539.076.65 0zm-2.474-.892c-.125.808-.265 1.6-.406 2.393-.9.01-1.826.045-2.7-.02.165-.775.283-1.6.446-2.373h-.974c-.349 1.977-.666 3.986-1.055 5.923h.994c.156-.994.3-2 .507-2.941a24.3 24.3 0 0 1 2.677.02c-.168.982-.371 1.928-.527 2.921h.994c.32-2.007.656-4 1.055-5.923zm14.056 1.7a1.338 1.338 0 0 0-1.663.71c.064-.22.09-.478.142-.71h-.771c-.188 1.461-.466 2.834-.73 4.219h.872a16.6 16.6 0 0 1 .446-2.718 1.217 1.217 0 0 1 1.6-.872c.014-.228.08-.406.104-.626zm.487 3.225a2.109 2.109 0 0 1-.081-.811 2.837 2.837 0 0 1 .588-1.623 2.138 2.138 0 0 1 2.069-.122c.023-.241.071-.457.1-.69a3.3 3.3 0 0 0-2.88.547 3.463 3.463 0 0 0-.69 2.88c.314 1.028 1.721 1.083 2.86.69.051-.207.077-.437.122-.65-.622.329-1.812.497-2.088-.217zm9.8-3.2a1.332 1.332 0 0 0-1.663.649c.071-.2.076-.466.142-.67h-.771q-.312 2.173-.75 4.219h.892a9.493 9.493 0 0 1 .2-1.521c.186-1.171.46-2.455 1.825-2.069.045-.199.064-.423.121-.609zm-22.758-.021c-.024 0-.022.032-.021.061a59.773 59.773 0 0 1-.73 4.158h.872a57.38 57.38 0 0 1 .751-4.219zm7.667-.081a2.276 2.276 0 0 0-1.541.629 3.521 3.521 0 0 0-.731 2.556c.157 1.405 1.907 1.355 3.306 1.014.024-.246.084-.457.122-.69a2.781 2.781 0 0 1-2.17.142c-.448-.283-.45-1-.3-1.623.941-.03 1.918-.024 2.86 0a3.005 3.005 0 0 0 .081-1.359c-.205-.576-.912-.725-1.63-.67zm.831 1.541h-2.048a1.208 1.208 0 0 1 1.156-1.014c.625-.024 1.075.231.889 1.014zm-4.138-1.46a2.3 2.3 0 0 0-2.028.369c0 .014-.01.016-.021.017l.021-.017c.007-.135.054-.229.061-.365h-.75c-.313 2.081-.684 4.1-1.075 6.105h.872c.126-.78.209-1.6.385-2.333.2.768 1.5.621 2.049.325 1.129-.617 2.002-3.531.483-4.102zm-.69 3.428c-.467.494-1.614.487-1.7-.345a4.138 4.138 0 0 1 .162-1.115c.067-.379.116-.743.182-1.075.46-.561 1.81-.629 1.947.3a3.094 3.094 0 0 1-.593 2.234zm22.332-5.253q-.112.983-.3 1.887c-2.139-.678-3.451.9-3.428 2.84a1.528 1.528 0 0 0 .3 1.014 1.974 1.974 0 0 0 2.15.183 1.521 1.521 0 0 0 .3-.3c.057-.071.146-.256.162-.2a4.587 4.587 0 0 0-.081.629h.791a55.14 55.14 0 0 1 .974-6.045zm-1.947 5.578c-.587.013-.879-.351-.892-.953-.024-1.055.44-2.228 1.379-2.333a2.283 2.283 0 0 1 1.075.162c-.297 1.184-.191 3.093-1.565 3.123zm-7.525-3.752c-.043.241-.109.459-.162.69.515-.129 2.117-.525 2.272.162a1.2 1.2 0 0 1-.1.649c-1.449-.137-2.631.1-2.941 1.136a1.281 1.281 0 0 0 .466 1.562 1.94 1.94 0 0 0 2.252-.629 2.648 2.648 0 0 0-.061.649h.75a11.636 11.636 0 0 1 .223-1.948 7.7 7.7 0 0 0 .243-1.582c-.068-1.114-1.913-.72-2.945-.691zm1.42 3.407c-.449.44-1.711.565-1.582-.487.107-.873 1.058-1.059 2.089-.933a2.6 2.6 0 0 1-.51 1.419z" class="cls-3" transform="translate(-159.583 -92.947)"/>
            </g>
        </g>
    </g>
</svg>
