<svg xmlns="http://www.w3.org/2000/svg" viewBox="0 0 16 14.211"><defs><style>.a{fill:#838296;}</style></defs><g transform="translate(-0.031 -0.16)"><path class="a" d="M282.489,237.265a2.667,2.667,0,1,0-4.115,2.237l-.517,1.552,1.265.422.517-1.551c.061,0,.122.007.184.007s.123,0,.184-.007l.517,1.551,1.265-.422-.517-1.552A2.666,2.666,0,0,0,282.489,237.265Zm-2.667,1.333a1.333,1.333,0,1,1,1.333-1.333A1.333,1.333,0,0,1,279.822,238.6Zm0,0" transform="translate(-268.458 -227.105)"/><path class="a" d="M15.365.16H.7A.667.667,0,0,0,.031.827v10a.667.667,0,0,0,.667.667H8.31a3.333,3.333,0,1,1,6.108,0h.946a.667.667,0,0,0,.667-.667v-10A.667.667,0,0,0,15.365.16Zm-12,4.667H6.031V6.16H3.364Zm4,4h-4V7.493h4ZM10.031,6.16H7.364V4.827h2.667Zm1.333-2.667H4.7V2.16h6.667Zm0,0"/></g></svg>