<svg xmlns="http://www.w3.org/2000/svg" viewBox="0 0 16 16"><defs><style>.a{fill:#c31d1d;}</style></defs><path class="a" d="M13.657,2.343A8,8,0,1,0,2.343,13.657,8,8,0,0,0,13.657,2.343Zm-3.875,5.8,1.994,1.994a.413.413,0,0,1,0,.583l-1.152,1.152a.413.413,0,0,1-.583,0L8.047,9.882a.107.107,0,0,0-.146,0L5.907,11.876a.413.413,0,0,1-.583,0L4.172,10.724a.413.413,0,0,1,0-.583L6.166,8.147a.1.1,0,0,0,0-.146L4.088,5.923a.413.413,0,0,1,0-.583L5.24,4.188a.413.413,0,0,1,.583,0L7.9,6.266a.107.107,0,0,0,.146,0l2.078-2.078a.413.413,0,0,1,.583,0L11.86,5.339a.413.413,0,0,1,0,.583L9.782,8A.1.1,0,0,0,9.782,8.147Z"/></svg>