<svg xmlns="http://www.w3.org/2000/svg" width="32.094" height="32.199" viewBox="0 0 32.094 32.199"><g transform="translate(1575 7168)"><g transform="translate(-1575 -7168)"><g transform="translate(0)"><path d="M30.786,3.215H20.071V2.143A2.149,2.149,0,0,0,17.928,0h-15A2.149,2.149,0,0,0,.784,2.143V13.93c0,5.893,5.625,5.893,7.5,5.893a.536.536,0,1,0,0-1.072,2.149,2.149,0,0,1-2.143-2.143v-.214a2.254,2.254,0,0,1,2.25-1.929h7.393v1.072H10.963a.506.506,0,0,0-.536.536,4.81,4.81,0,0,0,1.286,3.268,5.179,5.179,0,0,0-.214,1.554,5.414,5.414,0,0,0,3.215,4.929c0,.321-.161.964-1.607.964a2.653,2.653,0,0,0-2.679,2.679v2.679H11.5V29.467A1.592,1.592,0,0,1,13,27.859l2.625,1.286a3.72,3.72,0,0,0,.7.268v2.732h1.072V29.413a2.652,2.652,0,0,0,.7-.214l2.625-1.286a1.592,1.592,0,0,1,1.5,1.607V32.2h1.072V29.52a2.653,2.653,0,0,0-2.679-2.679C19.16,26.841,19,26.2,19,25.877a5.332,5.332,0,0,0,3.215-5.09v-.375a4.246,4.246,0,0,0-.536-2.143h3.59a2.254,2.254,0,0,1,2.25,1.929,2.161,2.161,0,0,1-1.929,2.357h-.214a.536.536,0,1,0,0,1.072c1.875,0,7.5,0,7.5-5.893V5.358A2.071,2.071,0,0,0,30.786,3.215ZM8.392,13.394A3.35,3.35,0,0,0,5.07,16.287a3.369,3.369,0,0,0,.643,2.25C3.088,18,1.856,16.555,1.856,13.93V2.143A1.075,1.075,0,0,1,2.927,1.072h15A1.075,1.075,0,0,1,19,2.143V12.322a1.075,1.075,0,0,1-1.072,1.072Zm3.161,3.215h5.84a3.749,3.749,0,0,1,3.7,3.215h-5.84A3.749,3.749,0,0,1,11.553,16.608Zm6.751,8.3a.515.515,0,0,0-.375.482v.321A1.885,1.885,0,0,0,19,27.538l-1.393.7a1.958,1.958,0,0,1-1.554,0l-1.339-.7a1.885,1.885,0,0,0,1.072-1.822v-.268a.515.515,0,0,0-.375-.482,4.338,4.338,0,0,1-2.84-4.072,3.3,3.3,0,0,1,.054-.75,4.852,4.852,0,0,0,2.625.75h5.893A4.218,4.218,0,0,1,18.3,24.913ZM31.858,17.68c0,2.625-1.232,4.072-3.857,4.607a3.369,3.369,0,0,0,.643-2.25,3.31,3.31,0,0,0-3.322-2.893h-4.34a4.79,4.79,0,0,0-3.59-1.607h-.536V14.465h1.072a2.149,2.149,0,0,0,2.143-2.143V4.286H30.786a1.075,1.075,0,0,1,1.072,1.072V17.68Z" transform="translate(-0.784)" fill="#838296"/></g><g transform="translate(19.927 6.198)"><path d="M71.763,35.257H71.3a.44.44,0,0,1-.465-.465V33.4a1.4,1.4,0,1,0-2.792,0v1.4a.44.44,0,0,1-.465.465.44.44,0,0,0-.465-.465H65.249a.44.44,0,0,0-.465.465v5.118a.44.44,0,0,0,.465.465H67.11a.44.44,0,0,0,.465-.465h4.188a1.371,1.371,0,0,0,1.4-1.4V36.653A1.371,1.371,0,0,0,71.763,35.257ZM66.645,39.91h-.931V35.722h.931Zm5.583-.931a.44.44,0,0,1-.465.465H67.576V36.188a1.371,1.371,0,0,0,1.4-1.4V33.4a.465.465,0,1,1,.931,0v1.4a1.371,1.371,0,0,0,1.4,1.4h.465a.44.44,0,0,1,.465.465Z" transform="translate(-64.784 -32)" fill="#838296"/></g></g><g transform="translate(-1570.492 -7165.524)"><path d="M5.507.6C5.639.6,5.77.6,5.9.613l.355.617H6.019C3.236,1.3.978,3.173.978,5.432A3.858,3.858,0,0,0,3.433,8.859,4.343,4.343,0,0,1,.4,4.92C.4,2.53,2.685.6,5.507.6" transform="translate(-0.4 -0.6)" fill="#838296" stroke="#838296" stroke-width="0.2"/><path d="M12.672,9.522c-2.81.158-5.055,1.707-5.2,3.571a1.939,1.939,0,0,0-.013.276,3.189,3.189,0,0,0,1.72,2.639A3.648,3.648,0,0,1,7,12.91c0-2.1,2.311-3.873,5.252-4.11Z" transform="translate(-6.133 -7.723)" fill="#838296" stroke="#838296" stroke-width="0.2"/><path d="M18.523,19.643c-2.744.079-4.963,1.6-4.963,3.427a2.541,2.541,0,0,0,.709,1.694A2.8,2.8,0,0,1,13.1,22.6c0-1.878,2.232-3.453,5.042-3.6Z" transform="translate(-11.433 -16.584)" fill="#838296" stroke="#838296" stroke-width="0.2"/><path d="M32.748,19.259c-.131,0-.263,0-.394-.013L32,18.628h.236c2.783-.066,5.042-1.956,5.042-4.2A3.858,3.858,0,0,0,34.823,11a4.347,4.347,0,0,1,3.033,3.939c0,2.39-2.285,4.32-5.107,4.32" transform="translate(-27.851 -9.635)" fill="#838296" stroke="#838296" stroke-width="0.2"/><path d="M26.8,17.286c2.81-.158,5.055-1.707,5.2-3.571a1.938,1.938,0,0,0,.013-.276,3.189,3.189,0,0,0-1.72-2.639,3.632,3.632,0,0,1,2.18,3.1c0,2.1-2.311,3.873-5.252,4.11Z" transform="translate(-23.334 -9.461)" fill="#838296" stroke="#838296" stroke-width="0.2"/><path d="M22.6,16.807c2.744-.079,4.963-1.6,4.963-3.414a2.541,2.541,0,0,0-.709-1.694,2.8,2.8,0,0,1,1.169,2.166c0,1.878-2.232,3.453-5.042,3.6Z" transform="translate(-19.685 -10.243)" fill="#838296" stroke="#838296" stroke-width="0.2"/></g></g></svg>