<svg xmlns="http://www.w3.org/2000/svg" viewBox="0 0 19.365 19.485"><defs><style>.a{fill:#838296;opacity:0.504;}</style></defs><path class="a" d="M712.315,225.23a1.413,1.413,0,0,0-1.432,1.394v16.7a1.413,1.413,0,0,0,1.432,1.394h16.5a1.413,1.413,0,0,0,1.432-1.394v-16.7a1.413,1.413,0,0,0-1.432-1.394Zm2.994,3.271a1.524,1.524,0,1,1-.022,3.038h-.016a1.523,1.523,0,1,1,.038-3.038Zm8.625,4.036c1.924,0,3.363,1.257,3.363,3.96v5.045h-2.924v-4.708c0-1.183-.422-1.991-1.481-1.991a1.607,1.607,0,0,0-1.5,1.074,1.992,1.992,0,0,0-.092.711v4.915h-2.929s.038-7.973,0-8.8H721.3v1.242A2.9,2.9,0,0,1,723.934,232.536Zm-2.636,1.448-.022.033h.022Zm-7.469-1.242h2.924v8.8h-2.924Z" transform="translate(-710.883 -225.229)"/></svg>