<svg xmlns="http://www.w3.org/2000/svg" width="32.146" height="25.59" viewBox="0 0 32.146 25.59">
  <g id="crown-2" transform="translate(0 -35.935)">
    <path id="Path_11832" data-name="Path 11832" d="M32.146,43.649a2.457,2.457,0,0,0-4.9,0,2.128,2.128,0,0,0,.334,1.141l-5.672,5.265L17.54,40.02a2.216,2.216,0,0,0,.983-1.816,2.367,2.367,0,0,0-2.45-2.269,2.367,2.367,0,0,0-2.45,2.269,2.216,2.216,0,0,0,.983,1.816L13.335,42.94a.568.568,0,0,0,.348.757.646.646,0,0,0,.817-.322l1.271-2.92a2.72,2.72,0,0,0,.354.017l.1,0c.05,0,.1-.007.149-.012L21.1,51.306a.618.618,0,0,0,.457.352.661.661,0,0,0,.57-.159l6.343-5.887.1.048L26.116,55.712H18.474a2.6,2.6,0,0,0-2.4-2.325,2.6,2.6,0,0,0-2.4,2.325H6.03L3.584,45.66l.1-.049L10.021,51.5a.661.661,0,0,0,.57.159.618.618,0,0,0,.457-.352l1.574-3.616a.568.568,0,0,0-.348-.757.646.646,0,0,0-.817.322l-1.218,2.8L4.566,44.79A2.129,2.129,0,0,0,4.9,43.648,2.367,2.367,0,0,0,2.45,41.38a2.272,2.272,0,1,0-.092,4.536L4.9,56.358v4.585a.606.606,0,0,0,.628.581h21.09a.606.606,0,0,0,.628-.581V56.358l2.542-10.443A2.359,2.359,0,0,0,32.146,43.649ZM16.073,37.1A1.154,1.154,0,0,1,17.268,38.2a1.118,1.118,0,0,1-.813,1.047,1.27,1.27,0,0,1-.764,0,1.118,1.118,0,0,1-.812-1.047A1.154,1.154,0,0,1,16.073,37.1ZM1.256,43.649A1.154,1.154,0,0,1,2.45,42.543a1.154,1.154,0,0,1,1.194,1.106,1.074,1.074,0,0,1-.433.852,1.244,1.244,0,0,1-.45.216,1.268,1.268,0,0,1-.311.038A1.154,1.154,0,0,1,1.256,43.649Zm14.817,10.9c.636,0,1.194.815,1.194,1.743s-.558,1.743-1.194,1.743-1.194-.815-1.194-1.743S15.437,54.55,16.073,54.55ZM6.156,60.361V56.874h7.516a2.6,2.6,0,0,0,2.4,2.325,2.6,2.6,0,0,0,2.4-2.325H25.99v3.487H6.156ZM29.7,42.543a1.109,1.109,0,1,1,0,2.212,1.254,1.254,0,0,1-.611-.156,1.317,1.317,0,0,1-.15-.1,1.074,1.074,0,0,1-.433-.852A1.154,1.154,0,0,1,29.7,42.543Z" transform="translate(0 0)" fill="#838296" fill-rule="evenodd"/>
    <path id="Path_11833" data-name="Path 11833" d="M197.336,188.53a.628.628,0,1,0-.628-.628A.629.629,0,0,0,197.336,188.53Z" transform="translate(-184.357 -142.574)" fill="#838296" fill-rule="evenodd"/>
  </g>
</svg>
