<svg xmlns="http://www.w3.org/2000/svg" width="15.695" height="11.86" viewBox="0 0 15.695 11.86">
  <path id="crown" d="M15.078,47.479a.552.552,0,0,1-.012.147L14.1,51.974a.453.453,0,0,1-.425.374l-5.809.033H2.054a.453.453,0,0,1-.427-.375L.658,47.642a.552.552,0,0,1-.012-.151A1.033,1.033,0,0,1,0,46.5a.987.987,0,0,1,.924-1.038A.987.987,0,0,1,1.848,46.5a1.089,1.089,0,0,1-.337.8l1.212,1.371a1.568,1.568,0,0,0,1.166.545A1.6,1.6,0,0,0,5.2,48.485l1.992-2.964a1.1,1.1,0,0,1-.271-.733.987.987,0,0,1,.924-1.038.987.987,0,0,1,.924,1.038,1.1,1.1,0,0,1-.257.716l0,0,1.978,2.972a1.6,1.6,0,0,0,1.316.741,1.547,1.547,0,0,0,1.162-.54l1.22-1.37a1.088,1.088,0,0,1-.345-.808.93.93,0,1,1,1.848,0A1.038,1.038,0,0,1,15.078,47.479ZM14,53.93a.469.469,0,0,0-.44-.494H2.181a.469.469,0,0,0-.44.494v1.186a.469.469,0,0,0,.44.494H13.564a.469.469,0,0,0,.44-.494Z" transform="translate(0 -43.75)" fill="#f7f7f7"/>
</svg>
