<?xml version="1.0" encoding="UTF-8"?>
<svg width="269px" height="74px" viewBox="0 0 269 74" version="1.1" xmlns="http://www.w3.org/2000/svg" xmlns:xlink="http://www.w3.org/1999/xlink">
    <!-- Generator: Sketch 50.2 (55047) - http://www.bohemiancoding.com/sketch -->
    <title>Group 18</title>
    <desc>Created with Sketch.</desc>
    <defs></defs>
    <g id="assets" stroke="none" stroke-width="1" fill="none" fill-rule="evenodd">
        <g id="logo" transform="translate(-122.000000, -63.000000)">
            <g id="Page-1" transform="translate(-1.000000, 0.000000)">
                <g id="Group-18" transform="translate(123.000000, 63.000000)">
                    <g id="Group-2">
                        <path d="M39.3301656,0.574845455 C40.3237083,0.574845455 41.3084646,0.606463636 42.2837585,0.668354545 L45.010256,5.36937273 C44.4242686,5.36264545 43.8349018,5.36600909 43.2414796,5.38148182 C22.0168389,5.92100909 4.81030126,20.2427 4.81030126,37.3696636 C4.81030126,48.6593727 12.287555,58.3486636 23.462545,63.4883 C9.84425101,58.3627909 0.351524874,46.8423364 0.351524874,33.4517 C0.351524874,15.2941182 17.8027309,0.574845455 39.3301656,0.574845455" id="Fill-2" fill="#0CB25D"></path>
                        <path d="M50.2008746,14.3170491 C28.7923947,15.5454491 11.664259,27.2879036 10.6497641,41.48514 C10.5686585,42.1948673 10.5274299,42.9113218 10.5274299,43.6324855 C10.5274299,51.6298673 15.5694902,58.7432855 23.6665254,63.7039764 C13.5161686,58.3383036 7.00001533,49.8242673 7.00001533,40.1026855 C7.00001533,24.1260855 24.5978872,10.6318491 47.0080204,8.81346727 L50.2008746,14.3170491 Z" id="Fill-4" fill="#0CB25D"></path>
                        <path d="M54.3751734,23.8792618 C33.4769824,24.48808 16.616495,36.0845527 16.616495,49.9346618 C16.616495,54.68008 18.5974975,59.0783709 22.041103,62.7998982 C16.4630704,58.3471164 13.1215226,52.6053891 13.1215226,46.2777164 C13.1215226,32.0017709 30.1205653,19.99628 51.4736231,18.8768618 L54.3751734,23.8792618 Z" id="Fill-6" fill="#0CB25D"></path>
                        <path d="M37.6687188,73.9120745 C36.6751761,73.9120745 35.6904198,73.8804564 34.7151259,73.8185655 L31.9879525,69.11822 C32.5746158,69.1242745 33.1639827,69.1209109 33.7574048,69.1061109 C54.9820455,68.5659109 72.1885832,54.24422 72.1885832,37.1172564 C72.1885832,25.8275473 64.7113294,16.1382564 53.5363394,10.99862 C67.1546334,16.1248018 76.6473595,27.6445836 76.6473595,41.03522 C76.6473595,59.1928018 59.1961535,73.9120745 37.6687188,73.9120745" id="Fill-8" fill="#FEFEFE"></path>
                        <path d="M26.7978746,60.1700727 C48.2063545,58.9416727 65.3344902,47.1992182 66.3489852,33.0019818 C66.4294148,32.2922545 66.4713193,31.5758 66.4713193,30.8539636 C66.4713193,22.8572545 61.429259,15.7438364 53.3322239,10.7824727 C63.4825807,16.1481455 69.9987339,24.6628545 69.9987339,34.3844364 C69.9987339,50.3610364 52.4008621,63.8552727 29.9907289,65.6736545 L26.7978746,60.1700727 Z" id="Fill-10" fill="#FEFEFE"></path>
                        <path d="M22.6235083,50.6079273 C43.5216992,49.9991091 60.3821867,38.4026364 60.3821867,24.5525273 C60.3821867,19.8071091 58.4011842,15.4088182 54.9575786,11.6872909 C60.5356113,16.1400727 63.877159,21.8811273 63.877159,28.2088 C63.877159,42.4854182 46.8781163,54.4909091 25.5250585,55.6103273 L22.6235083,50.6079273 Z" id="Fill-12" fill="#FEFEFE"></path>
                    </g>
                    <path d="M150.904269,55.8548636 L150.904269,36.6518636 C150.904269,35.3064091 150.778555,34.2683909 150.527804,33.5378091 C150.276377,32.8072273 149.89045,32.2784636 149.369347,31.9521909 C148.847568,31.6252455 148.181151,31.4328455 147.370095,31.3749909 C146.55904,31.3178091 145.593209,31.2888818 144.473276,31.2888818 C143.46892,31.2888818 142.580814,31.3077182 141.808284,31.3467364 C141.035754,31.3850818 140.378799,31.4234273 139.838095,31.4617727 C139.181817,31.5001182 138.621513,31.5384636 138.157859,31.5774818 L138.157859,55.8548636 L129.989181,55.8548636 L129.989181,27.5983 C131.109113,27.3675545 132.402746,27.1751545 133.870756,27.0217727 C135.10694,26.8677182 136.622937,26.7237545 138.418749,26.5885364 C140.215236,26.4546636 142.232736,26.3873909 144.473276,26.3873909 C146.867917,26.3873909 148.973281,26.4735 150.788018,26.6463909 C152.604106,26.8192818 154.120103,27.2518455 155.336686,27.9440818 C156.553269,28.6363182 157.460975,29.6642455 158.059128,31.0292091 C158.657957,32.3941727 158.957372,34.2683909 158.957372,36.6518636 L158.957372,55.8548636 L150.904269,55.8548636 Z M115.098882,41.4383182 C115.098882,38.9007909 115.041432,36.9498818 114.925181,35.5849182 C114.809606,34.2199545 114.539254,33.2209545 114.114126,32.5865727 C113.689673,31.9521909 113.032719,31.5774818 112.143937,31.4617727 C111.255832,31.3467364 110.058849,31.2888818 108.552314,31.2888818 L108.030535,31.2888818 C106.524676,31.2888818 105.327018,31.3467364 104.438912,31.4617727 C103.550131,31.5774818 102.893852,31.9521909 102.468724,32.5865727 C102.044271,33.2209545 101.77392,34.2199545 101.657668,35.5849182 C101.542093,36.9498818 101.483967,38.9007909 101.483967,41.4383182 L101.483967,41.9569909 C101.483967,44.3788091 101.522492,46.2537 101.599543,47.5796455 C101.677269,48.9062636 101.92802,49.8770091 102.353148,50.4918818 C102.777601,51.1067545 103.434555,51.4626273 104.322661,51.5588273 C105.211442,51.6550273 106.44695,51.7027909 108.030535,51.7027909 L108.552314,51.7027909 C110.135899,51.7027909 111.361945,51.6550273 112.231126,51.5588273 C113.100307,51.4626273 113.747123,51.1067545 114.172251,50.4918818 C114.596704,49.8770091 114.857593,48.9062636 114.954244,47.5796455 C115.050894,46.2537 115.098882,44.3788091 115.098882,41.9569909 L115.098882,41.4383182 Z M123.441937,41.7262455 C123.441937,44.9560091 123.306761,47.5413 123.03641,49.4827909 C122.766058,51.4242818 122.119241,52.9137 121.09596,53.9517182 C120.072003,54.9897364 118.556005,55.6819727 116.547291,56.0277545 C114.539254,56.3742091 111.777611,56.5471 108.262362,56.5471 C104.786314,56.5471 102.044271,56.3742091 100.035558,56.0277545 C98.0268442,55.6819727 96.5108467,54.9897364 95.4875653,53.9517182 C94.4642839,52.9137 93.8167915,51.4242818 93.5464397,49.4827909 C93.2760879,47.5413 93.1409121,44.9560091 93.1409121,41.7262455 C93.1409121,38.3814455 93.3146131,35.6999545 93.662691,33.6817727 C94.010093,31.6635909 94.7150352,30.1163182 95.7768417,29.0399545 C96.8393241,27.9635909 98.3654598,27.2518455 100.353897,26.9060636 C102.343686,26.5602818 104.979616,26.3873909 108.262362,26.3873909 C111.545784,26.3873909 114.191176,26.5602818 116.199889,26.9060636 C118.208603,27.2518455 119.743525,27.9635909 120.806008,29.0399545 C121.867814,30.1163182 122.572756,31.6635909 122.920834,33.6817727 C123.268236,35.6999545 123.441937,38.3814455 123.441937,41.7262455 Z" id="Fill-14" fill="#0CB25D"></path>
                    <path d="M259.710038,55.8548636 L252.294289,43.6293909 L244.877864,55.8548636 L236.187407,55.8548636 L245.283392,41.2075727 L236.535485,27.0789545 L245.225266,27.0789545 L252.409864,38.7857545 L259.593786,27.0789545 L268.110543,27.0789545 L259.36196,41.2075727 L268.574196,55.8548636 L259.710038,55.8548636 Z M223.325422,42.7070818 L215.735972,42.7070818 C214.61604,42.7070818 213.698196,42.7259182 212.983791,42.7642636 C212.269387,42.8032818 211.699621,42.9660818 211.274492,43.2546818 C210.85004,43.5432818 210.550626,43.9946818 210.376925,44.6095545 C210.203224,45.2251 210.116035,46.0902273 210.116035,47.2049364 C210.116035,48.4353545 210.241749,49.3771727 210.4925,50.0303909 C210.743927,50.6842818 211.129854,51.1551909 211.651633,51.4431182 C212.172736,51.7317182 212.858078,51.9046091 213.708334,51.9624636 C214.557915,52.0196455 215.562271,52.0485727 216.720729,52.0485727 C218.767967,52.0485727 220.370477,51.9913909 221.529611,51.8756818 C222.224415,51.8373364 222.823244,51.7794818 223.325422,51.7027909 L223.325422,42.7070818 Z M231.378525,55.3355182 C230.220068,55.6052818 228.887234,55.8165182 227.381374,55.9705727 C226.106666,56.1239545 224.561606,56.2585 222.746193,56.3742091 C220.930781,56.4892455 218.883543,56.5471 216.605153,56.5471 C214.634965,56.5471 212.762103,56.4986636 210.985216,56.4024636 C209.208329,56.3069364 207.634206,55.9705727 206.262847,55.3933727 C204.892163,54.8168455 203.800618,53.8938636 202.989563,52.6257727 C202.178508,51.3570091 201.77298,49.5500636 201.77298,47.2049364 C201.77298,45.0515364 202.052794,43.3892273 202.613098,42.2166636 C203.173402,41.0441 203.955394,40.1890636 204.959751,39.6502091 C205.964108,39.1120273 207.190153,38.7951727 208.638563,38.6989727 C210.086972,38.6027727 211.68002,38.5550091 213.418382,38.5550091 L223.325422,38.5550091 L223.325422,36.6518636 C223.325422,35.2673909 223.219309,34.2011182 223.007083,33.4510273 C222.794181,32.7016091 222.427178,32.1439182 221.906075,31.7793 C221.384296,31.4140091 220.679354,31.1832636 219.791249,31.0870636 C218.903143,30.9908636 217.802136,30.9431 216.488902,30.9431 C214.519389,30.9431 212.73304,30.9713545 211.129854,31.0292091 C209.527344,31.0870636 208.165447,31.1543364 207.045515,31.2310273 C205.69308,31.3467364 204.496098,31.4617727 203.453216,31.5774818 L203.453216,27.5983 C204.534623,27.3675545 205.789731,27.1751545 207.219216,27.0217727 C208.455399,26.8677182 209.922734,26.7237545 211.62257,26.5885364 C213.321731,26.4546636 215.253394,26.3873909 217.415533,26.3873909 C219.656073,26.3873909 221.645186,26.4735 223.383548,26.6463909 C225.121234,26.8192818 226.579781,27.2518455 227.757839,27.9440818 C228.935897,28.6363182 229.833465,29.6642455 230.451894,31.0292091 C231.069648,32.3941727 231.378525,34.2683909 231.378525,36.6518636 L231.378525,55.3355182 Z M187.520711,41.4383182 C187.520711,38.9007909 187.462585,36.9498818 187.34701,35.5849182 C187.230759,34.2199545 186.940807,33.2209545 186.477829,32.5865727 C186.014176,31.9521909 185.328834,31.5774818 184.420452,31.4617727 C183.513422,31.3467364 182.267776,31.2888818 180.684191,31.2888818 C179.679834,31.2888818 178.791053,31.3077182 178.019198,31.3467364 C177.246668,31.3850818 176.589714,31.4234273 176.04901,31.4617727 C175.392731,31.5001182 174.832427,31.5384636 174.368774,31.5774818 L174.368774,51.4148636 C174.832427,51.4915545 175.392731,51.5487364 176.04901,51.5877545 C176.589714,51.6261 177.246668,51.6550273 178.019198,51.6738636 C178.791053,51.6933727 179.679834,51.7027909 180.684191,51.7027909 C182.344827,51.7027909 183.628997,51.6550273 184.536704,51.5588273 C185.44441,51.4626273 186.120289,51.1067545 186.564342,50.4918818 C187.00907,49.8770091 187.278746,48.9062636 187.375397,47.5796455 C187.472048,46.2537 187.520711,44.3788091 187.520711,41.9569909 L187.520711,41.4383182 Z M195.86309,41.7262455 C195.86309,44.9560091 195.72859,47.5413 195.458239,49.4827909 C195.187211,51.4242818 194.550533,52.9137 193.546176,53.9517182 C192.541819,54.9897364 191.054884,55.6819727 189.084696,56.0277545 C187.115183,56.3742091 184.43059,56.5471 181.031593,56.5471 C178.907304,56.5471 177.265593,56.4892455 176.107136,56.3742091 C175.411656,56.3351909 174.832427,56.2780091 174.368774,56.2006455 L174.368774,68.9454636 L166.19942,68.9454636 L166.19942,27.5983 C167.358553,27.3675545 168.690711,27.1751545 170.197246,27.0217727 C171.471955,26.8677182 173.017015,26.7237545 174.832427,26.5885364 C176.647839,26.4546636 178.714003,26.3873909 181.031593,26.3873909 C184.237289,26.3873909 186.815769,26.5602818 188.766357,26.9060636 C190.716945,27.2518455 192.213342,27.9635909 193.256224,29.0399545 C194.299106,30.1163182 194.994585,31.6635909 195.341987,33.6817727 C195.689389,35.6999545 195.86309,38.3814455 195.86309,41.7262455 Z" id="Fill-16" fill="#FEFEFE"></path>
                </g>
            </g>
        </g>
    </g>
</svg>