<svg id="Group" xmlns="http://www.w3.org/2000/svg" width="198.333" height="190.643" viewBox="0 0 198.333 190.643">
  <path id="Fill-2" d="M101.678.575q3.874,0,7.678.243l7.088,12.22q-2.285-.026-4.6.031c-55.174,1.4-99.9,38.632-99.9,83.154,0,29.348,19.437,54.536,48.487,67.9C25.028,150.8.352,120.849.352,86.039.352,38.838,45.716.575,101.678.575" transform="translate(-0.352 -0.575)" fill="#29afa3" fill-rule="evenodd"/>
  <path id="Fill-4" d="M119.3,23.12C63.65,26.313,19.125,56.838,16.488,93.744a49.155,49.155,0,0,0-.318,5.582c0,20.789,13.107,39.281,34.156,52.177C23.939,137.555,7,115.422,7,90.151,7,48.619,52.746,13.54,111,8.813Z" transform="translate(10.283 12.603)" fill="#29afa3" fill-rule="evenodd"/>
  <path id="Fill-6" d="M120.362,31.881C66.036,33.463,22.207,63.609,22.207,99.613c0,12.336,5.15,23.769,14.1,33.444-14.5-11.575-23.187-26.5-23.187-42.95,0-37.111,44.19-68.319,99.7-71.229Z" transform="translate(20.074 28.7)" fill="#29afa3" fill-rule="evenodd"/>
  <path id="Fill-8" d="M46.755,174.544q-3.874,0-7.678-.243l-7.089-12.219q2.287.024,4.6-.031c55.174-1.4,99.9-38.634,99.9-83.156,0-29.348-19.437-54.536-48.487-67.9,35.4,13.326,60.078,43.272,60.078,78.081,0,47.2-45.365,85.465-101.326,85.465" transform="translate(50.252 16.098)" fill="#fff" fill-rule="evenodd"/>
  <path id="Fill-10" d="M26.8,139.167c55.652-3.193,100.177-33.718,102.814-70.624a49.588,49.588,0,0,0,.318-5.584c0-20.788-13.107-39.279-34.155-52.176C122.161,24.731,139.1,46.865,139.1,72.136c0,41.532-45.746,76.611-104,81.338Z" transform="translate(41.95 15.753)" fill="#fff" fill-rule="evenodd"/>
  <path id="Fill-12" d="M22.623,112.863c54.326-1.583,98.155-31.728,98.155-67.732,0-12.336-5.15-23.769-14.1-33.443,14.5,11.575,23.187,26.5,23.187,42.948,0,37.112-44.19,68.321-99.7,71.231Z" transform="translate(35.273 17.2)" fill="#fff" fill-rule="evenodd"/>
</svg>
