<svg xmlns="http://www.w3.org/2000/svg" width="132.854" height="36.324" viewBox="0 0 132.854 36.324">
  <g id="logo_onpax_SVG" transform="translate(0 0)">
    <g id="logo" transform="translate(0 0)">
      <g id="Page-1-Copy" transform="translate(0 0)">
        <g id="Group-18">
          <g id="Group">
            <path id="Fill-2" d="M19.658.575q.738,0,1.463.046l1.35,2.328q-.435,0-.876.006C11.083,3.223,2.56,10.317,2.56,18.8c0,5.592,3.7,10.391,9.239,12.937C5.053,29.2.352,23.492.352,16.859.352,7.865,9,.575,19.658.575" transform="translate(-0.352 -0.575)" fill="#29afa3" fill-rule="evenodd"/>
            <path id="Fill-4" d="M28.4,11.539C17.794,12.148,9.31,17.964,8.808,25a9.366,9.366,0,0,0-.061,1.064c0,3.961,2.5,7.485,6.508,9.942C10.228,33.344,7,29.127,7,24.311c0-7.913,8.716-14.6,19.816-15.5Z" transform="translate(-3.707 -4.733)" fill="#29afa3" fill-rule="evenodd"/>
            <path id="Fill-6" d="M33.555,21.355c-10.351.3-18.7,6.045-18.7,12.906a9.341,9.341,0,0,0,2.687,6.372c-2.763-2.206-4.418-5.049-4.418-8.184,0-7.071,8.42-13.017,19-13.572Z" transform="translate(-6.796 -9.812)" fill="#29afa3" fill-rule="evenodd"/>
            <path id="Fill-8" d="M34.8,42.16q-.738,0-1.463-.046l-1.351-2.328q.436,0,.876-.006C43.377,39.512,51.9,32.419,51.9,23.935c0-5.592-3.7-10.391-9.239-12.937,6.745,2.539,11.447,8.245,11.447,14.877,0,8.994-8.644,16.284-19.307,16.284" transform="translate(-16.318 -5.836)" fill="#002067" fill-rule="evenodd"/>
            <path id="Fill-10" d="M26.8,35.245c10.6-.608,19.088-6.425,19.59-13.457a9.447,9.447,0,0,0,.061-1.064c0-3.961-2.5-7.484-6.508-9.942,5.028,2.658,8.255,6.875,8.255,11.69,0,7.913-8.716,14.6-19.816,15.5Z" transform="translate(-13.699 -5.727)" fill="#002067" fill-rule="evenodd"/>
            <path id="Fill-12" d="M22.624,30.965c10.351-.3,18.7-6.045,18.7-12.906a9.341,9.341,0,0,0-2.687-6.372c2.763,2.206,4.418,5.049,4.418,8.183,0,7.071-8.42,13.018-19,13.572Z" transform="translate(-11.592 -6.183)" fill="#002067" fill-rule="evenodd"/>
          </g>
          <path id="Fill-14" d="M121.752,40.983V31.472a4.966,4.966,0,0,0-.186-1.542,1.434,1.434,0,0,0-.574-.785,2.128,2.128,0,0,0-.99-.286q-.6-.042-1.435-.043-.746,0-1.32.029t-.976.057q-.487.028-.832.057V40.983h-4.046v-14q.832-.171,1.923-.286.918-.114,2.253-.215t3-.1q1.779,0,3.128.128a5.6,5.6,0,0,1,2.253.643,3.16,3.16,0,0,1,1.348,1.528,7.086,7.086,0,0,1,.445,2.785v9.511Zm-17.735-7.141q0-1.885-.086-2.9a3.225,3.225,0,0,0-.4-1.485,1.308,1.308,0,0,0-.976-.557,14.527,14.527,0,0,0-1.779-.086h-.258a14.532,14.532,0,0,0-1.779.086,1.309,1.309,0,0,0-.976.557,3.231,3.231,0,0,0-.4,1.485q-.086,1.014-.086,2.9V34.1q0,1.8.057,2.785a2.885,2.885,0,0,0,.373,1.442,1.285,1.285,0,0,0,.976.528,18.116,18.116,0,0,0,1.837.071h.258a17.672,17.672,0,0,0,1.822-.071,1.271,1.271,0,0,0,.961-.528,2.97,2.97,0,0,0,.387-1.442q.072-.985.072-2.785Zm4.132.143a29.063,29.063,0,0,1-.2,3.842,3.8,3.8,0,0,1-.961,2.213,4.039,4.039,0,0,1-2.253,1.028,25.434,25.434,0,0,1-4.1.257,25.2,25.2,0,0,1-4.074-.257A4.037,4.037,0,0,1,94.3,40.04a3.805,3.805,0,0,1-.961-2.213,29.129,29.129,0,0,1-.2-3.842A24.445,24.445,0,0,1,93.4,30a4.2,4.2,0,0,1,1.047-2.3,4.071,4.071,0,0,1,2.267-1.057,23.83,23.83,0,0,1,3.917-.257,24.1,24.1,0,0,1,3.932.257,4.083,4.083,0,0,1,2.281,1.057,4.2,4.2,0,0,1,1.048,2.3A24.514,24.514,0,0,1,108.149,33.985Z" transform="translate(-47.181 -13.602)" fill="#002067" fill-rule="evenodd"/>
          <path id="Fill-16" d="M212.516,40.983l-3.673-6.055-3.673,6.055h-4.3l4.505-7.255-4.333-7h4.3l3.559,5.8,3.558-5.8h4.219l-4.333,7,4.563,7.255Zm-18.022-6.512h-3.759q-.832,0-1.363.028a1.652,1.652,0,0,0-.847.243,1.154,1.154,0,0,0-.444.671,4.96,4.96,0,0,0-.129,1.285,4.088,4.088,0,0,0,.186,1.4,1.29,1.29,0,0,0,.575.7,2.448,2.448,0,0,0,1.018.257q.631.042,1.492.043,1.521,0,2.382-.086.516-.029.889-.086Zm3.989,6.255a16,16,0,0,1-1.98.315q-.947.114-2.3.2t-3.042.086q-1.464,0-2.784-.072a6.963,6.963,0,0,1-2.339-.5,3.492,3.492,0,0,1-1.621-1.371,4.991,4.991,0,0,1-.6-2.685,5.876,5.876,0,0,1,.416-2.471,2.708,2.708,0,0,1,1.162-1.271,4.454,4.454,0,0,1,1.822-.471q1.076-.071,2.367-.071h4.907v-.943a6.141,6.141,0,0,0-.158-1.585,1.45,1.45,0,0,0-.545-.828,2.229,2.229,0,0,0-1.048-.343,15.6,15.6,0,0,0-1.636-.071q-1.464,0-2.654.043t-2.023.1q-1.005.086-1.78.172V26.987a18.524,18.524,0,0,1,1.865-.286q.918-.114,2.181-.215t2.869-.1q1.664,0,2.956.128a5.272,5.272,0,0,1,2.167.643,3.285,3.285,0,0,1,1.334,1.528,6.89,6.89,0,0,1,.459,2.785ZM176.76,33.842q0-1.885-.086-2.9a2.987,2.987,0,0,0-.43-1.485,1.418,1.418,0,0,0-1.019-.557,15.516,15.516,0,0,0-1.85-.086q-.746,0-1.32.029t-.976.057q-.487.028-.832.057v9.826a8.187,8.187,0,0,0,.832.086q.4.028.976.043t1.32.014q1.234,0,1.908-.071a1.343,1.343,0,0,0,1-.528,2.852,2.852,0,0,0,.4-1.442q.072-.985.072-2.785Zm4.132.143a29.069,29.069,0,0,1-.2,3.842,3.857,3.857,0,0,1-.947,2.213,3.929,3.929,0,0,1-2.21,1.028,24.191,24.191,0,0,1-3.989.257q-1.579,0-2.439-.086a8.149,8.149,0,0,1-.861-.086v6.313H166.2V26.987q.862-.171,1.98-.286.947-.114,2.3-.215t3.071-.1a22.837,22.837,0,0,1,3.831.257A3.963,3.963,0,0,1,179.6,27.7a4.254,4.254,0,0,1,1.033,2.3A24.515,24.515,0,0,1,180.892,33.985Z" transform="translate(-84.053 -13.602)" fill="#002067" fill-rule="evenodd"/>
        </g>
      </g>
    </g>
  </g>
</svg>
