<svg xmlns="http://www.w3.org/2000/svg" viewBox="0 0 34.125 29.795"><defs><style>.a{fill:#838296;}</style></defs><g transform="translate(0 -31.05)"><g transform="translate(0 31.05)"><path class="a" d="M255.138,263.75H250.5a2.3,2.3,0,0,0-2.3,2.3v3.556a2.3,2.3,0,0,0,2.3,2.3h4.637a2.3,2.3,0,0,0,2.3-2.3v-3.556A2.3,2.3,0,0,0,255.138,263.75Zm.628,5.857a.629.629,0,0,1-.628.628H250.5a.629.629,0,0,1-.628-.628v-3.556a.629.629,0,0,1,.628-.628h4.637a.629.629,0,0,1,.628.628Z" transform="translate(-230.894 -247.524)"/><path class="a" d="M34.125,40.812a.777.777,0,0,0-.112-.411l-5.076-8.925a.841.841,0,0,0-.725-.425H5.906a.827.827,0,0,0-.725.425L.112,40.4A.846.846,0,0,0,0,40.812a4.895,4.895,0,0,0,2.929,4.477v14.72a.839.839,0,0,0,.837.837H30.352a.839.839,0,0,0,.837-.837V45.393a.368.368,0,0,0-.007-.091A4.908,4.908,0,0,0,34.125,40.812ZM6.394,32.73h21.33l3.968,6.98H2.433Zm17.892,8.646a3.216,3.216,0,0,1-6.331,0Zm-8.109,0a3.22,3.22,0,0,1-6.338,0Zm-14.448,0H8.067a3.22,3.22,0,0,1-6.338,0ZM14.057,59.171H9.246v-9.03a1.192,1.192,0,0,1,1.192-1.192h2.433a1.192,1.192,0,0,1,1.192,1.192v9.03Zm15.459,0H15.731v-9.03a2.87,2.87,0,0,0-2.866-2.866H10.431a2.87,2.87,0,0,0-2.866,2.866v9.037H4.6V45.7c.1.007.2.007.293.007a4.889,4.889,0,0,0,4.058-2.162,4.89,4.89,0,0,0,8.116,0,4.877,4.877,0,0,0,8.1,0,4.889,4.889,0,0,0,4.058,2.162c.1,0,.188-.007.286-.007V59.171ZM29.23,44.033a3.214,3.214,0,0,1-3.166-2.65H32.4A3.234,3.234,0,0,1,29.23,44.033Z" transform="translate(0 -31.05)"/></g></g></svg>
