<svg id="Group_11075" data-name="Group 11075" xmlns="http://www.w3.org/2000/svg" viewBox="0 0 32 32">
  <defs>
    <style>
      .cls-1 {
        fill: #838296;
      }
    </style>
  </defs>
  <path id="Path_2042" data-name="Path 2042" class="cls-1" d="M254.4,263.75h-4.144a2.059,2.059,0,0,0-2.057,2.057v3.178a2.059,2.059,0,0,0,2.057,2.057H254.4a2.059,2.059,0,0,0,2.057-2.057v-3.178A2.059,2.059,0,0,0,254.4,263.75Zm.561,5.235a.563.563,0,0,1-.561.561h-4.144a.562.562,0,0,1-.561-.561v-3.178a.563.563,0,0,1,.561-.561H254.4a.563.563,0,0,1,.561.561Z" transform="translate(-231.689 -245.221)"/>
  <path id="Path_2043" data-name="Path 2043" class="cls-1" d="M32,41.534a.928.928,0,0,0-.1-.442l-4.76-9.586a.779.779,0,0,0-.68-.457H5.538a.765.765,0,0,0-.68.457L.1,41.093a1.012,1.012,0,0,0-.1.442,5.329,5.329,0,0,0,2.746,4.808V62.151a.85.85,0,0,0,.785.9H28.463a.85.85,0,0,0,.785-.9v-15.7a.451.451,0,0,0-.007-.1A5.343,5.343,0,0,0,32,41.534ZM6,32.855H26l3.72,7.5H2.282Zm16.778,9.286a3.162,3.162,0,0,1-2.969,2.846,3.162,3.162,0,0,1-2.969-2.846Zm-7.6,0A3.162,3.162,0,0,1,12.2,44.987a3.174,3.174,0,0,1-2.975-2.846Zm-13.548,0H7.565A3.168,3.168,0,0,1,4.59,44.987,3.156,3.156,0,0,1,1.622,42.141Zm11.56,19.112H8.67v-9.7a1.207,1.207,0,0,1,1.118-1.281H12.07a1.207,1.207,0,0,1,1.118,1.281v9.7Zm14.5,0H14.751v-9.7a2.907,2.907,0,0,0-2.687-3.078H9.782a2.907,2.907,0,0,0-2.687,3.078V61.26H4.315V46.784c.092.007.183.007.275.007A4.462,4.462,0,0,0,8.4,44.47,4.462,4.462,0,0,0,12.2,46.792a4.47,4.47,0,0,0,3.805-2.322,4.46,4.46,0,0,0,3.8,2.322,4.452,4.452,0,0,0,3.8-2.322,4.462,4.462,0,0,0,3.805,2.322c.092,0,.177-.007.268-.007V61.253ZM27.41,44.994a3.162,3.162,0,0,1-2.969-2.846h5.944A3.18,3.18,0,0,1,27.41,44.994Z" transform="translate(0 -31.05)"/>
</svg>
