<svg xmlns="http://www.w3.org/2000/svg" width="15.971" height="16" viewBox="0 0 15.971 16"><path d="M6096.03,7071h-6.873a1.019,1.019,0,0,1-.971-1.059v-6.2a2.1,2.1,0,0,1-1.024-2.259l.014-.082.024-.14q.249-1.461.5-2.921h-.068a.6.6,0,0,1-.49-.245.788.788,0,0,1-.122-.616l.326-1.716a.894.894,0,0,1,.795-.763h13.7a.9.9,0,0,1,.8.763l.326,1.716a.789.789,0,0,1-.124.616.6.6,0,0,1-.49.245h-.067l.534,3.145a2.1,2.1,0,0,1-1.024,2.259v6.2a1.019,1.019,0,0,1-.971,1.059h-.792v-5h-3.993v5Zm-5.213-5.9a.391.391,0,0,0-.373.406v1.184a.392.392,0,0,0,.373.408h3.208a.392.392,0,0,0,.373-.408v-1.184a.391.391,0,0,0-.373-.406Zm8.291-6.761q.149,1.583.3,3.164a1.222,1.222,0,0,0,1.189,1.086h.007a.89.89,0,0,0,.7-.341.855.855,0,0,0,.163-.68l-.482-3.229Zm-3.368,0,.043,3.185a1.089,1.089,0,0,0,1.079,1.065.994.994,0,0,0,.751-.348.943.943,0,0,0,.224-.694l0-.062q-.109-1.573-.216-3.146Zm-3.364,0-.1,1.4-.123,1.812a.95.95,0,0,0,.222.694.992.992,0,0,0,.749.348,1.092,1.092,0,0,0,1.083-1.065q.017-1.284.032-2.569l.007-.616Zm-3.381,0-.484,3.228a.864.864,0,0,0,.163.68.891.891,0,0,0,.7.342h.026a1.216,1.216,0,0,0,1.184-1.088l.3-3.162Z" transform="translate(-6087 -7055)" fill="#f7f7f7"/></svg>