<svg xmlns="http://www.w3.org/2000/svg" viewBox="0 0 16.352 16.019"><defs><style>.a{fill:#f7f7f7;}</style></defs><g transform="translate(0 0)"><g transform="translate(0 0)"><circle class="a" cx="1.982" cy="1.982" r="1.982" transform="translate(3.81 12.045)"/><path class="a" d="M266.8,324.186h0a2,2,0,1,0,1.8,1.8A2,2,0,0,0,266.8,324.186Z" transform="translate(-254.661 -312.16)"/><path class="a" d="M16.22,8.912a.52.52,0,0,0-.443-.231H13.584V8.642a4.214,4.214,0,1,0-8.428,0h0v.038H3.521l-.558-2.54A.577.577,0,0,0,2.405,5.7H0V6.853H1.943l1.789,8.216a.558.558,0,0,0,.558.462H14.354a.577.577,0,0,0,.558-.443l1.424-5.7A.539.539,0,0,0,16.22,8.912ZM9.371,11.7A3.059,3.059,0,1,1,12.43,8.642,3.059,3.059,0,0,1,9.371,11.7Z" transform="translate(0 -4.428)"/><path class="a" d="M188.766,69.317l-1.058-1.078-.827.808,1.462,1.482a.577.577,0,0,0,.4.173.539.539,0,0,0,.4-.154l2.424-2.29-.789-.847Z" transform="translate(-179.857 -65.045)"/></g></g></svg>