<svg xmlns="http://www.w3.org/2000/svg" width="26" height="26" viewBox="0 0 26 26"><defs><style>.a{fill:#29afa3;}.b{fill:#113269;}.c{fill:#fff;}</style></defs><g transform="translate(-629 -749)"><circle class="a" cx="13" cy="13" r="13" transform="translate(629 749)"/><g transform="translate(-132.215 138.243) rotate(-11)"><rect class="b" width="5.431" height="2.715" transform="translate(638.72 754.61)"/><g transform="translate(636.175 751.894)"><g transform="translate(0)"><path class="c" d="M113,0V13.74h1.12v4.176h7.768V13.74h1.12V0Zm2.986,16.866h-.816V13.74h.816Zm1.866,0h-.817V13.74h.817Zm2.986,0H118.9V13.74h1.936Zm1.12-4.176H114.05V1.05h7.908Z" transform="translate(-113)"/></g><g transform="translate(1.68 2.088)"><path class="c" d="M161,59.667v3.825h6.3V59.667Zm5.307,2.83h-4.312V60.662h4.312Z" transform="translate(-161 -59.667)"/></g><g transform="translate(1.929 7.241)"><rect class="c" width="1.143" height="1.143"/></g><g transform="translate(6.474 7.241)"><rect class="c" width="1.143" height="1.143"/></g><g transform="translate(4.202 7.241)"><rect class="c" width="1.143" height="1.143"/></g><g transform="translate(1.929 9.603)"><rect class="c" width="1.143" height="1.143"/></g><g transform="translate(6.474 9.603)"><rect class="c" width="1.143" height="1.143"/></g><g transform="translate(4.202 9.603)"><rect class="c" width="1.143" height="1.143"/></g></g><g transform="translate(636.051 750.884)"><path class="c" d="M104.1,0H97.429A1.5,1.5,0,0,0,96,1.554v13.47a1.5,1.5,0,0,0,1.429,1.554H104.1a1.5,1.5,0,0,0,1.429-1.554V1.554A1.5,1.5,0,0,0,104.1,0Zm-5.24.777,3.811.518Zm1.906,14.766a1,1,0,0,1-.953-1.036c0-.572,1.906-.572,1.906,0A1,1,0,0,1,100.764,15.543Zm3.811-3.109H96.953V2.072h7.622Z" transform="translate(-96 0)"/></g></g></g></svg>