<svg xmlns="http://www.w3.org/2000/svg" width="26" height="26" viewBox="0 0 26 26"><defs><style>.a{fill:#0cb15d;}.b{fill:#fff;}</style></defs><g transform="translate(47 6203)"><g transform="translate(-676 -6952)"><circle class="a" cx="13" cy="13" r="13" transform="translate(629 749)"/></g><g transform="translate(-37.623 -6201.131) rotate(20)"><path class="b" d="M9.887,1.579h-1.1V.549A.549.549,0,0,0,8.239,0H2.93A.549.549,0,0,0,2.38.549v1.03h-1.1A1.281,1.281,0,0,0,0,2.861V15.83a1.281,1.281,0,0,0,1.282,1.282H9.887a1.281,1.281,0,0,0,1.282-1.282V2.861A1.282,1.282,0,0,0,9.887,1.579ZM7.049,2.861V1.1H7.69V4.073H7.049Zm-3.57,0V1.1H5.493V4.073H3.479V2.861Zm.336,12.747a.549.549,0,0,1-.549.549H2.38a.549.549,0,0,1-.549-.549v-.945a.549.549,0,0,1,.549-.549h.885a.549.549,0,0,1,.549.549v.945Zm0-2.762a.549.549,0,0,1-.549.549H2.38a.549.549,0,0,1-.549-.549V11.9a.549.549,0,0,1,.549-.549h.885a.549.549,0,0,1,.549.549v.945Zm0-2.761a.549.549,0,0,1-.549.549H2.38a.549.549,0,0,1-.549-.549V9.139A.549.549,0,0,1,2.38,8.59h.885a.549.549,0,0,1,.549.549v.946Zm2.762,5.523a.549.549,0,0,1-.549.549H5.142a.549.549,0,0,1-.549-.549v-.945a.549.549,0,0,1,.549-.549h.885a.549.549,0,0,1,.549.549Zm0-2.762a.549.549,0,0,1-.549.549H5.142a.549.549,0,0,1-.549-.549V11.9a.549.549,0,0,1,.549-.549h.885a.549.549,0,0,1,.549.549Zm0-2.761a.549.549,0,0,1-.549.549H5.142a.549.549,0,0,1-.549-.549V9.139a.549.549,0,0,1,.549-.549h.885a.549.549,0,0,1,.549.549Zm2.761,5.523a.549.549,0,0,1-.549.549H7.9a.549.549,0,0,1-.549-.549v-.945a.549.549,0,0,1,.549-.549h.885a.549.549,0,0,1,.549.549Zm0-2.762a.549.549,0,0,1-.549.549H7.9a.549.549,0,0,1-.549-.549V11.9a.549.549,0,0,1,.549-.549h.885a.549.549,0,0,1,.549.549Zm0-2.761a.549.549,0,0,1-.549.549H7.9a.549.549,0,0,1-.549-.549V9.139A.549.549,0,0,1,7.9,8.59h.885a.549.549,0,0,1,.549.549Zm0-3.207a.938.938,0,0,1-.939.938H2.769a.938.938,0,0,1-.938-.938V5.908a.938.938,0,0,1,.938-.939H8.4a.939.939,0,0,1,.939.939v.969Z" transform="matrix(0.799, -0.602, 0.602, 0.799, -2.704, 5.621)"/></g></g></svg>