<svg xmlns="http://www.w3.org/2000/svg" viewBox="0 0 14.033 16.006"><defs><style>.a{fill:#f7f7f7;}</style></defs><g transform="translate(0)"><path class="a" d="M43.817,0h-2.74a.2.2,0,0,0-.2.2V1.762a.2.2,0,0,0,.2.2h1.957a.586.586,0,0,1,.586.586v7.576a.586.586,0,0,1-.586.586H34.087a.586.586,0,0,1-.586-.586V2.542a.586.586,0,0,1,.586-.586h1.957a.2.2,0,0,0,.2-.2V.2a.2.2,0,0,0-.2-.2H33.3a1.76,1.76,0,0,0-1.76,1.76v9.925a.2.2,0,0,0,.2.2H45.381a.2.2,0,0,0,.2-.2V1.76A1.76,1.76,0,0,0,43.817,0Z" transform="translate(-31.544)"/></g><g transform="translate(3.128 3.128)"><g transform="translate(0)"><path class="a" d="M139.193,100.062h-7.386a.2.2,0,0,0-.2.2v6.015a.2.2,0,0,0,.2.2h7.386a.2.2,0,0,0,.2-.2v-6.015A.2.2,0,0,0,139.193,100.062Zm-5.157,1.956h-.468v.468a.586.586,0,1,1-1.171,0v-1.054a.586.586,0,0,1,.586-.586h1.054a.586.586,0,0,1,0,1.171Z" transform="translate(-131.612 -100.062)"/></g></g><g transform="translate(5.866)"><g transform="translate(0)"><path class="a" d="M221.315,0h-1.91a.2.2,0,0,0-.2.2V1.762a.2.2,0,0,0,.2.2h1.91a.2.2,0,0,0,.2-.2V.2A.2.2,0,0,0,221.315,0Z" transform="translate(-219.21)"/></g></g><g transform="translate(0 13.051)"><g transform="translate(0)"><path class="a" d="M45.381,417.521H31.739a.2.2,0,0,0-.2.2v2.173a.586.586,0,0,0,.586.586H44.991a.586.586,0,0,0,.586-.586v-2.173A.2.2,0,0,0,45.381,417.521Zm-5.045,2.062H36.784a.586.586,0,1,1,0-1.171h3.552a.586.586,0,1,1,0,1.171Z" transform="translate(-31.544 -417.521)"/></g></g></svg>