<svg xmlns="http://www.w3.org/2000/svg" viewBox="0 0 18.773 24.062"><defs><style>.a{fill:#838296;}</style></defs><g transform="translate(-59.859)"><g transform="translate(67.634 4.421)"><g transform="translate(0)"><path class="a" d="M224.349,94.063h-1.637a.377.377,0,1,0,0,.754h1.637a.377.377,0,1,0,0-.754Z" transform="translate(-222.328 -94.063)"/></g></g><g transform="translate(63.542 4.421)"><g transform="translate(0)"><path class="a" d="M139.657,94.063H137.2a.377.377,0,1,0,0,.754h2.455a.377.377,0,1,0,0-.754Z" transform="translate(-136.818 -94.063)"/></g></g><g transform="translate(68.453 2.813)"><g transform="translate(0)"><path class="a" d="M240.632,59.858h-.819a.377.377,0,1,0,0,.754h.819a.377.377,0,1,0,0-.754Z" transform="translate(-239.43 -59.858)"/></g></g><g transform="translate(65.997 2.813)"><path class="a" d="M189.331,59.858h-.818a.377.377,0,1,0,0,.754h.818a.377.377,0,1,0,0-.754Z" transform="translate(-188.129 -59.858)"/></g><g transform="translate(63.542 2.813)"><path class="a" d="M138.021,59.858H137.2a.377.377,0,1,0,0,.754h.818a.377.377,0,1,0,0-.754Z" transform="translate(-136.819 -59.858)"/></g><g transform="translate(59.859 0)"><g transform="translate(0)"><path class="a" d="M77.839,10.448H73.721V5.2A2,2,0,0,0,71.7,3.215h-.026V.377a.375.375,0,0,0-.164-.309.389.389,0,0,0-.351-.045l-.994.355L69.172.023a.391.391,0,0,0-.262,0l-.994.355L66.921.023a.391.391,0,0,0-.262,0l-.994.355L64.671.023a.391.391,0,0,0-.262,0l-.994.355L62.42.023a.39.39,0,0,0-.351.045.375.375,0,0,0-.164.309V3.215H61.88A2,2,0,0,0,59.859,5.2V22.077a2,2,0,0,0,2.021,1.984H71.7a2.014,2.014,0,0,0,1.984-1.607h4.155a.787.787,0,0,0,.793-.779V11.227A.787.787,0,0,0,77.839,10.448ZM62.672.915l.611.218a.391.391,0,0,0,.262,0l.994-.355.994.355a.391.391,0,0,0,.262,0L66.79.778l.994.355a.39.39,0,0,0,.262,0l.994-.355.994.355a.391.391,0,0,0,.262,0l.611-.218V6.028H62.672ZM72.954,22.077A1.244,1.244,0,0,1,71.7,23.308H61.879a1.244,1.244,0,0,1-1.253-1.231V5.2a1.244,1.244,0,0,1,1.253-1.231h.026v2.06h-.026a.377.377,0,1,0,0,.754H71.7a.377.377,0,1,0,0-.754h-.026V3.968H71.7A1.244,1.244,0,0,1,72.954,5.2Zm1.637-.377h-.87V11.2h.87Zm3.274-.025a.025.025,0,0,1-.026.025H77V14.04a.384.384,0,0,0-.767,0V21.7h-.87V11.2h.87v1.231a.384.384,0,0,0,.767,0V11.2h.844a.025.025,0,0,1,.026.025Z" transform="translate(-59.859 0)"/></g></g><g transform="translate(65.383 13.663)"><g transform="translate(0)"><path class="a" d="M176.91,290.739H176.5a1.181,1.181,0,1,0,0,2.361h.409a1.181,1.181,0,1,0,0-2.361Zm0,1.607H176.5a.427.427,0,1,1,0-.854h.409a.427.427,0,1,1,0,.854Z" transform="translate(-175.299 -290.739)"/></g></g><g transform="translate(65.383 16.878)"><g transform="translate(0)"><path class="a" d="M176.91,359.148H176.5a1.181,1.181,0,1,0,0,2.361h.409a1.181,1.181,0,1,0,0-2.361Zm0,1.607H176.5a.427.427,0,1,1,0-.854h.409a.427.427,0,1,1,0,.854Z" transform="translate(-175.299 -359.148)"/></g></g><g transform="translate(65.383 20.093)"><g transform="translate(0)"><path class="a" d="M176.91,427.558H176.5a1.181,1.181,0,1,0,0,2.361h.409a1.181,1.181,0,1,0,0-2.361Zm0,1.607H176.5a.427.427,0,1,1,0-.854h.409a.427.427,0,1,1,0,.854Z" transform="translate(-175.299 -427.558)"/></g></g><g transform="translate(69.066 13.663)"><g transform="translate(0)"><path class="a" d="M253.87,290.739h-.409a1.181,1.181,0,1,0,0,2.361h.409a1.181,1.181,0,1,0,0-2.361Zm0,1.607h-.409a.427.427,0,1,1,0-.854h.409a.427.427,0,1,1,0,.854Z" transform="translate(-252.259 -290.739)"/></g></g><g transform="translate(69.066 16.878)"><g transform="translate(0)"><path class="a" d="M253.87,359.148h-.409a1.181,1.181,0,1,0,0,2.361h.409a1.181,1.181,0,1,0,0-2.361Zm0,1.607h-.409a.427.427,0,1,1,0-.854h.409a.427.427,0,1,1,0,.854Z" transform="translate(-252.259 -359.148)"/></g></g><g transform="translate(69.066 20.093)"><g transform="translate(0)"><path class="a" d="M253.87,427.558h-.409a1.181,1.181,0,1,0,0,2.361h.409a1.181,1.181,0,1,0,0-2.361Zm0,1.607h-.409a.427.427,0,1,1,0-.854h.409a.427.427,0,1,1,0,.854Z" transform="translate(-252.259 -427.558)"/></g></g><g transform="translate(61.7 13.663)"><g transform="translate(0)"><path class="a" d="M99.949,290.739H99.54a1.181,1.181,0,1,0,0,2.361h.409a1.181,1.181,0,1,0,0-2.361Zm0,1.607H99.54a.427.427,0,1,1,0-.854h.409a.427.427,0,1,1,0,.854Z" transform="translate(-98.338 -290.739)"/></g></g><g transform="translate(61.7 16.878)"><g transform="translate(0)"><path class="a" d="M99.949,359.148H99.54a1.181,1.181,0,1,0,0,2.361h.409a1.181,1.181,0,1,0,0-2.361Zm0,1.607H99.54a.427.427,0,1,1,0-.854h.409a.427.427,0,1,1,0,.854Z" transform="translate(-98.338 -359.148)"/></g></g><g transform="translate(61.7 20.093)"><g transform="translate(0)"><path class="a" d="M99.949,427.558H99.54a1.181,1.181,0,1,0,0,2.361h.409a1.181,1.181,0,1,0,0-2.361Zm0,1.607H99.54a.427.427,0,1,1,0-.854h.409a.427.427,0,1,1,0,.854Z" transform="translate(-98.338 -427.558)"/></g></g><g transform="translate(61.496 7.635)"><g transform="translate(0)"><path class="a" d="M103.859,162.472h-9a.787.787,0,0,0-.793.779v3.617a.787.787,0,0,0,.793.779h9a.787.787,0,0,0,.793-.779v-3.617A.787.787,0,0,0,103.859,162.472Zm.026,4.4a.025.025,0,0,1-.026.025h-9a.025.025,0,0,1-.026-.025v-3.617a.025.025,0,0,1,.026-.025h9a.025.025,0,0,1,.026.025Z" transform="translate(-94.063 -162.472)"/></g></g></g></svg>