<svg xmlns="http://www.w3.org/2000/svg" viewBox="0 0 32 32"><defs><style>.a{fill:#838296;}</style></defs><g transform="translate(-0.004)"><path class="a" d="M28.805,15.265V4.8a2.67,2.67,0,0,0-2.667-2.667h-.533V1.6a1.6,1.6,0,0,0-3.2,0v.533H6.4V1.6a1.6,1.6,0,1,0-3.2,0v.533H2.671A2.67,2.67,0,0,0,0,4.8V25.6a2.67,2.67,0,0,0,2.667,2.666H14.823a9.587,9.587,0,1,0,13.983-13ZM23.472,1.6a.533.533,0,0,1,1.067,0V4.267a.533.533,0,0,1-1.067,0Zm-19.2,0a.533.533,0,1,1,1.067,0V4.267a.533.533,0,1,1-1.067,0Zm-1.6,1.6H3.2V4.267a1.6,1.6,0,1,0,3.2,0V3.2h16V4.267a1.6,1.6,0,0,0,3.2,0V3.2h.533a1.6,1.6,0,0,1,1.6,1.6V6.933H1.071V4.8A1.6,1.6,0,0,1,2.671,3.2Zm0,24a1.6,1.6,0,0,1-1.6-1.6V8H27.739v6.423A9.587,9.587,0,0,0,14.1,27.2ZM22.4,30.933A8.533,8.533,0,1,1,30.939,22.4,8.534,8.534,0,0,1,22.4,30.933Zm0,0"/><path class="a" d="M246.171,238.934a7.233,7.233,0,1,0,7.233,7.233A7.233,7.233,0,0,0,246.171,238.934Zm0,13.433a6.2,6.2,0,1,1,6.2-6.2A6.2,6.2,0,0,1,246.171,252.367Zm0,0" transform="translate(-223.465 -223.467)"/><path class="a" d="M51.455,155.4a.517.517,0,0,0,0-1.033h-.517V152.3h1.55a.517.517,0,0,0,0-1.034h-1.55V149.2h2.583v1.033a.517.517,0,1,0,1.033,0V149.2h1.55a.517.517,0,0,0,0-1.033h-1.55V146.1h2.583v1.55a.517.517,0,0,0,1.033,0V146.1h2.583v1.033a.517.517,0,1,0,1.033,0V146.1h2.067a.517.517,0,0,1,.517.517v1.033a.517.517,0,0,0,1.033,0v-1.033a1.55,1.55,0,0,0-1.55-1.55H44.222a1.55,1.55,0,0,0-1.55,1.55V160.05a1.55,1.55,0,0,0,1.55,1.55h7.233a.517.517,0,0,0,0-1.033h-.517V158.5a.517.517,0,1,0,0-1.033V155.4Zm-1.55-1.033H47.322V152.3H49.9Zm-6.2-5.167h2.583v2.067H43.705Zm0,6.2h2.583v2.067H43.705Zm0-1.033V152.3h2.583v2.067Zm6.2-3.1H47.322V149.2H49.9Zm-2.583-3.1V146.1H49.9v2.067Zm6.2,0H50.938V146.1h2.583Zm-9.3-2.067h2.067v2.067H43.705v-1.55A.517.517,0,0,1,44.222,146.1Zm-.517,13.95V158.5h2.583v2.067H44.222A.517.517,0,0,1,43.705,160.05Zm6.2.517H47.322V158.5H49.9Zm0-3.1H47.322V155.4H49.9Zm0,0" transform="translate(-40.085 -135.676)"/><path class="a" d="M312.37,276.166a.517.517,0,1,0,1.033,0,2.777,2.777,0,0,0-2.583-2.545v-.039a.517.517,0,1,0-1.033,0v.039a2.545,2.545,0,1,0,0,5.089v3.083a1.709,1.709,0,0,1-1.55-1.494.517.517,0,1,0-1.033,0,2.777,2.777,0,0,0,2.583,2.544v.039a.517.517,0,1,0,1.033,0v-.039a2.545,2.545,0,1,0,0-5.089v-3.084A1.709,1.709,0,0,1,312.37,276.166Zm-4.133,0a1.709,1.709,0,0,1,1.55-1.495v2.989A1.709,1.709,0,0,1,308.236,276.166Zm4.133,4.133a1.709,1.709,0,0,1-1.55,1.494V278.8A1.709,1.709,0,0,1,312.37,280.3Zm0,0" transform="translate(-287.848 -255.533)"/></g></svg>