<svg id="workers" xmlns="http://www.w3.org/2000/svg" width="32.048" height="32.048" viewBox="0 0 32.048 32.048">
  <g id="Group_11524" data-name="Group 11524">
    <g id="Group_11523" data-name="Group 11523">
      <path id="Path_10488" data-name="Path 10488" d="M28.42,9.333A2.9,2.9,0,0,0,29.074,7.5V6.926a2.91,2.91,0,0,0-5.82,0V7.5a2.9,2.9,0,0,0,.655,1.837,4.961,4.961,0,0,0-1.406.638V9.518a3.429,3.429,0,0,0-3.425-3.425h-.4a3.4,3.4,0,0,0,.776-2.166V3.418a3.418,3.418,0,1,0-6.837,0v.508a3.4,3.4,0,0,0,.776,2.166h-.4A3.429,3.429,0,0,0,9.56,9.518v.465a4.961,4.961,0,0,0-1.422-.648A2.9,2.9,0,0,0,8.794,7.5V6.926a2.91,2.91,0,0,0-5.82,0V7.5a2.9,2.9,0,0,0,.655,1.836A4.948,4.948,0,0,0,0,14.1v5.123a1.976,1.976,0,0,0,1.974,1.974H2.5V31.422a.626.626,0,0,0,.626.626H8.633a.626.626,0,0,0,.626-.626V21.192h.534a1.976,1.976,0,0,0,1.974-1.963,3.394,3.394,0,0,0,.634.174V31.422a.626.626,0,0,0,.626.626h6.009a.626.626,0,0,0,.626-.626V25.354a.626.626,0,1,0-1.252,0V30.8H16.658V20.237a.626.626,0,1,0-1.252,0V30.8H13.653V17.5H18.41v3.015a.626.626,0,0,0,1.252,0V19.4a3.4,3.4,0,0,0,.618-.168,1.976,1.976,0,0,0,1.974,1.957h.534V31.422a.626.626,0,0,0,.626.626h5.508a.626.626,0,0,0,.626-.626V21.192h.525a1.976,1.976,0,0,0,1.974-1.974V14.1A4.948,4.948,0,0,0,28.42,9.333ZM4.225,6.926a1.658,1.658,0,0,1,3.317,0V7.5a1.658,1.658,0,1,1-3.317,0ZM8.007,30.8h-1.5V21.157a.626.626,0,0,0-1.252,0v.657a.627.627,0,0,0-.008.094V30.8h-1.5V18.715H8.007Zm2.508-11.578a.723.723,0,0,1-.722.722H9.259V16.609a.626.626,0,0,0-1.252,0v.854H3.751V14.617a.626.626,0,0,0-1.252,0v5.324H1.974a.723.723,0,0,1-.722-.722V14.1A3.692,3.692,0,0,1,4.94,10.407H6.827a3.7,3.7,0,0,1,2.732,1.211h0v4.41a3.413,3.413,0,0,0,.955,2.369ZM16.032,1.252A2.169,2.169,0,0,1,18.2,3.418v.508a2.166,2.166,0,0,1-4.333,0V3.418h0A2.169,2.169,0,0,1,16.032,1.252Zm5.22,14.777a2.177,2.177,0,0,1-1.589,2.093v-8.6a.626.626,0,1,0-1.252,0v6.729H13.653V9.518a.626.626,0,1,0-1.252,0v8.6a2.177,2.177,0,0,1-1.589-2.093V9.518a2.176,2.176,0,0,1,2.173-2.173h2.4v1.71a.626.626,0,1,0,1.252,0V7.344h2.441a2.176,2.176,0,0,1,2.173,2.173Zm3.254-9.1a1.658,1.658,0,0,1,3.317,0V7.5a1.658,1.658,0,0,1-3.317,0ZM28.3,30.8H26.8V21.908a.628.628,0,0,0-.008-.094v-.657a.626.626,0,1,0-1.252,0V30.8h-1.5V18.715H28.3Zm1.777-10.855h-.525V14.617a.626.626,0,1,0-1.252,0v2.847H24.04v-.854a.626.626,0,0,0-1.252,0v3.332h-.534a.723.723,0,0,1-.722-.722v-.8a3.413,3.413,0,0,0,.971-2.386V11.6a3.7,3.7,0,0,1,2.717-1.195h1.887A3.692,3.692,0,0,1,30.8,14.1v5.123h0A.723.723,0,0,1,30.074,19.941Z" fill="#838296"/>
    </g>
  </g>
  <g id="Group_11526" data-name="Group 11526" transform="translate(18.411 22.266)">
    <g id="Group_11525" data-name="Group 11525">
      <path id="Path_10489" data-name="Path 10489" d="M295.2,355.9a.626.626,0,1,0,.183.443A.628.628,0,0,0,295.2,355.9Z" transform="translate(-294.13 -355.72)" fill="#838296"/>
    </g>
  </g>
  <g id="Group_11528" data-name="Group 11528" transform="translate(15.385 10.768)">
    <g id="Group_11527" data-name="Group 11527">
      <path id="Path_10490" data-name="Path 10490" d="M246.858,172.213a.626.626,0,1,0,.183.443A.63.63,0,0,0,246.858,172.213Z" transform="translate(-245.79 -172.03)" fill="#838296"/>
    </g>
  </g>
</svg>
