<svg xmlns="http://www.w3.org/2000/svg" viewBox="0 0 22.254 22.254"><defs><style>.a{fill:#838296;}</style></defs><g transform="translate(0 -0.5)"><path class="a" d="M150.06,6.282l-.419,2.441a.652.652,0,0,0,.946.687l2.192-1.153,2.192,1.153a.652.652,0,0,0,.3.075h0a.653.653,0,0,0,.635-.8L155.5,6.282l1.774-1.729a.652.652,0,0,0-.361-1.112l-2.451-.356-1.1-2.221a.652.652,0,0,0-1.169,0l-1.1,2.221-2.451.356a.652.652,0,0,0-.361,1.112Zm1.566-1.956a.652.652,0,0,0,.491-.357l.663-1.344.663,1.344a.653.653,0,0,0,.491.357l1.483.215-1.073,1.046a.652.652,0,0,0-.187.577l.253,1.477-1.327-.7a.652.652,0,0,0-.607,0l-1.327.7.253-1.477a.652.652,0,0,0-.187-.577l-1.073-1.046Zm0,0" transform="translate(-141.652)"/><path class="a" d="M19.856,245.69H17.063a2.381,2.381,0,0,0-1.094.265V243.9a2.4,2.4,0,0,0-2.4-2.4H8.683a2.4,2.4,0,0,0-2.4,2.4v.312a2.383,2.383,0,0,0-1.094-.265H2.4a2.4,2.4,0,0,0-2.4,2.4v6.285a.652.652,0,0,0,.652.652H21.6a.652.652,0,0,0,.652-.652v-4.539A2.4,2.4,0,0,0,19.856,245.69ZM1.3,246.342A1.1,1.1,0,0,1,2.4,245.248H5.191a1.1,1.1,0,0,1,1.094,1.094v5.633H1.3Zm6.285,0V243.9A1.1,1.1,0,0,1,8.683,242.8h4.888a1.1,1.1,0,0,1,1.094,1.094v8.077H7.589Zm13.361,5.633H15.969v-3.887a1.1,1.1,0,0,1,1.094-1.094h2.793a1.1,1.1,0,0,1,1.094,1.094Zm0,0" transform="translate(0 -230.525)"/></g></svg>