<svg xmlns="http://www.w3.org/2000/svg" viewBox="0 0 156.858 42.888"><defs><style>.a{fill:#737196;fill-rule:evenodd;}</style></defs><g transform="translate(0 0)"><g transform="translate(0 0)"><path class="a" d="M23.146.575q.872,0,1.727.055l1.594,2.749q-.514-.006-1.034.007C13.021,3.7,2.959,12.077,2.959,22.093c0,6.6,4.373,12.269,10.908,15.274C5.9,34.369.352,27.632.352,19.8.352,9.183,10.557.575,23.146.575" transform="translate(-0.352 -0.575)"/><path class="a" d="M32.264,12.032c-12.52.718-22.536,7.585-23.13,15.888a11.056,11.056,0,0,0-.072,1.256c0,4.677,2.949,8.837,7.684,11.738C10.811,37.776,7,32.8,7,27.112c0-9.343,10.291-17.235,23.4-18.3Z" transform="translate(-3.112 -3.995)"/><path class="a" d="M37.247,21.8c-12.221.356-22.081,7.138-22.081,15.237a11.029,11.029,0,0,0,3.172,7.524c-3.262-2.6-5.216-5.962-5.216-9.662,0-8.349,9.941-15.37,22.428-16.024Z" transform="translate(-5.654 -8.174)"/><path class="a" d="M35.31,47.791q-.872,0-1.727-.055l-1.595-2.749q.515.005,1.035-.007C45.435,44.664,55.5,36.289,55.5,26.273,55.5,19.671,51.125,14,44.59,11,52.554,14,58.1,20.733,58.1,28.564,58.1,39.183,47.9,47.791,35.31,47.791" transform="translate(-13.487 -4.903)"/><path class="a" d="M26.8,39.665c12.52-.718,22.536-7.585,23.13-15.888A11.15,11.15,0,0,0,50,22.52c0-4.677-2.949-8.836-7.684-11.738,5.936,3.138,9.747,8.117,9.747,13.8,0,9.343-10.291,17.235-23.4,18.3Z" transform="translate(-11.332 -4.813)"/><path class="a" d="M22.624,34.448C34.845,34.092,44.7,27.311,44.7,19.211a11.029,11.029,0,0,0-3.172-7.524c3.262,2.6,5.216,5.961,5.216,9.662,0,8.349-9.941,15.37-22.428,16.025Z" transform="translate(-9.599 -5.189)"/><path class="a" d="M126.921,43.62V32.39a5.865,5.865,0,0,0-.22-1.821,1.691,1.691,0,0,0-.677-.927,2.516,2.516,0,0,0-1.169-.338q-.711-.05-1.694-.05-.881,0-1.559.034t-1.152.067q-.576.034-.983.068v14.2H114.69V27.1q.982-.2,2.27-.337,1.084-.135,2.66-.253t3.541-.118q2.1,0,3.693.151a6.612,6.612,0,0,1,2.66.759,3.73,3.73,0,0,1,1.592,1.8,8.368,8.368,0,0,1,.525,3.288V43.62Zm-20.939-8.431q0-2.226-.1-3.423a3.81,3.81,0,0,0-.474-1.753,1.545,1.545,0,0,0-1.152-.658,17.157,17.157,0,0,0-2.1-.1h-.305a17.162,17.162,0,0,0-2.1.1,1.546,1.546,0,0,0-1.152.658,3.82,3.82,0,0,0-.474,1.753q-.1,1.2-.1,3.423v.3q0,2.124.068,3.288a3.41,3.41,0,0,0,.441,1.7,1.515,1.515,0,0,0,1.152.624,21.4,21.4,0,0,0,2.168.084h.305a20.867,20.867,0,0,0,2.151-.084,1.5,1.5,0,0,0,1.135-.624,3.515,3.515,0,0,0,.457-1.7q.085-1.163.085-3.288Zm4.879.168a34.384,34.384,0,0,1-.237,4.536,4.492,4.492,0,0,1-1.135,2.613,4.769,4.769,0,0,1-2.66,1.214,30.027,30.027,0,0,1-4.845.3,29.756,29.756,0,0,1-4.811-.3,4.766,4.766,0,0,1-2.66-1.214,4.493,4.493,0,0,1-1.135-2.613,34.384,34.384,0,0,1-.237-4.536,28.865,28.865,0,0,1,.305-4.7,4.957,4.957,0,0,1,1.236-2.715,4.807,4.807,0,0,1,2.677-1.248,28.137,28.137,0,0,1,4.625-.3,28.456,28.456,0,0,1,4.642.3,4.823,4.823,0,0,1,2.694,1.248,4.959,4.959,0,0,1,1.237,2.715A28.914,28.914,0,0,1,110.861,35.358Z" transform="translate(-38.877 -11.292)"/><path class="a" d="M220.885,43.62l-4.337-7.15-4.337,7.15h-5.082l5.319-8.566-5.116-8.262h5.082l4.2,6.846,4.2-6.846H225.8l-5.116,8.262,5.387,8.566Zm-21.278-7.689h-4.438q-.982,0-1.609.033a1.949,1.949,0,0,0-1,.287,1.361,1.361,0,0,0-.525.792,5.866,5.866,0,0,0-.153,1.518,4.814,4.814,0,0,0,.22,1.652,1.521,1.521,0,0,0,.678.826,2.892,2.892,0,0,0,1.2.3q.745.05,1.762.05,1.8,0,2.812-.1.609-.034,1.05-.1Zm4.709,7.385a18.871,18.871,0,0,1-2.338.371q-1.118.135-2.711.236t-3.591.1q-1.728,0-3.287-.085a8.223,8.223,0,0,1-2.762-.59,4.124,4.124,0,0,1-1.914-1.619,5.892,5.892,0,0,1-.711-3.17,6.936,6.936,0,0,1,.491-2.917,3.2,3.2,0,0,1,1.372-1.5,5.26,5.26,0,0,1,2.151-.556q1.271-.084,2.8-.084h5.794V32.39a7.246,7.246,0,0,0-.186-1.872,1.712,1.712,0,0,0-.644-.978,2.631,2.631,0,0,0-1.237-.4,18.427,18.427,0,0,0-1.931-.084q-1.728,0-3.134.05t-2.389.118q-1.186.1-2.1.2V27.1a21.83,21.83,0,0,1,2.2-.337q1.084-.135,2.575-.253t3.388-.118q1.965,0,3.49.151a6.224,6.224,0,0,1,2.558.759,3.877,3.877,0,0,1,1.575,1.8,8.137,8.137,0,0,1,.542,3.288Zm-25.648-8.127q0-2.226-.1-3.423a3.528,3.528,0,0,0-.508-1.753,1.674,1.674,0,0,0-1.2-.658,18.333,18.333,0,0,0-2.185-.1q-.881,0-1.559.034t-1.152.067q-.576.034-.983.068v11.6a9.664,9.664,0,0,0,.983.1q.474.034,1.152.05t1.559.017q1.457,0,2.253-.084a1.586,1.586,0,0,0,1.186-.624,3.373,3.373,0,0,0,.474-1.7q.085-1.163.085-3.288Zm4.879.168a34.391,34.391,0,0,1-.237,4.536,4.556,4.556,0,0,1-1.118,2.613,4.639,4.639,0,0,1-2.609,1.214,28.557,28.557,0,0,1-4.71.3q-1.863,0-2.88-.1a9.639,9.639,0,0,1-1.017-.1v7.453H166.2V27.1q1.017-.2,2.338-.337,1.118-.135,2.711-.253t3.625-.118a26.971,26.971,0,0,1,4.523.3,4.68,4.68,0,0,1,2.626,1.248,5.025,5.025,0,0,1,1.22,2.715A28.911,28.911,0,0,1,183.547,35.358Z" transform="translate(-69.211 -11.292)"/></g></g></svg>