<svg xmlns="http://www.w3.org/2000/svg" viewBox="0 0 32 32"><defs><style>.a{fill:#838296;}</style></defs><g transform="translate(0 -0.011)"><g transform="translate(0 0.011)"><g transform="translate(0 0)"><path class="a" d="M31.151,10.992,21.018.859a2.911,2.911,0,0,0-4.108,0L.848,16.921a2.911,2.911,0,0,0,0,4.108l1.25,1.25h0l8.4,8.4H9.333a.667.667,0,0,0,0,1.333H22.666a.667.667,0,0,0,0-1.333H15.574L31.151,15.1A2.908,2.908,0,0,0,31.151,10.992Zm-.943,3.165L14.146,30.22a1.56,1.56,0,0,1-1.109.458h-.005a1.559,1.559,0,0,1-1.109-.458L3.512,21.808,18.937,6.382a.667.667,0,1,0-.943-.943L2.569,20.865l-.779-.779a1.578,1.578,0,0,1,0-2.223L17.852,1.8a1.578,1.578,0,0,1,2.223,0l3.606,3.607L8.257,20.834a.667.667,0,1,0,.943.943L24.624,6.351l5.584,5.584A1.574,1.574,0,0,1,30.208,14.158Z" transform="translate(0 -0.011)"/><path class="a" d="M167.157,305.139a.679.679,0,0,0-.96,0l-5.34,5.34a.679.679,0,0,0,.96.96l5.34-5.34A.679.679,0,0,0,167.157,305.139Z" transform="translate(-150.664 -285.97)"/><path class="a" d="M193.215,384.815l-2.19,2.19a.679.679,0,1,0,.96.96l2.19-2.19a.679.679,0,1,0-.96-.96Z" transform="translate(-178.926 -360.72)"/><path class="a" d="M252.891,353.14l-.288.288a.679.679,0,1,0,.96.96l.288-.288a.679.679,0,0,0-.96-.96Z" transform="translate(-236.644 -330.904)"/><path class="a" d="M347.648,160.868a.679.679,0,0,0-.96,0l-2.879,2.879a.679.679,0,0,0,0,.96l1.919,1.919a.679.679,0,0,0,.96,0l2.879-2.879a.679.679,0,0,0,0-.96Zm-1.44,4.319-.96-.96,1.919-1.919.96.96Z" transform="translate(-322.323 -150.669)"/><path class="a" d="M310.351,55.972a.676.676,0,0,0,.48-.2l.288-.288a.679.679,0,0,0-.96-.959l-.288.288a.679.679,0,0,0,.48,1.158Z" transform="translate(-290.337 -50.871)"/><path class="a" d="M100.053,355.131l-.288.288a.679.679,0,0,0,.96.96l.288-.288a.679.679,0,0,0-.96-.96Z" transform="translate(-93.349 -332.77)"/></g></g></g></svg>