<svg xmlns="http://www.w3.org/2000/svg" viewBox="0 0 12.286 16"><defs><style>.a{fill:#e9e9e0;}.b{fill:#d9d7ca;}.c{fill:#cc4b4c;}.d{fill:#fff;}</style></defs><g transform="translate(-6.5)"><path class="a" d="M15.21,0H6.918C6.687,0,6.5.187,6.5.55V15.714A.43.43,0,0,0,6.918,16h11.45a.43.43,0,0,0,.418-.286V3.708c0-.2-.027-.263-.073-.31L15.388.073A.252.252,0,0,0,15.21,0Z"/><path class="b" d="M37.5.151V3.536h3.385Z" transform="translate(-22.143 -0.108)"/><path class="c" d="M18.017,14.455h0a.459.459,0,0,1-.276-.093.685.685,0,0,1-.319-.641c.052-.465.627-.952,1.71-1.448A19.179,19.179,0,0,0,20.214,9.2a2.822,2.822,0,0,1-.36-1.9.548.548,0,0,1,.324-.347,1.4,1.4,0,0,1,.29-.049c.144,0,.271.185.36.3s.275.335-.107,1.943a9.13,9.13,0,0,0,1.454,2.161,5.558,5.558,0,0,1,.959-.1c.447,0,.719.1.829.319a.578.578,0,0,1-.111.617.759.759,0,0,1-.634.34,1.9,1.9,0,0,1-1.2-.653,13.69,13.69,0,0,0-2.522.806,8.107,8.107,0,0,1-.681,1.215C18.52,14.264,18.267,14.455,18.017,14.455Zm.761-1.465c-.611.343-.859.625-.877.784,0,.026-.011.1.123.2C18.066,13.959,18.314,13.846,18.778,12.991Zm3.9-1.269c.233.179.29.27.442.27a.431.431,0,0,0,.346-.126.452.452,0,0,0,.066-.119c-.035-.019-.082-.056-.336-.056A4.178,4.178,0,0,0,22.674,11.722ZM20.54,9.841A20.369,20.369,0,0,1,19.776,12a14.276,14.276,0,0,1,1.856-.577A9.78,9.78,0,0,1,20.54,9.841Zm-.173-2.418a.685.685,0,0,0,.027.919C20.665,7.738,20.378,7.419,20.366,7.423Z" transform="translate(-7.799 -4.934)"/><path class="c" d="M18.368,43.857H6.918a.418.418,0,0,1-.418-.418V39H18.786v4.439A.418.418,0,0,1,18.368,43.857Z" transform="translate(0 -27.857)"/><g transform="translate(9.141 12.264)"><path class="d" d="M16.213,45.8h-.469V42.924h.828a1.162,1.162,0,0,1,.363.059.987.987,0,0,1,.322.176.918.918,0,0,1,.231.283.784.784,0,0,1,.088.373,1.021,1.021,0,0,1-.074.4.829.829,0,0,1-.207.3.933.933,0,0,1-.32.187,1.233,1.233,0,0,1-.414.066h-.348V45.8Zm0-2.523V44.42h.43a.511.511,0,0,0,.17-.029.428.428,0,0,0,.154-.1.468.468,0,0,0,.113-.185.878.878,0,0,0,.043-.295.8.8,0,0,0-.019-.162.468.468,0,0,0-.08-.176.473.473,0,0,0-.17-.141.632.632,0,0,0-.289-.057h-.351Z" transform="translate(-15.744 -42.924)"/><path class="d" d="M26.408,44.283a2.115,2.115,0,0,1-.076.607,1.51,1.51,0,0,1-.193.422.994.994,0,0,1-.264.268,1.323,1.323,0,0,1-.283.147,1.17,1.17,0,0,1-.25.063,1.665,1.665,0,0,1-.168.013h-1.09V42.924h.867a1.648,1.648,0,0,1,.639.115,1.326,1.326,0,0,1,.457.307,1.258,1.258,0,0,1,.271.435A1.442,1.442,0,0,1,26.408,44.283Zm-1.391,1.176a.776.776,0,0,0,.687-.3,1.546,1.546,0,0,0,.211-.883,1.5,1.5,0,0,0-.043-.355.76.76,0,0,0-.166-.318.876.876,0,0,0-.334-.231,1.438,1.438,0,0,0-.547-.088h-.273v2.18Z" transform="translate(-21.701 -42.924)"/><path class="d" d="M35.075,43.279v.906h1.2v.32h-1.2v1.3H34.6V42.924h1.8v.355Z" transform="translate(-29.211 -42.924)"/></g></g></svg>