<svg xmlns="http://www.w3.org/2000/svg" width="32.021" height="32.256" viewBox="0 0 32.021 32.256"><path d="M109.183,133.32l.279.458h4.1l.279-.458a7.432,7.432,0,0,0,.824-1.845h1.231v-1.9H114.81l.092-1.772h-6.788l.174,3.228A6.105,6.105,0,0,0,109.183,133.32Zm3.709-3.616-.063,1.224a3.492,3.492,0,0,1-.367.947h-1.9a3.44,3.44,0,0,1-.367-.948l-.066-1.223Zm0,0" transform="translate(-101.384 -119.763)" fill="#838296"/><path d="M31.469,7.463a2.849,2.849,0,0,0-.574-3.954,2.813,2.813,0,0,0-3.959.578l-6.228,8.46V1.777H16.921V0h-1.88V1.777h-1.88V0h-1.88V1.777H9.4V0H7.52V1.777H5.64V0H3.76V1.777H0V32.256H20.708V22.131l8.076-11.009.538.4-4.245,5.795,1.514,1.119,5.357-7.314L29.9,9.6ZM28.446,5.212a.939.939,0,0,1,1.32-.192.951.951,0,0,1,.19,1.321l-1.57,2.14L26.868,7.355ZM1.88,30.367V3.666H3.76V5.438H5.64V3.666H7.52V5.438H9.4V3.666h1.88V5.438h1.88V3.666h1.88V5.438h1.88V3.666h1.907V15.1l-3.364,4.57-.3,1.627H5.229v1.888h9.578l-.353,1.889H5.229v1.889H15.506V25.5l3.322-1.816v6.68ZM17,21.692l.666.481-.842.461Zm2.224-.719L17.67,19.85,25.75,8.874,27.271,10Zm0,0" fill="#838296"/><path d="M83.605,278.1H94.039V280H83.605Zm0,0" transform="translate(-78.414 -260.59)" fill="#838296"/></svg>