<svg xmlns="http://www.w3.org/2000/svg" width="12.784" height="16.264" viewBox="0 0 12.784 16.264"><g transform="translate(-53.023)"><g transform="translate(53.023 5.129)"><path d="M65.8,109.707l-.72-7.8a1.079,1.079,0,0,0-1.125-.9H62.532v1.813a.478.478,0,0,1-.944,0V101H57.243v1.813a.478.478,0,0,1-.944,0V101H54.877a1.079,1.079,0,0,0-1.125.9l-.72,7.807a2.082,2.082,0,0,0,.692,1.707,2.848,2.848,0,0,0,1.926.724h7.534a2.848,2.848,0,0,0,1.926-.724A2.081,2.081,0,0,0,65.8,109.707Zm-4.257-3.975-2.442,2.1a.528.528,0,0,1-.668,0l-1.145-.985a.367.367,0,0,1,0-.574.528.528,0,0,1,.668,0l.811.7,2.109-1.814a.528.528,0,0,1,.668,0A.368.368,0,0,1,61.543,105.732Z" transform="translate(-53.023 -101.005)" fill="#f7f7f7"/></g><g transform="translate(54.552)"><g transform="translate(1.799)"><path d="M160.146,0c-1.713,0-3.107,2.255-3.107,5.026v.1h.941v-.1c0-1.932.971-4.788,2.165-4.788s2.165,2.857,2.165,4.788v.1h.941v-.1C163.252,2.255,161.859,0,160.146,0Z" transform="translate(-157.039)" fill="#f7f7f7"/></g></g></g></svg>