<svg xmlns="http://www.w3.org/2000/svg" width="29.767" height="30.379" viewBox="0 0 29.767 30.379">
  <g id="percentage" transform="translate(-4.919 0)">
    <g id="Grupo_18772" data-name="Grupo 18772" transform="translate(4.919 0)">
      <circle id="Elipse_1848" data-name="Elipse 1848" cx="1.27" cy="1.27" r="1.27" transform="translate(9.577 11.34)" fill="#fff"/>
      <circle id="Elipse_1849" data-name="Elipse 1849" cx="1.27" cy="1.27" r="1.27" transform="translate(17.644 16.494)" fill="#fff"/>
      <path id="Caminho_21441" data-name="Caminho 21441" d="M34.3,16.867l-.461-.629a1.982,1.982,0,0,1-.019-2.309l.448-.635a1.981,1.981,0,0,0-.685-2.888l-.685-.367a1.973,1.973,0,0,1-1.015-2.073L32.02,7.2a1.977,1.977,0,0,0-1.867-2.3l-.778-.031A1.984,1.984,0,0,1,27.556,3.44l-.218-.747a1.973,1.973,0,0,0-2.683-1.264l-.716.305a1.973,1.973,0,0,1-2.253-.5L21.169.657a1.973,1.973,0,0,0-2.963.025l-.51.585a1.979,1.979,0,0,1-2.247.529l-.722-.3A1.982,1.982,0,0,0,12.062,2.8l-.205.753a1.966,1.966,0,0,1-1.793,1.45l-.778.044a1.976,1.976,0,0,0-1.83,2.334l.143.766a1.973,1.973,0,0,1-.984,2.085l-.679.38A1.975,1.975,0,0,0,5.3,13.512l.461.629a1.982,1.982,0,0,1,.019,2.309l-.448.635a1.981,1.981,0,0,0,.685,2.888l.685.367a1.973,1.973,0,0,1,1.015,2.073l-.131.766a1.977,1.977,0,0,0,1.867,2.3l.778.031a1.984,1.984,0,0,1,1.818,1.426l.218.747a1.973,1.973,0,0,0,2.683,1.264l.716-.305a1.973,1.973,0,0,1,2.253.5l.517.579A1.973,1.973,0,0,0,21.4,29.7l.51-.585a1.979,1.979,0,0,1,2.247-.529l.722.3a1.982,1.982,0,0,0,2.664-1.307l.205-.753a1.966,1.966,0,0,1,1.793-1.45l.778-.044a1.976,1.976,0,0,0,1.83-2.334l-.143-.766a1.973,1.973,0,0,1,.984-2.085l.679-.38A1.974,1.974,0,0,0,34.3,16.867ZM12.7,12.609a3.063,3.063,0,1,1,3.063,3.063A3.06,3.06,0,0,1,12.7,12.609Zm3.654,7.9a.749.749,0,0,1-1.052.1h0a.749.749,0,0,1-.1-1.052l8.036-9.68a.747.747,0,0,1,1.152.952Zm7.482.317A3.063,3.063,0,1,1,26.9,17.763,3.06,3.06,0,0,1,23.834,20.826Z" transform="translate(-4.919 0)" fill="#fff"/>
    </g>
  </g>
</svg>
