<svg xmlns="http://www.w3.org/2000/svg" viewBox="0 0 15.206 16"><defs><style>.a{fill:#f7f7f7;}</style></defs><g transform="translate(-16.831)"><g transform="translate(25.726 9.561)"><path class="a" d="M299.469,309.892l-1.835-3.935a6.784,6.784,0,0,1-4.426,2.844l1.536,3.294a.521.521,0,0,0,.962-.042l.787-2.163.162-.076,2.163.787A.522.522,0,0,0,299.469,309.892Z" transform="translate(-293.208 -305.957)"/></g><g transform="translate(18.57)"><path class="a" d="M78.349,0a5.807,5.807,0,0,0-5.864,5.735,5.865,5.865,0,0,0,11.728,0A5.807,5.807,0,0,0,78.349,0ZM81.2,5.313l-1.04.991.246,1.4a.531.531,0,0,1-.774.55l-1.286-.661-1.286.661a.531.531,0,0,1-.774-.55l.246-1.4L75.5,5.313a.519.519,0,0,1,.3-.889l1.437-.2.643-1.274a.539.539,0,0,1,.956,0L79.47,4.22l1.437.2A.519.519,0,0,1,81.2,5.313Z" transform="translate(-72.485)"/></g><g transform="translate(16.831 9.561)"><g transform="translate(0)"><path class="a" d="M18.716,305.957l-1.835,3.935a.522.522,0,0,0,.651.71l2.163-.787.162.076.787,2.163a.521.521,0,0,0,.962.042l1.536-3.294A6.784,6.784,0,0,1,18.716,305.957Z" transform="translate(-16.831 -305.957)"/></g></g></g></svg>