<svg xmlns="http://www.w3.org/2000/svg" viewBox="0 0 12.323 16.048"><defs><style>.a{fill:#e9e9e0;}.b{fill:#5889c4;}.c{fill:#fff;}.d{fill:#c8bdb8;}.e{fill:#d9d7ca;}</style></defs><g transform="translate(-6.5)"><path class="a" d="M15.236,0H6.919C6.688,0,6.5.188,6.5.552v15.21a.432.432,0,0,0,.419.287H18.4a.432.432,0,0,0,.419-.287V3.719c0-.2-.027-.264-.074-.311L15.415.074A.253.253,0,0,0,15.236,0Z" transform="translate(0)"/><path class="b" d="M18.4,43.872H6.919a.419.419,0,0,1-.419-.419V39H18.823v4.453A.419.419,0,0,1,18.4,43.872Z" transform="translate(0 -27.824)"/><g transform="translate(9.149 12.254)"><path class="c" d="M16.214,45.812h-.47V42.924h.83a1.166,1.166,0,0,1,.364.059.991.991,0,0,1,.323.176.92.92,0,0,1,.231.284.787.787,0,0,1,.088.374,1.024,1.024,0,0,1-.075.4.831.831,0,0,1-.208.3.936.936,0,0,1-.321.188,1.236,1.236,0,0,1-.415.066h-.349v1.042Zm0-2.531v1.144h.431a.512.512,0,0,0,.171-.03.429.429,0,0,0,.155-.1.469.469,0,0,0,.113-.186.881.881,0,0,0,.043-.3.8.8,0,0,0-.019-.162.469.469,0,0,0-.08-.176.475.475,0,0,0-.171-.141.633.633,0,0,0-.29-.057h-.352Z" transform="translate(-15.744 -42.877)"/><path class="c" d="M25.554,44.9a.745.745,0,0,1-.065.3.792.792,0,0,1-.182.258.876.876,0,0,1-.29.178,1.081,1.081,0,0,1-.392.066c-.063,0-.127,0-.194-.01a1.574,1.574,0,0,1-.2-.033,1.056,1.056,0,0,1-.194-.065.622.622,0,0,1-.159-.1l.082-.337a.826.826,0,0,0,.139.061c.056.019.114.038.174.055a1.759,1.759,0,0,0,.18.041,1,1,0,0,0,.169.016.538.538,0,0,0,.366-.112.417.417,0,0,0,.127-.331.317.317,0,0,0-.09-.227A.976.976,0,0,0,24.8,44.5q-.135-.077-.292-.153a1.769,1.769,0,0,1-.294-.18.94.94,0,0,1-.227-.245.641.641,0,0,1-.09-.352.787.787,0,0,1,.07-.341.762.762,0,0,1,.19-.253.841.841,0,0,1,.278-.159,1.015,1.015,0,0,1,.335-.055,2.055,2.055,0,0,1,.364.033.8.8,0,0,1,.3.108c-.016.034-.034.071-.055.112l-.059.113-.047.088a.363.363,0,0,1-.024.039.473.473,0,0,1-.053-.031.405.405,0,0,0-.084-.039.6.6,0,0,0-.145-.028,1.37,1.37,0,0,0-.231,0,.4.4,0,0,0-.149.045.516.516,0,0,0-.126.092.42.42,0,0,0-.086.124.315.315,0,0,0-.031.131.354.354,0,0,0,.09.253.873.873,0,0,0,.223.169q.133.073.29.141a1.582,1.582,0,0,1,.292.167.841.841,0,0,1,.225.245A.7.7,0,0,1,25.554,44.9Z" transform="translate(-21.546 -42.76)"/><path class="c" d="M33.826,44.288a2.121,2.121,0,0,1-.077.609,1.515,1.515,0,0,1-.194.423,1,1,0,0,1-.265.269,1.327,1.327,0,0,1-.284.147,1.174,1.174,0,0,1-.251.063,1.672,1.672,0,0,1-.168.013H31.495V42.924h.87a1.652,1.652,0,0,1,.64.115,1.33,1.33,0,0,1,.459.307,1.262,1.262,0,0,1,.272.437A1.453,1.453,0,0,1,33.826,44.288Zm-1.395,1.179a.778.778,0,0,0,.689-.305,1.551,1.551,0,0,0,.211-.886,1.5,1.5,0,0,0-.043-.357.763.763,0,0,0-.167-.319.879.879,0,0,0-.335-.231,1.443,1.443,0,0,0-.549-.088h-.274v2.186h.466Z" transform="translate(-26.981 -42.877)"/></g><path class="d" d="M19.243,8.13a.287.287,0,0,0-.4.083,14.281,14.281,0,0,1-1.487,1.827l-.8.8-.81-.81.8-.8a10.591,10.591,0,0,1,2.326-1.749l.032-.006a.279.279,0,0,0,.211-.328.3.3,0,0,0-.328-.233l-.081.018a10.7,10.7,0,0,0-2.565,1.893l-2.059,2.059c-.027,0-.054,0-.082,0a1.74,1.74,0,0,0-1.715,1.437l-.031.021-.006.154c-.01.27-.087,1.161-.671,1.3a.3.3,0,0,0-.227.33l.046.263H13.4l.6-.009a1.752,1.752,0,0,0,1.75-1.75c0-.055,0-.11-.008-.164l2.02-2.02a14.74,14.74,0,0,0,1.562-1.919A.287.287,0,0,0,19.243,8.13ZM14,13.806H12.931l0,.009h-.476a2.563,2.563,0,0,0,.357-1.159l.023-.144A1.169,1.169,0,0,1,14,11.453c.035,0,.067.007.1.01l.048.006a1.172,1.172,0,0,1,.745.4c.017.02.034.039.049.06s.044.065.065.1.028.049.041.075a1.169,1.169,0,0,1,.05.111c.009.023.015.047.022.071a1.179,1.179,0,0,1,.034.129v.007A1.164,1.164,0,0,1,14,13.806Zm1.407-2.213-.006-.007a1.756,1.756,0,0,0-.668-.543l.608-.608.81.81-.593.593A1.688,1.688,0,0,0,15.41,11.593Z" transform="translate(-3.46 -4.931)"/><path class="e" d="M37.5.151v3.4h3.4Z" transform="translate(-22.116 -0.108)"/></g></svg>