<svg xmlns="http://www.w3.org/2000/svg" viewBox="0 0 32 25.576"><defs><style>.a{fill:#838296;}</style></defs><g transform="translate(0 -42.56)"><g transform="translate(10.264 48.9)"><g transform="translate(0 0)"><path class="a" d="M141.736,126.56c-3.538,0-5.736,1.811-5.736,4.746a.6.6,0,0,0,.6.6h10.264a.6.6,0,0,0,.6-.6C147.472,128.377,145.274,126.56,141.736,126.56ZM137.25,130.7c.4-2.711,3.5-2.934,4.486-2.934s4.088.223,4.486,2.934Z" transform="translate(-136 -126.56)"/></g></g><g transform="translate(13.132 42.56)"><g transform="translate(0 0)"><path class="a" d="M176.868,42.56a2.868,2.868,0,1,0,2.868,2.868A2.868,2.868,0,0,0,176.868,42.56Zm0,4.528a1.66,1.66,0,1,1,1.66-1.66A1.66,1.66,0,0,1,176.868,47.088Z" transform="translate(-174 -42.56)"/></g></g><g transform="translate(0 62.786)"><g transform="translate(0 0)"><path class="a" d="M5.736,310.56C2.2,310.56,0,312.371,0,315.306a.6.6,0,0,0,.6.6H10.868a.6.6,0,0,0,.6-.6C11.472,312.377,9.274,310.56,5.736,310.56ZM1.25,314.7c.4-2.711,3.49-2.934,4.486-2.934s4.088.223,4.486,2.934Z" transform="translate(0 -310.56)"/></g></g><g transform="translate(2.868 56.447)"><g transform="translate(0 0)"><path class="a" d="M40.868,226.56a2.868,2.868,0,1,0,2.868,2.868A2.868,2.868,0,0,0,40.868,226.56Zm0,4.528a1.66,1.66,0,1,1,1.66-1.66A1.66,1.66,0,0,1,40.868,231.088Z" transform="translate(-38 -226.56)"/></g></g><g transform="translate(20.528 62.786)"><g transform="translate(0 0)"><path class="a" d="M277.736,310.56c-3.538,0-5.736,1.811-5.736,4.746a.6.6,0,0,0,.6.6h10.264a.6.6,0,0,0,.6-.6C283.472,312.377,281.274,310.56,277.736,310.56ZM273.25,314.7c.4-2.711,3.49-2.934,4.486-2.934s4.088.223,4.486,2.934Z" transform="translate(-272 -310.56)"/></g></g><g transform="translate(23.396 56.447)"><g transform="translate(0 0)"><path class="a" d="M312.868,226.56a2.868,2.868,0,1,0,2.868,2.868A2.868,2.868,0,0,0,312.868,226.56Zm0,4.528a1.66,1.66,0,1,1,1.66-1.66A1.66,1.66,0,0,1,312.868,231.088Z" transform="translate(-310 -226.56)"/></g></g><g transform="translate(12.698 55.046)"><g transform="translate(0 0)"><path class="a" d="M174.671,214.7l-2.518-2.53V208.6a.6.6,0,1,0-1.208,0v3.562l-2.518,2.518a.606.606,0,0,0,.851.863l2.27-2.276,2.27,2.276a.6.6,0,0,0,.851-.851Z" transform="translate(-168.247 -208)"/></g></g></g></svg>