<svg xmlns="http://www.w3.org/2000/svg" viewBox="0 0 47.798 63.991"><defs><style>.a{fill:#838296;}</style></defs><g transform="translate(-38.245)"><g transform="translate(38.245)"><g transform="translate(0)"><path class="a" d="M58.792,23.022h0L52.65,21.458a4.135,4.135,0,1,1,2.04-8.014l4.1,1.044V6.55a1.33,1.33,0,0,0-.958-1.277L48.881,2.661H72.093V7.27a6.452,6.452,0,0,1,2.66-.609V1.33A1.33,1.33,0,0,0,73.423,0H39.575a1.333,1.333,0,0,0-1.33,1.33V49.94a1.335,1.335,0,0,0,.958,1.277l17.886,5.22a1.33,1.33,0,0,0,1.7-1.277V51.27h8.263V48.61H58.791V23.022ZM55,34.972a1.33,1.33,0,0,1-2.661,0V27.293a1.33,1.33,0,0,1,2.661,0Z" transform="translate(-38.245)"/><path class="a" d="M135.208,81.14A5.329,5.329,0,0,0,130,75.96H118.564l-15.107-3.847h-.008a2.2,2.2,0,0,0-1.078,4.266c16.622,4.233,15.52,3.982,15.91,3.982,0,23.583-.048,2.225-.048,37.785a2.64,2.64,0,1,0,5.28,0v-21.1h1.14v21.1a2.64,2.64,0,1,0,5.28,0V81.162a.436.436,0,0,1,.873-.006v.006l.081,16.163a2.2,2.2,0,0,0,2.2,2.189h.011a2.2,2.2,0,0,0,2.189-2.211Z" transform="translate(-87.49 -56.794)"/><path class="a" d="M189.577,45.155a4.56,4.56,0,1,0,4.56-4.56A4.56,4.56,0,0,0,189.577,45.155Z" transform="translate(-157.542 -32.001)"/></g></g></g></svg>