<svg xmlns="http://www.w3.org/2000/svg" viewBox="0 0 24 23.719"><defs><style>.a{fill:#838296;}</style></defs><g transform="translate(0 -3)"><g transform="translate(14.06 14.869)"><g transform="translate(0 0)"><path class="a" d="M301.923,259.583a.9.9,0,1,1,1.031-.893.469.469,0,0,0,.938,0,1.865,1.865,0,0,0-1.5-1.777v-.244a.469.469,0,0,0-.937,0v.244a1.865,1.865,0,0,0-1.5,1.777,1.905,1.905,0,0,0,1.969,1.83.9.9,0,1,1-1.031.893.469.469,0,0,0-.937,0,1.865,1.865,0,0,0,1.5,1.777v.2a.469.469,0,0,0,.938,0v-.2a1.865,1.865,0,0,0,1.5-1.777A1.905,1.905,0,0,0,301.923,259.583Z" transform="translate(-299.954 -256.201)"/></g></g><g transform="translate(17.996 13.209)"><g transform="translate(0 0)"><path class="a" d="M387.091,223.039a6.107,6.107,0,0,0-2.495-2.208.469.469,0,1,0-.406.845,5.161,5.161,0,0,1,2.324,7.068.469.469,0,1,0,.828.44,6.1,6.1,0,0,0-.251-6.146Z" transform="translate(-383.924 -220.785)"/></g></g><g transform="translate(16.266 12.656)"><path class="a" d="M347.5,209h-.032a.469.469,0,0,0,0,.938h.029a.469.469,0,0,0,0-.937Z" transform="translate(-347 -209.001)"/></g><g transform="translate(9.938 15.643)"><path class="a" d="M215.865,280.469a5.161,5.161,0,0,1-2.324-7.068.469.469,0,0,0-.828-.44,6.1,6.1,0,0,0,2.746,8.354.469.469,0,1,0,.406-.845Z" transform="translate(-212.002 -272.711)"/></g><g transform="translate(14.83 23.906)"><path class="a" d="M316.876,449h-.027a.469.469,0,0,0,0,.938h.031a.469.469,0,0,0,0-.937Z" transform="translate(-316.378 -448.999)"/></g><g transform="translate(0 3)"><g transform="translate(0 0)"><path class="a" d="M18.16,11.07a2.152,2.152,0,0,0-.208-.383h1.22a2.156,2.156,0,0,0,0-4.312H15.418A2.155,2.155,0,0,0,13.641,3H2.156a2.156,2.156,0,1,0,0,4.312H5.91a2.15,2.15,0,0,0,0,2.437H4.687a2.155,2.155,0,0,0-1.34,3.844,2.152,2.152,0,0,0,0,3.375,2.152,2.152,0,0,0,0,3.375,2.155,2.155,0,0,0,1.34,3.844h5.524A7.967,7.967,0,1,0,18.16,11.07Zm1.012-3.758a1.219,1.219,0,1,1,0,2.437H7.687a1.219,1.219,0,1,1,0-2.437ZM2.156,6.375a1.219,1.219,0,1,1,0-2.437H13.641a1.219,1.219,0,0,1,0,2.437Zm2.531,4.312H16.172a1.218,1.218,0,0,1,.532.122c-.222-.019-.446-.029-.672-.029a7.944,7.944,0,0,0-5.639,2.344h-5.7a1.219,1.219,0,1,1,0-2.437Zm0,3.375h4.9a7.946,7.946,0,0,0-1.2,2.437h-3.7a1.219,1.219,0,0,1,0-2.437Zm0,3.375H8.171a7.975,7.975,0,0,0-.029,2.437H4.687a1.219,1.219,0,1,1,0-2.437Zm0,5.812a1.219,1.219,0,0,1,0-2.437H8.334A7.937,7.937,0,0,0,9.458,23.25Zm11.344,2.531a7.031,7.031,0,1,1,7.031-7.031A7.039,7.039,0,0,1,16.031,25.781Z" transform="translate(0 -3)"/></g></g></g></svg>