<svg xmlns="http://www.w3.org/2000/svg" xmlns:xlink="http://www.w3.org/1999/xlink" width="63.354" height="55.315" viewBox="0 0 63.354 55.315">
  <defs>
    <linearGradient id="linear-gradient" x1="0.5" x2="0.5" y2="1" gradientUnits="objectBoundingBox">
      <stop offset="0" stop-color="#113c58"/>
      <stop offset="1" stop-color="#246b8d"/>
    </linearGradient>
  </defs>
  <g id="shop-2" transform="translate(0 0)">
    <g id="Grupo_17079" data-name="Grupo 17079">
      <path id="Caminho_18078" data-name="Caminho 18078" d="M261.081,263.75h-8.609a4.276,4.276,0,0,0-4.272,4.272v6.6a4.276,4.276,0,0,0,4.272,4.272h8.609a4.276,4.276,0,0,0,4.272-4.272v-6.6A4.276,4.276,0,0,0,261.081,263.75Zm1.165,10.874a1.168,1.168,0,0,1-1.165,1.165h-8.609a1.168,1.168,0,0,1-1.165-1.165v-6.6a1.168,1.168,0,0,1,1.165-1.165h8.609a1.168,1.168,0,0,1,1.165,1.165Z" transform="translate(-216.07 -233.626)" fill="url(#linear-gradient)"/>
      <path id="Caminho_18079" data-name="Caminho 18079" d="M63.354,49.173a1.442,1.442,0,0,0-.207-.764L53.723,31.84a1.562,1.562,0,0,0-1.346-.79H10.965a1.535,1.535,0,0,0-1.346.79L.207,48.41A1.57,1.57,0,0,0,0,49.173a9.087,9.087,0,0,0,5.437,8.311V84.812A1.558,1.558,0,0,0,6.99,86.365h49.36A1.558,1.558,0,0,0,57.9,84.812V57.678a.684.684,0,0,0-.013-.168A9.113,9.113,0,0,0,63.354,49.173Zm-51.483-15h39.6l7.366,12.958H4.518ZM45.088,50.222a5.97,5.97,0,0,1-11.754,0Zm-15.055,0a5.978,5.978,0,0,1-11.767,0Zm-26.823,0H14.978a5.978,5.978,0,0,1-11.767,0ZM26.1,83.258H17.165V66.494a2.213,2.213,0,0,1,2.214-2.214H23.9a2.213,2.213,0,0,1,2.214,2.214V83.258Zm28.7,0H29.2V66.494a5.329,5.329,0,0,0-5.32-5.321H19.366a5.329,5.329,0,0,0-5.32,5.321V83.271h-5.5V58.248c.181.013.362.013.544.013a9.076,9.076,0,0,0,7.534-4.013,9.079,9.079,0,0,0,15.068,0,9.055,9.055,0,0,0,15.042,0,9.076,9.076,0,0,0,7.534,4.013c.181,0,.35-.013.531-.013v25.01Zm-.531-28.1a5.967,5.967,0,0,1-5.877-4.919H60.157A6,6,0,0,1,54.267,55.154Z" transform="translate(0 -31.05)" fill="url(#linear-gradient)"/>
    </g>
  </g>
</svg>
