<svg xmlns="http://www.w3.org/2000/svg" viewBox="0 0 15.79 16"><defs><style>.a{fill:#f7f7f7;}</style></defs><g transform="translate(0 0)"><path class="a" d="M321.477,208.64a3.27,3.27,0,1,0-3.27-3.27A3.273,3.273,0,0,0,321.477,208.64Z" transform="translate(-312.73 -198.555)"/><g transform="translate(0 0)"><path class="a" d="M218.388,61.822a2.28,2.28,0,0,0-2.28,2.28v2.547a.439.439,0,0,0,.439.439h9.245a.439.439,0,0,0,.439-.439V64.165a1.412,1.412,0,0,0,.1-.214l1.789-4.736a1.406,1.406,0,0,0,.091-.5V53.4a1.4,1.4,0,1,0-2.807,0v5.059l-1.268,3.359Z" transform="translate(-212.422 -51.088)"/><path class="a" d="M6.428,3.124H7.463A.437.437,0,0,0,7.9,2.752a1.482,1.482,0,0,1,.36-.851.963.963,0,0,1,.705-.24,1.012,1.012,0,0,1,.749.27.907.907,0,0,1,.272.693.807.807,0,0,1-.1.386,2.966,2.966,0,0,1-.658.67A3.675,3.675,0,0,0,8.277,4.8,3.79,3.79,0,0,0,8,6.441H8a.439.439,0,0,0,.439.439h.935a.439.439,0,0,0,.439-.439h0a2.3,2.3,0,0,1,.109-.886,2.559,2.559,0,0,1,.684-.709,3.943,3.943,0,0,0,1-1.119,2.47,2.47,0,0,0,.288-1.172A2.351,2.351,0,0,0,11.05.7a3.106,3.106,0,0,0-2.1-.7A2.978,2.978,0,0,0,6.919.717a2.809,2.809,0,0,0-.924,1.933h0A.435.435,0,0,0,6.428,3.124Z" transform="translate(-5.992 0)"/><path class="a" d="M121.88,432.21a.439.439,0,0,0,.439-.439v-.933a.439.439,0,0,0-.439-.439h-.933a.439.439,0,0,0-.439.439v.933a.439.439,0,0,0,.439.439Z" transform="translate(-118.499 -422.85)"/></g></g></svg>