<svg xmlns="http://www.w3.org/2000/svg" viewBox="0 0 16.002 15.984"><defs><style>.a{fill:#f7f7f7;}</style></defs><g transform="translate(0 -0.256)"><g transform="translate(0 0.256)"><path class="a" d="M16,8.257l-1.37-1.784.306-2.217-2.09-.829-.829-2.09L9.8,1.644,8,.256,6.217,1.626,4,1.319,3.172,3.41l-2.09.829.306,2.217L0,8.257l1.37,1.784-.306,2.217,2.09.829.829,2.09L6.2,14.871l1.784,1.37,1.784-1.37,2.217.306.829-2.09,2.09-.847L14.6,10.023Zm-8.65,2.6-2.667-2.2.577-.7L7.244,9.573l3.388-3.911.685.595Z" transform="translate(0 -0.256)"/></g></g></svg>