<svg xmlns="http://www.w3.org/2000/svg" viewBox="0 0 16.046 14.194"><defs><style>.a{fill:#f7f7f7;}</style></defs><g transform="translate(0 0)"><g transform="translate(0 4.166)"><g transform="translate(0 0)"><path class="a" d="M13.886,169.25a1.388,1.388,0,0,1-1.144-.6l-.68-.988a4.631,4.631,0,0,1-8.645-1.8h.44a.463.463,0,0,0,.381-.725l-.675-.981-1.022-1.487a.463.463,0,0,0-.763,0l-1.7,2.469a.463.463,0,0,0,.381.725H.941a7.1,7.1,0,0,0,12.1,4.556,7.146,7.146,0,0,0,.943-1.165C13.952,169.248,13.919,169.25,13.886,169.25Z" transform="translate(0 -162.461)"/></g></g><g transform="translate(6.502 4.166)"><g transform="translate(0 0)"><path class="a" d="M209.347,164.932h-.705a.243.243,0,0,1-.242-.242v-.353a.243.243,0,0,1,.242-.242h.705a.243.243,0,0,1,.242.242.463.463,0,0,0,.926,0,1.17,1.17,0,0,0-1.058-1.163v-.248a.463.463,0,1,0-.926,0v.248a1.17,1.17,0,0,0-1.058,1.163v.353a1.169,1.169,0,0,0,1.168,1.168h.705a.243.243,0,0,1,.242.242v.353a.243.243,0,0,1-.242.242h-.705a.243.243,0,0,1-.242-.242.463.463,0,1,0-.926,0,1.17,1.17,0,0,0,1.058,1.163v.248a.463.463,0,0,0,.926,0v-.248a1.17,1.17,0,0,0,1.058-1.163V166.1A1.17,1.17,0,0,0,209.347,164.932Z" transform="translate(-207.473 -162.463)"/></g></g><g transform="translate(2.062)"><g transform="translate(0 0)"><path class="a" d="M79.715,36.421a.463.463,0,0,0-.41-.247h-.478a7.1,7.1,0,0,0-12.1-4.556,7.145,7.145,0,0,0-.943,1.165c.033,0,.065,0,.1,0a1.388,1.388,0,0,1,1.144.6l.68.988a4.631,4.631,0,0,1,8.645,1.8h-.44a.463.463,0,0,0-.381.725l.675.981,1.022,1.487a.463.463,0,0,0,.763,0l.613-.891L79.687,36.9A.463.463,0,0,0,79.715,36.421Z" transform="translate(-65.784 -29.539)"/></g></g></g></svg>