<svg xmlns="http://www.w3.org/2000/svg" viewBox="0 0 19.365 15.737"><defs><style>.a{fill:#838296;opacity:0.504;}</style></defs><path class="a" d="M645.195,140.833a7.945,7.945,0,0,1-2.282.626,3.986,3.986,0,0,0,1.746-2.2,7.943,7.943,0,0,1-2.523.964,3.976,3.976,0,0,0-6.769,3.624,11.279,11.279,0,0,1-8.189-4.151,3.977,3.977,0,0,0,1.23,5.3,3.952,3.952,0,0,1-1.8-.5c0,.017,0,.033,0,.05a3.976,3.976,0,0,0,3.187,3.9,4,4,0,0,1-1.794.068,3.978,3.978,0,0,0,3.712,2.759,7.975,7.975,0,0,1-4.935,1.7,8.13,8.13,0,0,1-.948-.055,11.3,11.3,0,0,0,17.393-9.519q0-.258-.011-.514a8.092,8.092,0,0,0,1.982-2.057" transform="translate(-625.829 -138.971)"/></svg>