<svg xmlns="http://www.w3.org/2000/svg" width="32" height="32" viewBox="0 0 32 32">
  <path id="user" d="M32,16A16,16,0,1,0,5.193,27.786l-.015.013.519.438c.034.029.07.052.1.08.276.229.561.446.852.656.094.068.189.136.285.2q.466.321.955.61c.071.042.143.083.214.123.357.2.721.394,1.094.57l.083.037a15.856,15.856,0,0,0,3.87,1.225l.107.019c.421.073.847.131,1.278.17l.158.012c.429.035.863.058,1.3.058s.866-.023,1.293-.057l.162-.012q.641-.058,1.267-.167l.109-.02a15.855,15.855,0,0,0,3.815-1.2l.133-.061q.538-.253,1.054-.545.128-.072.255-.147c.313-.184.621-.377.92-.582.108-.073.213-.151.319-.227.255-.184.506-.374.75-.572.054-.044.112-.081.165-.126l.532-.445-.016-.013A15.959,15.959,0,0,0,32,16ZM1.164,16A14.836,14.836,0,1,1,25.839,27.091a4.36,4.36,0,0,0-.52-.312l-4.926-2.463a1.29,1.29,0,0,1-.717-1.16v-1.72c.114-.141.234-.3.359-.475a11.856,11.856,0,0,0,1.522-2.981,2.112,2.112,0,0,0,1.213-1.914V14a2.117,2.117,0,0,0-.516-1.378V9.91a4.693,4.693,0,0,0-1.1-3.412C20.087,5.274,18.351,4.655,16,4.655s-4.087.62-5.159,1.843a4.693,4.693,0,0,0-1.1,3.412v2.715A2.12,2.12,0,0,0,9.229,14v2.063a2.116,2.116,0,0,0,.78,1.641,10.932,10.932,0,0,0,1.8,3.717v1.684a1.3,1.3,0,0,1-.676,1.139l-4.6,2.509a4.2,4.2,0,0,0-.438.277A14.8,14.8,0,0,1,1.164,16ZM24.7,28q-.305.222-.621.428c-.1.063-.193.126-.291.187-.275.17-.554.332-.839.483l-.19.1a14.825,14.825,0,0,1-2.029.859l-.074.025q-.547.182-1.108.321h0c-.377.093-.759.17-1.143.234l-.031.006c-.361.059-.726.1-1.091.133l-.194.015c-.361.027-.724.045-1.089.045s-.737-.018-1.1-.045l-.19-.015c-.369-.033-.736-.076-1.1-.136l-.049-.009a14.781,14.781,0,0,1-2.263-.565l-.069-.023q-.549-.187-1.083-.415l-.008,0c-.336-.145-.666-.305-.992-.475-.042-.022-.086-.043-.127-.066-.3-.159-.588-.33-.875-.51l-.253-.162c-.264-.173-.525-.353-.778-.543l-.077-.061.056-.031,4.6-2.509a2.46,2.46,0,0,0,1.283-2.161v-2.1l-.134-.162a9.714,9.714,0,0,1-1.746-3.617L11.039,17l-.2-.129a.964.964,0,0,1-.447-.81V14a.95.95,0,0,1,.324-.712l.192-.173V9.877L10.9,9.8a3.5,3.5,0,0,1,.812-2.537C12.557,6.305,14,5.818,16,5.818s3.43.483,4.274,1.435A3.563,3.563,0,0,1,21.1,9.8l-.005,3.317.192.173a.951.951,0,0,1,.324.712v2.063a.972.972,0,0,1-.687.916l-.289.089-.093.288a10.764,10.764,0,0,1-1.452,2.928c-.152.215-.3.406-.428.552L18.513,21v2.152a2.446,2.446,0,0,0,1.36,2.2L24.8,27.82l.093.048C24.83,27.915,24.766,27.959,24.7,28Z" fill="#838296"/>
</svg>
