<svg xmlns="http://www.w3.org/2000/svg" width="24.321" height="30.607" viewBox="0 0 24.321 30.607">
  <path id="man-with-tie" d="M53.447,20.21A4.878,4.878,0,0,0,49.659,18.4H46.887v-2.13a11.238,11.238,0,0,0,1.535-2.34,3.022,3.022,0,0,0,2-2.126c.505-1.432.279-2.717-.539-3.178a7.791,7.791,0,0,0-1.365-5.743,7.331,7.331,0,0,0-11.648,0A7.8,7.8,0,0,0,35.5,8.6c-.844.445-1.092,1.745-.58,3.2a2.925,2.925,0,0,0,2.022,2.132,9.308,9.308,0,0,0,1.6,2.458V18.4H35.733A4.947,4.947,0,0,0,31.91,20.21,6.292,6.292,0,0,0,30.5,24.247v2.906a.786.786,0,0,0,.445.7,26.781,26.781,0,0,0,11.8,2.753,26.58,26.58,0,0,0,4.736-.425,23.033,23.033,0,0,0,6.98-2.354.756.756,0,0,0,.362-.676V24.247A6.266,6.266,0,0,0,53.447,20.21Zm-9.858,3.319a.535.535,0,0,1-.535.535h-.785a.535.535,0,0,1-.535-.535v-.785a.535.535,0,0,1,.535-.535h.785a.535.535,0,0,1,.535.535Zm.5-2.637a2.073,2.073,0,0,0-.993-.229h-.8a2.073,2.073,0,0,0-.993.229L40,19.585a.818.818,0,0,0,.084-.37V17.824a4.368,4.368,0,0,0,2.576.866,4.6,4.6,0,0,0,2.68-.94v1.465a.868.868,0,0,0,.086.3Zm-5.953-17.1a5.774,5.774,0,0,1,9.117,0,6.145,6.145,0,0,1,1.062,4.73c-5.111,1.25-7.559-3.55-7.66-3.753a.781.781,0,0,0-1.472.215c-.006.034-.557,3.033-2.1,3.553A6.139,6.139,0,0,1,38.137,3.792Zm-1.906,6.352c2.159.171,3.446-1.691,4.012-3.181a10.105,10.105,0,0,0,1.3,1.358,7.7,7.7,0,0,0,5.119,1.97,12.253,12.253,0,0,0,2.452-.253,2.437,2.437,0,0,1-.143,1.243,2.139,2.139,0,0,1-.72,1.085.781.781,0,0,0-.976.419c-.891,2-2.624,4.344-4.577,4.344S39,14.781,38.113,12.771a.781.781,0,0,0-1.008-.407,2.152,2.152,0,0,1-.717-1.083A2.49,2.49,0,0,1,36.232,10.143Zm-4.185,14.1c0-2.061,1.31-4.305,3.686-4.305h2.484l2.076,2.107a2.273,2.273,0,0,0-.105.669v.8a2.093,2.093,0,0,0,.633,1.5l-.693,3.889a25.7,25.7,0,0,1-8.082-2.248Zm9.668,4.771.6-3.408h.77l.6,3.412C43.051,29.044,42.4,29.046,41.715,29.018Zm11.562-2.337a22.867,22.867,0,0,1-6.156,1.977c-.582.1-1.2.2-1.881.263l-.708-3.9a2.069,2.069,0,0,0,.6-1.5v-.8a2.265,2.265,0,0,0-.071-.669l2.11-2.107h2.485c2.376,0,3.617,2.245,3.617,4.305v2.434Z" transform="translate(-30.501)" fill="#838296"/>
</svg>
