<svg xmlns="http://www.w3.org/2000/svg" viewBox="0 0 15.998 13.294"><defs><style>.a{fill:#f7f7f7;}</style></defs><g transform="translate(0 0)"><path class="a" d="M8,26.331A8,8,0,0,0,1.813,39.4c.175-1.4,1.573-2.583,3.533-3.144a3.82,3.82,0,0,0,5.256.048c1.977.61,3.345,1.863,3.39,3.319A8,8,0,0,0,8,26.331ZM8,36.382A2.857,2.857,0,0,1,6.58,36,3.621,3.621,0,0,1,4.842,32.83,3.376,3.376,0,0,1,8,29.278a3.376,3.376,0,0,1,3.158,3.552A3.611,3.611,0,0,1,9.37,36.025,2.851,2.851,0,0,1,8,36.382Z" transform="translate(0 -26.331)"/></g></svg>