<svg xmlns="http://www.w3.org/2000/svg" viewBox="0 0 28.478 20.906"><defs><style>.a{fill:#838296;}</style></defs><g transform="translate(0 0)"><g transform="translate(21.845 8.921)"><path class="a" d="M396.031,228.939a8.139,8.139,0,0,0-2.863-.49.417.417,0,1,0,0,.834,7.2,7.2,0,0,1,2.49.4.417.417,0,1,0,.373-.746Z" transform="translate(-392.751 -228.449)"/></g><path class="a" d="M27.205,83.416l-1.723-.492a.175.175,0,0,1-.126-.167v-.575a3.135,3.135,0,0,0,.4-.327,3.069,3.069,0,0,0,.939-2.22V78.84l.167-.333a2.661,2.661,0,0,0,.279-1.184v-2.15a.417.417,0,0,0-.417-.417H22.709A2.65,2.65,0,0,0,20.061,77.4v.025a2.213,2.213,0,0,0,.232.984l.214.427v.681a3.255,3.255,0,0,0,1.338,2.632v.6c0,.093,0,.131-.344.23l-.841.24-2.432-.884a.417.417,0,0,0-.114-.319l-.777-.816V79.836c.082-.068.163-.137.242-.211a4.9,4.9,0,0,0,1.543-3.559V74.971a4.822,4.822,0,0,0,.446-2.028v-4.46a.417.417,0,0,0-.417-.417H12.906a3.99,3.99,0,0,0-3.985,3.985v.892a4.822,4.822,0,0,0,.446,2.028v.942a5.1,5.1,0,0,0,1.784,3.89v1.4l-.777.816a.417.417,0,0,0-.114.319l-2.567.933a2.188,2.188,0,0,0-.516.27l-.4-.2a3.186,3.186,0,0,0,1.6-1.293.417.417,0,0,0,0-.373,7.411,7.411,0,0,1-.366-2.59c-.01-.295-.019-.574-.037-.822a3.629,3.629,0,0,0-3.538-3.51,3.629,3.629,0,0,0-3.538,3.51c-.018.248-.027.527-.037.822a7.411,7.411,0,0,1-.366,2.59.417.417,0,0,0,0,.373,3.186,3.186,0,0,0,1.6,1.292L.97,83.9A1.746,1.746,0,0,0,0,85.473v3.082a.417.417,0,0,0,.834,0V85.473a.916.916,0,0,1,.509-.824l1.394-.7.485.461a1.754,1.754,0,0,0,2.418,0l.485-.461.455.227a2.2,2.2,0,0,0-.336,1.165v3.211a.417.417,0,0,0,.834,0V85.344a1.371,1.371,0,0,1,.9-1.285l2.706-.984,1.127,1.69a.86.86,0,0,0,.633.38q.043,0,.086,0a.86.86,0,0,0,.609-.253l.687-.687v4.345a.417.417,0,0,0,.834,0V84.21l.687.687a.859.859,0,0,0,.609.253q.043,0,.086,0a.86.86,0,0,0,.633-.38l1.127-1.69,2.706.984a1.371,1.371,0,0,1,.9,1.285v3.211a.417.417,0,0,0,.834,0V85.344a2.205,2.205,0,0,0-.617-1.526l.1-.029a2.288,2.288,0,0,0,.388-.14l1.065,1.065v3.842a.417.417,0,0,0,.834,0V84.713l1.058-1.058a.992.992,0,0,0,.177.07l1.723.492a.925.925,0,0,1,.668.886v3.451a.417.417,0,0,0,.834,0V85.1A1.763,1.763,0,0,0,27.205,83.416ZM2.676,82.679a3,3,0,0,1-1.339-.86,4.6,4.6,0,0,0,.238-1,3.111,3.111,0,0,0,1.1,1.358Zm2.39,1.129a.921.921,0,0,1-1.269,0l-.388-.369a.863.863,0,0,0,.1-.407v-.445a3.1,3.1,0,0,0,1.842,0v.444a.863.863,0,0,0,.1.408Zm-.634-1.915a2.262,2.262,0,0,1-2.259-2.259.415.415,0,0,0-.486-.411l0-.107c.009-.287.018-.558.035-.79a3.1,3.1,0,0,1,.843-1.945,2.592,2.592,0,0,1,3.726,0,3.1,3.1,0,0,1,.843,1.945c.016.232.025.5.035.79l0,.074a3.748,3.748,0,0,0-2.06-1.506,5.236,5.236,0,0,0-1.587-.251.417.417,0,0,0-.289.127l-.753.781a.417.417,0,0,0,.6.579l.626-.649a3.374,3.374,0,0,1,2.949,1.714A2.254,2.254,0,0,1,4.432,81.893Zm1.755.787v-.5a3.086,3.086,0,0,0,1.1-1.36,4.592,4.592,0,0,0,.238,1A3.013,3.013,0,0,1,6.187,82.681ZM10.2,75.913V74.878a.417.417,0,0,0-.041-.181,4,4,0,0,1-.4-1.753v-.892A3.155,3.155,0,0,1,12.906,68.9h5.827v4.043a4,4,0,0,1-.4,1.753.417.417,0,0,0-.041.181v1.188a4,4,0,0,1-1.279,2.951,4.151,4.151,0,0,1-.32.271l-.007.005a4.011,4.011,0,0,1-2.707.808A4.132,4.132,0,0,1,10.2,75.913Zm2.349,8.394a.026.026,0,0,1-.023.008.027.027,0,0,1-.021-.013l-1.3-1.946.417-.439,1.968,1.345Zm1.694-1.61-2.259-1.544v-.779a4.7,4.7,0,0,0,1.935.559q.165.011.328.011a4.832,4.832,0,0,0,2.255-.553v.762ZM15.983,84.3a.027.027,0,0,1-.021.013.026.026,0,0,1-.023-.008l-1.044-1.044,1.968-1.345.418.439Zm7.617-.352L22.654,83a1.145,1.145,0,0,0,.026-.248V82.58a2.925,2.925,0,0,0,.826.146h.1a3.1,3.1,0,0,0,.92-.139v.168a1,1,0,0,0,.03.243Zm1.573-2.7a2.242,2.242,0,0,1-1.643.637,2.335,2.335,0,0,1-2.189-2.37v-.78a.417.417,0,0,0-.044-.187l-.258-.515a1.374,1.374,0,0,1-.144-.611V77.4a1.815,1.815,0,0,1,1.813-1.813h3.6v1.733a1.823,1.823,0,0,1-.191.811l-.211.421a.417.417,0,0,0-.044.187v.892A2.241,2.241,0,0,1,25.174,81.255Z" transform="translate(0 -68.066)"/><g transform="translate(25.86 17.395)"><path class="a" d="M465.34,380.814a.417.417,0,0,0-.417.417v2.676a.417.417,0,1,0,.834,0v-2.676A.417.417,0,0,0,465.34,380.814Z" transform="translate(-464.923 -380.814)"/></g><g transform="translate(1.784 17.947)"><path class="a" d="M32.494,390.728a.417.417,0,0,0-.417.417v2.125a.417.417,0,0,0,.834,0v-2.125A.417.417,0,0,0,32.494,390.728Z" transform="translate(-32.077 -390.728)"/></g><g transform="translate(10.705 3.79)"><path class="a" d="M199.417,137.441c-1.578-1.578-4.879-1.276-6.225-1.073a.856.856,0,0,0-.732.853v.961a.417.417,0,1,0,.834,0v-.961a.028.028,0,0,1,.022-.028,13.179,13.179,0,0,1,2.71-.132,4.306,4.306,0,0,1,2.8.971.417.417,0,0,0,.59-.59Z" transform="translate(-192.46 -136.203)"/></g><g transform="translate(8.921 18.288)"><path class="a" d="M160.8,396.853a.417.417,0,0,0-.417.417v1.784a.417.417,0,1,0,.834,0V397.27A.417.417,0,0,0,160.8,396.853Z" transform="translate(-160.384 -396.853)"/></g><g transform="translate(18.734 18.288)"><path class="a" d="M337.223,396.853a.417.417,0,0,0-.417.417v1.784a.417.417,0,1,0,.834,0V397.27A.417.417,0,0,0,337.223,396.853Z" transform="translate(-336.806 -396.853)"/></g></g></svg>