<svg xmlns="http://www.w3.org/2000/svg" viewBox="0 0 16.352 13.049"><defs><style>.a{fill:#f7f7f7;}</style></defs><g transform="translate(0 -41.472)"><g transform="translate(0 41.472)"><path class="a" d="M15.7,45.285V43.1a1.636,1.636,0,0,0-1.631-1.631H1.631A1.636,1.636,0,0,0,0,43.1V52.89a1.636,1.636,0,0,0,1.631,1.631H14.068A1.636,1.636,0,0,0,15.7,52.89V50.708a1.221,1.221,0,0,0,.652-1.081V46.365A1.221,1.221,0,0,0,15.7,45.285ZM14.068,49.22h-2.2a1.223,1.223,0,1,1,0-2.447h2.2Z" transform="translate(0 -41.472)"/></g></g></svg>