<svg xmlns="http://www.w3.org/2000/svg" width="26" height="26" viewBox="0 0 26 26"><defs><style>.a{fill:#113269;}.b{fill:#fff;}</style></defs><g transform="translate(16 6203)"><circle class="a" cx="13" cy="13" r="13" transform="translate(-16 -6203)"/><g transform="matrix(0.985, 0.174, -0.174, 0.985, -1077.017, -91.975)"><g transform="translate(-9 -6200)"><path class="b" d="M106.087,0H97.78A1.785,1.785,0,0,0,96,1.78V17.206a1.785,1.785,0,0,0,1.78,1.78h8.307a1.785,1.785,0,0,0,1.78-1.78V1.78A1.785,1.785,0,0,0,106.087,0ZM99.56.89h4.747v.593H99.56Zm2.373,16.91a1.187,1.187,0,1,1,1.187-1.187,1.187,1.187,0,0,1-1.187,1.187Zm4.747-3.56H97.187V2.373h9.493Z" transform="translate(-96)"/></g><g transform="translate(-7.038 -6196.118)"><path class="b" d="M4.479.6c.1,0,.21,0,.315.01l.283.493H4.888C2.665,1.156.861,2.655.861,4.458A3.081,3.081,0,0,0,2.822,7.2,3.468,3.468,0,0,1,.4,4.05C.4,2.141,2.224.6,4.479.6" transform="translate(-0.4 -0.6)"/><path class="b" d="M11.53,9.377C9.286,9.5,7.493,10.74,7.377,12.229a1.549,1.549,0,0,0-.01.22,2.546,2.546,0,0,0,1.374,2.107A2.913,2.913,0,0,1,7,12.082C7,10.4,8.845,8.989,11.194,8.8Z" transform="translate(-6.308 -7.94)"/><path class="b" d="M17.43,19.514c-2.191.063-3.963,1.279-3.963,2.737a2.029,2.029,0,0,0,.566,1.353,2.234,2.234,0,0,1-.933-1.73c0-1.5,1.782-2.758,4.026-2.873Z" transform="translate(-11.768 -17.071)"/><path class="b" d="M32.6,17.6c-.1,0-.21,0-.315-.01l-.285-.5h.189c2.223-.052,4.026-1.562,4.026-3.355A3.081,3.081,0,0,0,34.254,11a3.472,3.472,0,0,1,2.422,3.146c0,1.908-1.824,3.45-4.079,3.45" transform="translate(-28.687 -9.91)"/><path class="b" d="M26.8,15.98c2.244-.126,4.037-1.363,4.152-2.852a1.548,1.548,0,0,0,.01-.22A2.546,2.546,0,0,0,29.589,10.8a2.9,2.9,0,0,1,1.741,2.474c0,1.678-1.845,3.093-4.194,3.282Z" transform="translate(-24.032 -9.731)"/><path class="b" d="M22.6,15.779c2.191-.063,3.963-1.279,3.963-2.726A2.029,2.029,0,0,0,26,11.7a2.234,2.234,0,0,1,.933,1.73c0,1.5-1.782,2.758-4.026,2.873Z" transform="translate(-20.272 -10.536)"/></g></g></g></svg>