<svg xmlns="http://www.w3.org/2000/svg" width="17.191" height="20.629" viewBox="0 0 17.191 20.629"><defs><style>.a,.b{fill:#838296;}.b{stroke:#838296;stroke-width:0.1px;}</style></defs><g transform="translate(-42.667)"><g transform="translate(42.667)"><rect class="a" width="2.579" height="0.86" transform="translate(7.306 1.289)"/><rect class="a" width="0.86" height="0.86" transform="translate(4.298 15.472)"/><rect class="a" width="0.86" height="0.86" transform="translate(4.298 13.753)"/><rect class="a" width="0.86" height="0.86" transform="translate(6.017 15.472)"/><path class="a" d="M59.428,7.306a3.268,3.268,0,0,0-2.149.823V1.289A1.289,1.289,0,0,0,55.99,0H46.535a1.289,1.289,0,0,0-1.289,1.289V6.447H43.956a1.289,1.289,0,0,0-1.289,1.289V8.6a1.284,1.284,0,0,0,.329.86,1.284,1.284,0,0,0-.329.86v.86a1.284,1.284,0,0,0,.329.86,1.284,1.284,0,0,0-.329.86v.86a1.284,1.284,0,0,0,.329.86,1.284,1.284,0,0,0-.329.86v.86a1.289,1.289,0,0,0,1.289,1.289h1.289V19.34a1.289,1.289,0,0,0,1.289,1.289H55.99a1.289,1.289,0,0,0,1.289-1.289V10.018A1.972,1.972,0,0,1,59,8.211V20.2h.86V7.736A.43.43,0,0,0,59.428,7.306ZM46.535.86H55.99a.43.43,0,0,1,.43.43V2.579H46.105V1.289A.43.43,0,0,1,46.535.86ZM43.527,13.753v-.86a.43.43,0,0,1,.43-.43h1.289v1.719H43.956A.43.43,0,0,1,43.527,13.753Zm0-2.579v-.86a.43.43,0,0,1,.43-.43h1.289V11.6H43.956A.43.43,0,0,1,43.527,11.174Zm0-3.438a.43.43,0,0,1,.43-.43h1.289V9.025H43.956a.43.43,0,0,1-.43-.43Zm.43,9.025a.43.43,0,0,1-.43-.43v-.86a.43.43,0,0,1,.43-.43h1.289v1.719ZM55.99,19.77H46.535a.43.43,0,0,1-.43-.43V18.05H56.42V19.34A.43.43,0,0,1,55.99,19.77Zm.43-2.579H46.105V3.438H56.42Z" transform="translate(-42.667)"/><rect class="a" width="0.86" height="0.86" transform="translate(12.034 4.298)"/><rect class="a" width="0.86" height="0.86" transform="translate(12.034 6.017)"/><rect class="a" width="0.86" height="0.86" transform="translate(10.315 4.298)"/><g transform="translate(4.868 6.876)"><path class="b" d="M4.182.6c.1,0,.194,0,.292.01l.263.457H4.561C2.5,1.115.828,2.506.828,4.178A2.857,2.857,0,0,0,2.646,6.716,3.216,3.216,0,0,1,.4,3.8,3.524,3.524,0,0,1,4.182.6" transform="translate(-0.4 -0.6)"/><path class="b" d="M11.2,9.335C9.12,9.451,7.457,10.6,7.35,11.979a1.436,1.436,0,0,0-.01.2,2.361,2.361,0,0,0,1.274,1.954A2.7,2.7,0,0,1,7,11.843C7,10.288,8.711,8.975,10.889,8.8Z" transform="translate(-6.358 -8.003)"/><path class="b" d="M17.115,19.476c-2.032.058-3.675,1.186-3.675,2.538a1.882,1.882,0,0,0,.525,1.254,2.072,2.072,0,0,1-.865-1.6c0-1.39,1.653-2.557,3.733-2.664Z" transform="translate(-11.865 -17.211)"/><path class="b" d="M32.554,17.116c-.1,0-.194,0-.292-.01L32,16.649h.175c2.061-.049,3.733-1.449,3.733-3.111A2.857,2.857,0,0,0,34.09,11a3.219,3.219,0,0,1,2.246,2.917,3.524,3.524,0,0,1-3.782,3.2" transform="translate(-28.928 -9.989)"/><path class="b" d="M26.8,15.6c2.081-.117,3.743-1.264,3.85-2.645a1.436,1.436,0,0,0,.01-.2A2.361,2.361,0,0,0,29.386,10.8,2.69,2.69,0,0,1,31,13.095c0,1.556-1.711,2.868-3.889,3.043Z" transform="translate(-24.233 -9.808)"/><path class="b" d="M22.6,15.482c2.032-.058,3.675-1.186,3.675-2.528A1.882,1.882,0,0,0,25.75,11.7a2.072,2.072,0,0,1,.865,1.6c0,1.39-1.653,2.557-3.733,2.664Z" transform="translate(-20.442 -10.621)"/></g></g></g></svg>