<svg xmlns="http://www.w3.org/2000/svg" viewBox="0 0 30.844 35.554"><defs><style>.a{fill:#fff;}</style></defs><g transform="translate(-21.961 0)"><g transform="translate(21.961 0)"><g transform="translate(0 0)"><path class="a" d="M51.649,6.123,40.8.246a2.289,2.289,0,0,0-3,.9l-6.35,11.8H23.72A1.74,1.74,0,0,0,21.961,14.7V33.8a1.74,1.74,0,0,0,1.759,1.759H48.389A1.74,1.74,0,0,0,50.148,33.8V29.333h.729a.678.678,0,0,0,.686-.686V23.542a.678.678,0,0,0-.686-.686h-.729v-5.02a1.79,1.79,0,0,0-1.373-1.716L52.55,9.126A2.249,2.249,0,0,0,51.649,6.123ZM43.927,3.506l-6.779,12.57H35.218l7.25-13.343ZM39.036,1.79a.844.844,0,0,1,1.115-.343l1.073.6L33.673,16.077h-2.36ZM23.291,14.661a.414.414,0,0,1,.386-.343H30.67l-.944,1.716H23.677a1.188,1.188,0,0,0-.386.043ZM48.732,33.8a.385.385,0,0,1-.386.386H23.677a.385.385,0,0,1-.386-.386V17.836a.385.385,0,0,1,.386-.386H48.3a.385.385,0,0,1,.386.386v5.02H46.072a2.06,2.06,0,0,0-2.059,2.059v2.36a2.06,2.06,0,0,0,2.059,2.059h2.66ZM50.1,24.228h.043v3.732H46.072a.678.678,0,0,1-.686-.686v-2.36a.678.678,0,0,1,.686-.686Zm1.2-15.788-4.119,7.637H38.693L45.128,4.193l5.835,3.175A.75.75,0,0,1,51.306,8.44Z" transform="translate(-21.961 0)"/></g></g><g transform="translate(45.208 7.412)"><path class="a" d="M242.19,69.493l-.343-.172a1.878,1.878,0,0,0-2.488.729l-.429.815a1.807,1.807,0,0,0-.129,1.416,1.728,1.728,0,0,0,.9,1.073l.343.172a1.953,1.953,0,0,0,.858.215,1.93,1.93,0,0,0,1.63-.944l.429-.815A1.922,1.922,0,0,0,242.19,69.493Zm-.472,1.845-.429.815a.484.484,0,0,1-.644.172l-.343-.215a.631.631,0,0,1-.215-.257.324.324,0,0,1,.043-.343l.429-.815a.569.569,0,0,1,.429-.257.387.387,0,0,1,.215.043l.343.172A.667.667,0,0,1,241.718,71.338Z" transform="translate(-238.71 -69.108)"/></g></g></svg>