<svg xmlns="http://www.w3.org/2000/svg" xmlns:xlink="http://www.w3.org/1999/xlink" viewBox="0 0 121.612 117.713"><defs><style>.a{fill:#838296;opacity:0.227;}.b{fill:url(#a);}.c{fill:url(#b);}.d{fill:url(#c);}.e{fill:url(#d);}.f{fill:url(#e);}.g{fill:rgba(31,10,10,0.41);}.h{fill:#f8f8f8;}.i{fill:url(#f);}.j{fill:url(#g);}.k{fill:url(#h);}.l{fill:url(#i);}.m{opacity:0.334;}.n{fill:url(#j);}</style><linearGradient id="a" x1="0.166" y1="0.194" x2="0.071" y2="0.018" gradientUnits="objectBoundingBox"><stop offset="0" stop-color="#ffb92d"/><stop offset="1" stop-color="#f2722f"/></linearGradient><linearGradient id="b" x1="0.331" y1="-0.12" x2="0.318" y2="0.16" gradientUnits="objectBoundingBox"><stop offset="0" stop-color="#ffb92d"/><stop offset="0.162" stop-color="#f2722f"/><stop offset="0.74" stop-color="#f59303"/><stop offset="1" stop-color="#b71c1c"/></linearGradient><linearGradient id="c" x1="0.497" y1="0.009" x2="0.497" y2="-0.849" gradientUnits="objectBoundingBox"><stop offset="0" stop-color="#ff4c54"/><stop offset="1" stop-color="#be3f45"/></linearGradient><linearGradient id="d" x1="0.725" y1="0.036" x2="0.679" y2="1.044" gradientUnits="objectBoundingBox"><stop offset="0" stop-color="#a7ff40"/><stop offset="0.676" stop-color="#1ab353"/><stop offset="1" stop-color="#071c12" stop-opacity="0.616"/></linearGradient><linearGradient id="e" x1="0.589" y1="0.245" x2="0.564" y2="0.987" gradientUnits="objectBoundingBox"><stop offset="0" stop-color="#71bf15"/><stop offset="0.829" stop-color="#1ab353"/><stop offset="1" stop-color="#125c39" stop-opacity="0.616"/></linearGradient><linearGradient id="f" x1="0.927" y1="0.414" x2="0.88" y2="0.399" gradientUnits="objectBoundingBox"><stop offset="0" stop-color="#f59500"/><stop offset="0.828" stop-color="#f37827"/><stop offset="1" stop-color="#d95815"/></linearGradient><linearGradient id="g" x1="0.659" y1="0.567" x2="0.533" y2="0.531" gradientUnits="objectBoundingBox"><stop offset="0" stop-color="#f2ae2f"/><stop offset="0" stop-color="#f49b0c"/><stop offset="1" stop-color="#f59500"/></linearGradient><linearGradient id="h" x1="0.484" y1="-2.152" x2="0.467" y2="-2.526" gradientUnits="objectBoundingBox"><stop offset="0" stop-color="#be3f45" stop-opacity="0"/><stop offset="1" stop-color="#be3f45"/></linearGradient><linearGradient id="i" x1="0.328" y1="0.312" x2="0.677" y2="0.517" gradientUnits="objectBoundingBox"><stop offset="0" stop-color="#f2722f"/><stop offset="1" stop-color="#f59500"/></linearGradient><linearGradient id="j" x1="0.5" x2="0.5" y2="1" gradientUnits="objectBoundingBox"><stop offset="0" stop-color="#f8b923"/><stop offset="1" stop-color="#f6fc5f"/></linearGradient></defs><g transform="translate(-578.388 -587.287)"><ellipse class="a" cx="26.5" cy="5" rx="26.5" ry="5" transform="translate(627 695)"/><g transform="translate(33.819 376.727)"><g transform="translate(544.568 211.578)"><path class="b" d="M79.469,74.337H6.994A6.994,6.994,0,0,1,0,67.343V6.994A6.994,6.994,0,0,1,6.994,0H79.469a7.124,7.124,0,0,1,5.793,3.074,6.725,6.725,0,0,1,1.2,3.92V67.343A6.994,6.994,0,0,1,79.469,74.337Z" transform="translate(36.065 10.799) rotate(17)"/><path class="c" d="M77.618,71.4H6.831A6.775,6.775,0,0,1,0,64.679V6.718A6.775,6.775,0,0,1,6.831,0H77.618a6.775,6.775,0,0,1,6.831,6.718V64.679A6.775,6.775,0,0,1,77.618,71.4Z" transform="translate(36.851 12.381) rotate(17)"/><path class="d" d="M0,4.32V36.454a6.994,6.994,0,0,0,6.994,6.994H79.469a6.994,6.994,0,0,0,6.994-6.994V4.32A4.32,4.32,0,0,0,82.143,0H4.32A4.32,4.32,0,0,0,0,4.32Z" transform="translate(27.034 40.339) rotate(17)"/><g transform="translate(42.349 0)"><path class="e" d="M72.346,33.976,55.708,2.022A3.764,3.764,0,0,0,50.436.543L-.062,31.605Z" transform="translate(10.079 -1) rotate(17)"/><path class="f" d="M71.7,31.054l-16-29.032A3.764,3.764,0,0,0,50.436.543L0,31.054Z" transform="translate(9.079 0) rotate(17)"/><g transform="translate(20.909 28.049) rotate(-14)"><g transform="translate(0 0)"><g transform="translate(0 0)"><path class="g" d="M5.3,0c.136,0,.273,0,.409.014l.368.641H5.834C2.944.722.6,2.672.6,5.016A4,4,0,0,0,3.149,8.573,4.508,4.508,0,0,1,0,4.484C0,2,2.372,0,5.3,0"/><path class="g" d="M5.888.75C2.971.913.641,2.522.491,4.457a2.013,2.013,0,0,0-.014.286,3.31,3.31,0,0,0,1.786,2.74A3.787,3.787,0,0,1,0,4.266C0,2.085,2.4.245,5.452,0Z" transform="translate(0.9 1.118)"/><path class="g" d="M5.629.668C2.781.75.477,2.331.477,4.225a2.638,2.638,0,0,0,.736,1.758A2.9,2.9,0,0,1,0,3.735C0,1.786,2.317.15,5.234,0Z" transform="translate(1.731 2.508)"/><path class="g" d="M.777,8.573c-.136,0-.273,0-.409-.014L0,7.919H.245c2.89-.068,5.234-2.031,5.234-4.362A4,4,0,0,0,2.93,0,4.513,4.513,0,0,1,6.079,4.089c0,2.481-2.372,4.484-5.3,4.484" transform="translate(4.307 1.418)"/><path class="g" d="M0,6.733C2.917,6.57,5.248,4.961,5.4,3.026a2.013,2.013,0,0,0,.014-.286A3.31,3.31,0,0,0,3.626,0,3.771,3.771,0,0,1,5.888,3.217c0,2.181-2.4,4.021-5.452,4.266Z" transform="translate(3.598 1.39)"/><path class="g" d="M0,5.3C2.849,5.22,5.152,3.639,5.152,1.758A2.638,2.638,0,0,0,4.416,0,2.9,2.9,0,0,1,5.629,2.249C5.629,4.2,3.312,5.834.4,5.984Z" transform="translate(3.026 1.513)"/><path class="g" d="M7.851,4.021V1.4A1.175,1.175,0,0,0,7.8.981.39.39,0,0,0,7.633.763.715.715,0,0,0,7.36.682a3.452,3.452,0,0,0-.4-.014A3.084,3.084,0,0,0,6.6.682C6.488.682,6.406.7,6.324.7s-.164.014-.232.014V4.021H5V.164q.225-.041.532-.082C5.7.055,5.915.041,6.147.027S6.665,0,6.979,0a7.884,7.884,0,0,1,.859.041,1.55,1.55,0,0,1,.613.177.865.865,0,0,1,.368.423,1.939,1.939,0,0,1,.123.763V4.021ZM2.971,2.045c0-.341-.014-.613-.027-.8A.871.871,0,0,0,2.835.831a.365.365,0,0,0-.273-.15A4.372,4.372,0,0,0,2.072.654H2a4.373,4.373,0,0,0-.491.027.391.391,0,0,0-.273.15.871.871,0,0,0-.109.409c-.014.191-.027.45-.027.8v.082c0,.327,0,.586.014.763a.72.72,0,0,0,.109.4.365.365,0,0,0,.273.15c.123.014.286.014.5.014h.068c.218,0,.382,0,.5-.014a.337.337,0,0,0,.259-.15.859.859,0,0,0,.109-.4c.014-.177.014-.436.014-.763V2.045ZM4.1,2.085a7.586,7.586,0,0,1-.055,1.063,1.153,1.153,0,0,1-.259.613,1.173,1.173,0,0,1-.613.286,7.929,7.929,0,0,1-1.131.068A7.714,7.714,0,0,1,.927,4.048a1,1,0,0,1-.613-.286.984.984,0,0,1-.259-.613A7.342,7.342,0,0,1,0,2.085,7.571,7.571,0,0,1,.068,1,1.122,1.122,0,0,1,.354.368,1.078,1.078,0,0,1,.981.082,7.363,7.363,0,0,1,2.058.014,7.363,7.363,0,0,1,3.135.082a1.169,1.169,0,0,1,.627.286A1.078,1.078,0,0,1,4.048,1,7.89,7.89,0,0,1,4.1,2.085Z" transform="translate(12.662 3.517)"/><path class="g" d="M12.744,4.035,11.736,2.372,10.727,4.035H9.541l1.24-1.99L9.6.123h1.186l.981,1.595L12.744.123H13.9L12.717,2.045l1.254,1.99Zm-4.961-1.8H6.747a3.206,3.206,0,0,0-.382.014.39.39,0,0,0-.232.068.334.334,0,0,0-.123.191,1.2,1.2,0,0,0-.041.354.941.941,0,0,0,.055.382.328.328,0,0,0,.164.191.554.554,0,0,0,.286.068,3.707,3.707,0,0,0,.409.014c.273,0,.491-.014.654-.027a1.223,1.223,0,0,0,.245-.027Zm1.1,1.717a3.067,3.067,0,0,1-.545.082c-.177.027-.382.041-.627.055s-.532.027-.831.027c-.273,0-.518,0-.763-.014a1.778,1.778,0,0,1-.641-.136.947.947,0,0,1-.45-.382,1.4,1.4,0,0,1-.164-.736,1.772,1.772,0,0,1,.109-.682.8.8,0,0,1,.313-.354,1.3,1.3,0,0,1,.5-.136c.191-.014.409-.014.654-.014H7.8V1.4A1.737,1.737,0,0,0,7.756.968a.459.459,0,0,0-.15-.232.547.547,0,0,0-.286-.1A4.385,4.385,0,0,0,6.87.627c-.273,0-.518,0-.736.014s-.409.014-.559.027C5.384.682,5.234.7,5.084.709V.164C5.234.136,5.4.109,5.6.082c.164-.027.368-.041.6-.055S6.692,0,6.992,0A7.451,7.451,0,0,1,7.81.041a1.551,1.551,0,0,1,.6.177.865.865,0,0,1,.368.423A1.938,1.938,0,0,1,8.9,1.4V3.953ZM2.9,2.058c0-.341-.014-.613-.027-.8A.726.726,0,0,0,2.753.845.394.394,0,0,0,2.467.7a4.652,4.652,0,0,0-.5-.027,3.084,3.084,0,0,0-.368.014C1.486.682,1.4.7,1.322.7S1.159.709,1.09.709v2.7c.068.014.136.014.232.027.068,0,.164.014.273.014h.368c.232,0,.4,0,.532-.014a.365.365,0,0,0,.273-.15.859.859,0,0,0,.109-.4c.014-.177.014-.436.014-.763V2.058ZM4.048,2.1a7.587,7.587,0,0,1-.055,1.063,1.153,1.153,0,0,1-.259.613,1.173,1.173,0,0,1-.613.286,7.643,7.643,0,0,1-1.1.068c-.286,0-.518-.014-.668-.027a.979.979,0,0,1-.232-.027V5.806H0V.177C.164.15.341.123.545.1.722.068.927.055,1.172.041S1.7.014,2.017.014a6.953,6.953,0,0,1,1.05.068A1.123,1.123,0,0,1,3.68.368,1.278,1.278,0,0,1,3.966,1,6.09,6.09,0,0,1,4.048,2.1Z" transform="translate(22.599 3.503)"/></g></g></g><g transform="translate(20.362 28.048) rotate(-14)"><g transform="translate(0 0)"><g transform="translate(0 0)"><path class="h" d="M5.3,0c.136,0,.273,0,.409.014l.368.641H5.834C2.944.722.6,2.672.6,5.016A4,4,0,0,0,3.149,8.573,4.508,4.508,0,0,1,0,4.484C0,2,2.372,0,5.3,0"/><path class="h" d="M5.888.75C2.971.913.641,2.522.491,4.457a2.013,2.013,0,0,0-.014.286,3.31,3.31,0,0,0,1.786,2.74A3.787,3.787,0,0,1,0,4.266C0,2.085,2.4.245,5.452,0Z" transform="translate(0.9 1.118)"/><path class="h" d="M5.629.668C2.781.75.477,2.331.477,4.225a2.638,2.638,0,0,0,.736,1.758A2.9,2.9,0,0,1,0,3.735C0,1.786,2.317.15,5.234,0Z" transform="translate(1.731 2.508)"/><path class="h" d="M.777,8.573c-.136,0-.273,0-.409-.014L0,7.919H.245c2.89-.068,5.234-2.031,5.234-4.362A4,4,0,0,0,2.93,0,4.513,4.513,0,0,1,6.079,4.089c0,2.481-2.372,4.484-5.3,4.484" transform="translate(4.307 1.418)"/><path class="h" d="M0,6.733C2.917,6.57,5.248,4.961,5.4,3.026a2.013,2.013,0,0,0,.014-.286A3.31,3.31,0,0,0,3.626,0,3.771,3.771,0,0,1,5.888,3.217c0,2.181-2.4,4.021-5.452,4.266Z" transform="translate(3.598 1.39)"/><path class="h" d="M0,5.3C2.849,5.22,5.152,3.639,5.152,1.758A2.638,2.638,0,0,0,4.416,0,2.9,2.9,0,0,1,5.629,2.249C5.629,4.2,3.312,5.834.4,5.984Z" transform="translate(3.026 1.513)"/><path class="h" d="M7.851,4.021V1.4A1.175,1.175,0,0,0,7.8.981.39.39,0,0,0,7.633.763.715.715,0,0,0,7.36.682a3.452,3.452,0,0,0-.4-.014A3.084,3.084,0,0,0,6.6.682C6.488.682,6.406.7,6.324.7s-.164.014-.232.014V4.021H5V.164q.225-.041.532-.082C5.7.055,5.915.041,6.147.027S6.665,0,6.979,0a7.884,7.884,0,0,1,.859.041,1.55,1.55,0,0,1,.613.177.865.865,0,0,1,.368.423,1.939,1.939,0,0,1,.123.763V4.021ZM2.971,2.045c0-.341-.014-.613-.027-.8A.871.871,0,0,0,2.835.831a.365.365,0,0,0-.273-.15A4.372,4.372,0,0,0,2.072.654H2a4.373,4.373,0,0,0-.491.027.391.391,0,0,0-.273.15.871.871,0,0,0-.109.409c-.014.191-.027.45-.027.8v.082c0,.327,0,.586.014.763a.72.72,0,0,0,.109.4.365.365,0,0,0,.273.15c.123.014.286.014.5.014h.068c.218,0,.382,0,.5-.014a.337.337,0,0,0,.259-.15.859.859,0,0,0,.109-.4c.014-.177.014-.436.014-.763V2.045ZM4.1,2.085a7.586,7.586,0,0,1-.055,1.063,1.153,1.153,0,0,1-.259.613,1.173,1.173,0,0,1-.613.286,7.929,7.929,0,0,1-1.131.068A7.714,7.714,0,0,1,.927,4.048a1,1,0,0,1-.613-.286.984.984,0,0,1-.259-.613A7.342,7.342,0,0,1,0,2.085,7.571,7.571,0,0,1,.068,1,1.122,1.122,0,0,1,.354.368,1.078,1.078,0,0,1,.981.082,7.363,7.363,0,0,1,2.058.014,7.363,7.363,0,0,1,3.135.082a1.169,1.169,0,0,1,.627.286A1.078,1.078,0,0,1,4.048,1,7.89,7.89,0,0,1,4.1,2.085Z" transform="translate(12.662 3.517)"/><path class="h" d="M12.744,4.035,11.736,2.372,10.727,4.035H9.541l1.24-1.99L9.6.123h1.186l.981,1.595L12.744.123H13.9L12.717,2.045l1.254,1.99Zm-4.961-1.8H6.747a3.206,3.206,0,0,0-.382.014.39.39,0,0,0-.232.068.334.334,0,0,0-.123.191,1.2,1.2,0,0,0-.041.354.941.941,0,0,0,.055.382.328.328,0,0,0,.164.191.554.554,0,0,0,.286.068,3.707,3.707,0,0,0,.409.014c.273,0,.491-.014.654-.027a1.223,1.223,0,0,0,.245-.027Zm1.1,1.717a3.067,3.067,0,0,1-.545.082c-.177.027-.382.041-.627.055s-.532.027-.831.027c-.273,0-.518,0-.763-.014a1.778,1.778,0,0,1-.641-.136.947.947,0,0,1-.45-.382,1.4,1.4,0,0,1-.164-.736,1.772,1.772,0,0,1,.109-.682.8.8,0,0,1,.313-.354,1.3,1.3,0,0,1,.5-.136c.191-.014.409-.014.654-.014H7.8V1.4A1.737,1.737,0,0,0,7.756.968a.459.459,0,0,0-.15-.232.547.547,0,0,0-.286-.1A4.385,4.385,0,0,0,6.87.627c-.273,0-.518,0-.736.014s-.409.014-.559.027C5.384.682,5.234.7,5.084.709V.164C5.234.136,5.4.109,5.6.082c.164-.027.368-.041.6-.055S6.692,0,6.992,0A7.451,7.451,0,0,1,7.81.041a1.551,1.551,0,0,1,.6.177.865.865,0,0,1,.368.423A1.938,1.938,0,0,1,8.9,1.4V3.953ZM2.9,2.058c0-.341-.014-.613-.027-.8A.726.726,0,0,0,2.753.845.394.394,0,0,0,2.467.7a4.652,4.652,0,0,0-.5-.027,3.084,3.084,0,0,0-.368.014C1.486.682,1.4.7,1.322.7S1.159.709,1.09.709v2.7c.068.014.136.014.232.027.068,0,.164.014.273.014h.368c.232,0,.4,0,.532-.014a.365.365,0,0,0,.273-.15.859.859,0,0,0,.109-.4c.014-.177.014-.436.014-.763V2.058ZM4.048,2.1a7.587,7.587,0,0,1-.055,1.063,1.153,1.153,0,0,1-.259.613,1.173,1.173,0,0,1-.613.286,7.643,7.643,0,0,1-1.1.068c-.286,0-.518-.014-.668-.027a.979.979,0,0,1-.232-.027V5.806H0V.177C.164.15.341.123.545.1.722.068.927.055,1.172.041S1.7.014,2.017.014a6.953,6.953,0,0,1,1.05.068A1.123,1.123,0,0,1,3.68.368,1.278,1.278,0,0,1,3.966,1,6.09,6.09,0,0,1,4.048,2.1Z" transform="translate(22.599 3.503)"/></g></g></g></g><path class="i" d="M-11166.926,9313.018l-5.785-1.77,9.932-32.484-64.526-40.062a5.235,5.235,0,0,1,6.537-3.477l72.673,22.22a5.231,5.231,0,0,1,3.475,6.534l-3.146,10.289h0l-10.426,34.105a7,7,0,0,1-6.687,4.951A6.974,6.974,0,0,1-11166.926,9313.018Z" transform="translate(11257.253 -9207.894)"/><path class="j" d="M67.521,75.706l-60.7-7.049A7.716,7.716,0,0,1,0,60.993V0A2.582,2.582,0,0,0,2.284,2.565L69.3,10.348a7.716,7.716,0,0,1,6.826,7.664V68.042A7.716,7.716,0,0,1,67.521,75.706Z" transform="translate(34.173 16.989) rotate(17)"/><path class="k" d="M80.777,17.6,8.166,9.169A9.231,9.231,0,0,1,0,0V14.575a9.231,9.231,0,0,0,8.166,9.169l72.611,8.433a9.231,9.231,0,0,0,10.3-9.169V8.433A9.231,9.231,0,0,1,80.777,17.6Z" transform="translate(9.426 50.622) rotate(17)"/><path class="l" d="M65.5,74.387,6.622,67.461A7.548,7.548,0,0,1,0,59.93V0A2.526,2.526,0,0,0,2.216,2.52l65.013,7.648A7.548,7.548,0,0,1,73.85,17.7V66.856A7.521,7.521,0,0,1,65.5,74.387Z" transform="translate(34.787 18.252) rotate(17)"/></g><g class="m" transform="translate(604.865 294.271) rotate(-7)"><path class="n" d="M11.805.6c.293,0,.586,0,.88.029l.792,1.378h-.528C6.733,2.154,1.69,6.347,1.69,11.39c0,3.313,2.2,6.157,5.483,7.653C3.156,17.547.4,14.146.4,10.246.4,4.91,5.5.6,11.805.6" transform="translate(-0.4 -0.6)"/><path class="n" d="M19.666,10.413c-6.274.352-11.288,3.812-11.611,7.975A4.33,4.33,0,0,0,8.026,19c0,2.346,1.466,4.427,3.841,5.893C8.906,23.313,7,20.821,7,17.977,7,13.286,12.16,9.328,18.728,8.8Z" transform="translate(-5.065 -6.396)"/><path class="n" d="M25.209,20.437c-6.128.176-11.083,3.577-11.083,7.653a5.675,5.675,0,0,0,1.583,3.782A6.248,6.248,0,0,1,13.1,27.034c0-4.193,4.984-7.711,11.259-8.034Z" transform="translate(-9.376 -13.605)"/><path class="n" d="M33.671,29.442c-.293,0-.586,0-.88-.029L32,28.035h.528c6.216-.147,11.259-4.369,11.259-9.382,0-3.313-2.2-6.157-5.483-7.653,3.988,1.5,6.773,4.867,6.773,8.8,0,5.336-5.1,9.646-11.405,9.646" transform="translate(-22.735 -7.951)"/><path class="n" d="M26.8,25.284c6.274-.352,11.288-3.812,11.611-7.975a4.33,4.33,0,0,0,.029-.616c0-2.346-1.466-4.427-3.841-5.893,2.961,1.554,4.867,4.075,4.867,6.92,0,4.691-5.16,8.649-11.728,9.177Z" transform="translate(-19.06 -7.809)"/><path class="n" d="M22.6,23.105c6.128-.176,11.083-3.577,11.083-7.623A5.675,5.675,0,0,0,32.1,11.7a6.248,6.248,0,0,1,2.609,4.838c0,4.193-4.984,7.711-11.259,8.034Z" transform="translate(-16.091 -8.445)"/></g></g></g></svg>