<svg xmlns="http://www.w3.org/2000/svg" width="174.297" height="47.656" viewBox="0 0 174.297 47.656">
    <defs>
        <style>
            .cls-1,.cls-2{fill:#29afa3;fill-rule:evenodd}.cls-2{fill:#fff}
        </style>
    </defs>
    <g id="logo_onpax_SVG" transform="translate(278 -1204)">
        <g id="logo" transform="translate(-278 1204)">
            <g id="Page-1-Copy">
                <g id="Group-18">
                    <g id="Group">
                        <path id="Fill-2" d="M25.681.575q.968 0 1.919.061l1.772 3.054q-.571-.007-1.149.008C14.43 4.049 3.249 13.355 3.249 24.485c0 7.336 4.859 13.633 12.121 16.973C6.52 38.127.352 30.641.352 21.939.352 10.14 11.692.575 25.681.575" class="cls-1" transform="translate(-.352 -.575)"/>
                        <path id="Fill-4" d="M35.073 12.39c-13.912.8-25.042 8.429-25.7 17.654a12.288 12.288 0 0 0-.08 1.4c0 5.2 3.276 9.819 8.538 13.043C11.234 41 7 35.463 7 29.146 7 18.764 18.436 10 33 8.813z" class="cls-1" transform="translate(-2.68 -3.46)"/>
                        <path id="Fill-6" d="M39.929 22.128c-13.58.4-24.537 7.931-24.537 16.931a12.255 12.255 0 0 0 3.525 8.36c-3.625-2.894-5.8-6.625-5.8-10.737 0-9.277 11.046-17.078 24.922-17.806z" class="cls-1" transform="translate(-4.823 -6.984)"/>
                        <path id="Fill-8" d="M35.679 51.881q-.968 0-1.919-.061l-1.772-3.054q.572.006 1.15-.008c13.792-.351 24.973-9.658 24.973-20.787 0-7.336-4.859-13.633-12.121-16.973 8.85 3.331 15.018 10.817 15.018 19.519 0 11.8-11.34 21.364-25.329 21.364" class="cls-2" transform="translate(-11.43 -4.225)"/>
                        <path id="Fill-10" d="M26.8 42.876c13.912-.8 25.042-8.429 25.7-17.654a12.4 12.4 0 0 0 .079-1.4c0-5.2-3.276-9.819-8.538-13.043 6.6 3.487 10.83 9.02 10.83 15.337 0 10.382-11.435 19.151-26 20.333z" class="cls-2" transform="translate(-9.612 -4.149)"/>
                        <path id="Fill-12" d="M22.624 36.979c13.58-.4 24.537-7.931 24.537-16.931a12.255 12.255 0 0 0-3.525-8.36c3.625 2.894 5.8 6.624 5.8 10.736 0 9.277-11.046 17.079-24.922 17.806z" class="cls-2" transform="translate(-8.151 -4.466)"/>
                    </g>
                    <path id="Fill-14" d="M130.677 45.536V33.058a6.514 6.514 0 0 0-.244-2.024 1.882 1.882 0 0 0-.753-1.03 2.792 2.792 0 0 0-1.3-.375q-.79-.056-1.883-.056-.979 0-1.732.038t-1.28.075q-.639.037-1.092.075v15.775h-5.308V27.174q1.092-.225 2.523-.375 1.2-.15 2.955-.282t3.934-.131q2.334 0 4.1.168a7.35 7.35 0 0 1 2.956.843 4.145 4.145 0 0 1 1.769 2 9.3 9.3 0 0 1 .584 3.654v12.485zm-23.267-9.368q0-2.473-.113-3.8a4.231 4.231 0 0 0-.527-1.948 1.716 1.716 0 0 0-1.28-.731 19.058 19.058 0 0 0-2.334-.112h-.339a19.065 19.065 0 0 0-2.334.112 1.718 1.718 0 0 0-1.28.731 4.239 4.239 0 0 0-.527 1.948q-.113 1.331-.113 3.8v.332q0 2.361.075 3.654a3.785 3.785 0 0 0 .489 1.892 1.685 1.685 0 0 0 1.28.693 23.768 23.768 0 0 0 2.41.094h.339a23.186 23.186 0 0 0 2.391-.094 1.668 1.668 0 0 0 1.261-.693 3.9 3.9 0 0 0 .508-1.892q.095-1.292.094-3.654zm5.421.187a38.129 38.129 0 0 1-.264 5.04 4.991 4.991 0 0 1-1.261 2.9 5.3 5.3 0 0 1-2.956 1.349 33.366 33.366 0 0 1-5.384.337 33.058 33.058 0 0 1-5.345-.337 5.3 5.3 0 0 1-2.955-1.344 4.992 4.992 0 0 1-1.266-2.9 38.21 38.21 0 0 1-.264-5.04 32.069 32.069 0 0 1 .339-5.227 5.507 5.507 0 0 1 1.374-3.016 5.341 5.341 0 0 1 2.974-1.387 31.265 31.265 0 0 1 5.139-.337 31.62 31.62 0 0 1 5.158.337 5.356 5.356 0 0 1 2.993 1.387 5.509 5.509 0 0 1 1.374 3.016 32.16 32.16 0 0 1 .344 5.222z" class="cls-2" transform="translate(-32.844 -9.614)"/>
                    <path id="Fill-16" d="M226.965 45.536l-4.819-7.944-4.819 7.944h-5.648l5.911-9.518-5.685-9.181h5.647l4.669 7.607 4.668-7.607h5.535l-5.685 9.181 5.986 9.518zm-23.644-8.544h-4.932q-1.092 0-1.788.037a2.168 2.168 0 0 0-1.111.319 1.514 1.514 0 0 0-.583.88 6.508 6.508 0 0 0-.17 1.686 5.363 5.363 0 0 0 .244 1.836 1.692 1.692 0 0 0 .754.918 3.212 3.212 0 0 0 1.336.338q.829.056 1.958.056 2 0 3.125-.112.676-.037 1.166-.112zm5.234 8.206a20.982 20.982 0 0 1-2.6.413q-1.242.15-3.012.262t-3.991.112q-1.92 0-3.652-.094a9.135 9.135 0 0 1-3.068-.656 4.581 4.581 0 0 1-2.127-1.8 6.548 6.548 0 0 1-.791-3.523 7.71 7.71 0 0 1 .546-3.241 3.553 3.553 0 0 1 1.525-1.668 5.843 5.843 0 0 1 2.391-.618q1.411-.094 3.106-.094h6.438v-1.233a8.057 8.057 0 0 0-.207-2.08 1.9 1.9 0 0 0-.715-1.086 2.925 2.925 0 0 0-1.374-.45 20.472 20.472 0 0 0-2.146-.094q-1.92 0-3.482.056t-2.654.131q-1.319.113-2.335.225v-2.586a24.3 24.3 0 0 1 2.447-.375q1.2-.15 2.862-.282t3.764-.131q2.183 0 3.878.168a6.916 6.916 0 0 1 2.842.843 4.31 4.31 0 0 1 1.751 2 9.04 9.04 0 0 1 .6 3.654zm-28.5-9.031q0-2.473-.113-3.8a3.919 3.919 0 0 0-.565-1.948 1.86 1.86 0 0 0-1.337-.731 20.357 20.357 0 0 0-2.428-.112q-.979 0-1.732.038t-1.28.075c-.426.025-.791.05-1.092.075v12.887a10.742 10.742 0 0 0 1.092.112q.527.037 1.28.056t1.732.019q1.619 0 2.5-.094a1.762 1.762 0 0 0 1.317-.693 3.741 3.741 0 0 0 .527-1.892q.095-1.292.095-3.654zm5.421.187a38.136 38.136 0 0 1-.263 5.04 5.06 5.06 0 0 1-1.242 2.9 5.154 5.154 0 0 1-2.9 1.349 31.737 31.737 0 0 1-5.233.337q-2.071 0-3.2-.112a10.69 10.69 0 0 1-1.129-.113v8.282H166.2V27.174q1.131-.225 2.6-.375 1.243-.15 3.012-.282t4.029-.131a29.962 29.962 0 0 1 5.026.337 5.2 5.2 0 0 1 2.918 1.387 5.582 5.582 0 0 1 1.356 3.016 32.16 32.16 0 0 1 .334 5.229z" class="cls-2" transform="translate(-58.427 -9.614)"/>
                </g>
            </g>
        </g>
    </g>
</svg>
